M48
; DRILL file {KiCad (5.1.12)-1} date 11/28/21 01:25:16
; FORMAT={-:-/ absolute / metric / decimal}
; #@! TF.CreationDate,2021-11-28T01:25:16-03:00
; #@! TF.GenerationSoftware,Kicad,Pcbnew,(5.1.12)-1
; #@! TF.FileFunction,Plated,1,2,PTH
FMAT,2
METRIC
T1C0.400
T2C0.600
T3C0.990
T4C1.000
T5C1.016
%
G90
G05
T1
X107.188Y-110.236
X118.11Y-113.03
X121.158Y-84.709
X125.476Y-109.22
X130.302Y-97.79
X133.982Y-98.704
X157.607Y-95.072
T2
X160.655Y-70.866
X160.655Y-72.116
X160.655Y-73.366
X160.655Y-74.616
X160.655Y-75.866
X160.655Y-77.116
T3
X130.683Y-104.902
X130.683Y-109.402
X137.183Y-104.902
X137.183Y-109.402
T4
X103.759Y-85.852
X103.759Y-88.392
X103.759Y-90.932
X103.759Y-93.472
X103.759Y-96.012
X103.759Y-98.552
X103.759Y-101.092
X104.216Y-69.215
X106.299Y-85.852
X106.299Y-88.392
X106.299Y-90.932
X106.299Y-93.472
X106.299Y-96.012
X106.299Y-98.552
X106.299Y-101.092
X106.756Y-69.215
X108.839Y-85.852
X108.839Y-88.392
X108.839Y-90.932
X108.839Y-93.472
X108.839Y-96.012
X108.839Y-98.552
X108.839Y-101.092
X109.296Y-69.215
X111.836Y-69.215
X114.376Y-69.215
X114.808Y-100.33
X114.808Y-102.87
X114.808Y-106.68
X114.808Y-109.22
X116.916Y-69.215
X117.348Y-100.33
X117.348Y-102.87
X117.348Y-106.68
X117.348Y-109.22
X119.456Y-69.215
X119.888Y-100.33
X119.888Y-102.87
X119.888Y-106.68
X119.888Y-109.22
X122.047Y-113.157
X124.587Y-85.09
X124.587Y-87.63
X124.587Y-90.17
X124.587Y-113.157
X124.968Y-70.612
X124.968Y-73.152
X124.968Y-75.692
X127.127Y-85.09
X127.127Y-87.63
X127.127Y-90.17
X127.508Y-70.612
X127.508Y-73.152
X127.508Y-75.692
X129.667Y-85.09
X129.667Y-87.63
X129.667Y-90.17
X130.048Y-70.612
X130.048Y-73.152
X130.048Y-75.692
X132.207Y-85.09
X132.207Y-87.63
X132.207Y-90.17
X132.588Y-70.612
X132.588Y-73.152
X132.588Y-75.692
X134.747Y-85.09
X134.747Y-87.63
X134.747Y-90.17
X135.153Y-70.612
X135.153Y-73.152
X135.153Y-75.692
X137.287Y-85.09
X137.287Y-87.63
X137.287Y-90.17
X137.693Y-70.612
X137.693Y-73.152
X137.693Y-75.692
X139.827Y-85.09
X139.827Y-87.63
X139.827Y-90.17
X140.233Y-70.612
X140.233Y-73.152
X140.233Y-75.692
X142.367Y-85.09
X142.367Y-87.63
X142.367Y-90.17
X142.773Y-70.612
X142.773Y-73.152
X142.773Y-75.692
X144.907Y-85.09
X144.907Y-87.63
X144.907Y-90.17
X144.907Y-103.759
X144.907Y-106.299
X144.907Y-108.839
X147.447Y-85.09
X147.447Y-87.63
X147.447Y-90.17
X147.447Y-103.759
X147.447Y-106.299
X147.447Y-108.839
X147.701Y-70.612
X147.701Y-73.152
X147.701Y-75.692
X147.701Y-78.232
X149.987Y-85.09
X149.987Y-87.63
X149.987Y-90.17
X149.987Y-103.759
X149.987Y-106.299
X149.987Y-108.839
X152.146Y-70.612
X152.146Y-73.152
X152.146Y-75.692
X152.146Y-78.232
X152.527Y-85.09
X152.527Y-87.63
X152.527Y-90.17
X152.527Y-103.759
X152.527Y-106.299
X152.527Y-108.839
X155.067Y-85.09
X155.067Y-87.63
X155.067Y-90.17
X155.067Y-103.759
X155.067Y-106.299
X155.067Y-108.839
X156.591Y-70.612
X156.591Y-73.152
X156.591Y-75.692
X156.591Y-78.232
X157.607Y-85.09
X157.607Y-87.63
X157.607Y-90.17
X157.607Y-103.759
X157.607Y-106.299
X157.607Y-108.839
X160.147Y-85.09
X160.147Y-87.63
X160.147Y-90.17
X160.147Y-103.759
X160.147Y-106.299
X160.147Y-108.839
X162.687Y-103.759
X162.687Y-106.299
X162.687Y-108.839
X166.497Y-69.469
X169.037Y-69.469
X170.129Y-85.115
X170.129Y-87.655
X170.129Y-90.195
X170.688Y-103.759
X170.688Y-106.299
X170.688Y-108.839
X171.577Y-69.469
X172.669Y-85.115
X172.669Y-87.655
X172.669Y-90.195
X173.228Y-103.759
X173.228Y-106.299
X173.228Y-108.839
X174.117Y-69.469
X175.768Y-103.759
X175.768Y-106.299
X175.768Y-108.839
X176.657Y-69.469
X178.308Y-103.759
X178.308Y-106.299
X178.308Y-108.839
X179.197Y-69.469
X180.848Y-103.759
X180.848Y-106.299
X180.848Y-108.839
X183.388Y-103.759
X183.388Y-106.299
X183.388Y-108.839
X183.642Y-70.612
X183.642Y-73.152
X183.642Y-75.692
X183.642Y-78.232
X183.642Y-80.772
X183.642Y-83.312
X183.642Y-85.852
X183.642Y-88.392
X183.642Y-90.932
X183.642Y-93.472
X183.642Y-96.012
X183.642Y-98.552
X185.928Y-103.759
X185.928Y-106.299
X185.928Y-108.839
X186.182Y-70.612
X186.182Y-73.152
X186.182Y-75.692
X186.182Y-78.232
X186.182Y-80.772
X186.182Y-83.312
X186.182Y-85.852
X186.182Y-88.392
X186.182Y-90.932
X186.182Y-93.472
X186.182Y-96.012
X186.182Y-98.552
X188.468Y-103.759
X188.468Y-106.299
X188.468Y-108.839
X188.722Y-70.612
X188.722Y-73.152
X188.722Y-75.692
X188.722Y-78.232
X188.722Y-80.772
X188.722Y-83.312
X188.722Y-85.852
X188.722Y-88.392
X188.722Y-90.932
X188.722Y-93.472
X188.722Y-96.012
X188.722Y-98.552
T5
X119.126Y-64.77
X121.666Y-64.77
X124.206Y-64.77
X126.746Y-64.77
X128.27Y-113.03
X129.286Y-64.77
X130.81Y-113.03
X131.826Y-64.77
X133.35Y-113.03
X134.366Y-64.77
X135.89Y-113.03
X136.906Y-64.77
X138.43Y-113.03
X139.446Y-64.77
X140.97Y-113.03
X141.986Y-64.77
X143.51Y-113.03
X146.05Y-64.77
X146.05Y-113.03
X148.59Y-64.77
X151.13Y-64.77
X151.13Y-113.03
X153.67Y-64.77
X153.67Y-113.03
X156.21Y-64.77
X156.21Y-113.03
X158.75Y-64.77
X158.75Y-113.03
X161.29Y-64.77
X161.29Y-113.03
X163.83Y-64.77
X163.83Y-113.03
X163.957Y-85.09
X163.957Y-87.63
X163.957Y-90.17
X166.37Y-113.03
X166.497Y-85.09
X166.497Y-87.63
X166.497Y-90.17
X168.91Y-64.77
X168.91Y-113.03
X171.45Y-64.77
X173.99Y-64.77
X173.99Y-113.03
X176.53Y-64.77
X176.53Y-113.03
X179.07Y-64.77
X179.07Y-113.03
X181.61Y-64.77
X181.61Y-113.03
X184.15Y-64.77
X184.15Y-113.03
X186.69Y-64.77
X186.69Y-113.03
X189.23Y-113.03
X191.77Y-113.03
X194.31Y-64.77
X194.31Y-67.31
X194.31Y-69.85
X194.31Y-72.39
X194.31Y-74.93
X194.31Y-77.47
X194.31Y-80.01
X194.31Y-82.55
X194.31Y-85.09
X194.31Y-87.63
X194.31Y-90.17
X194.31Y-92.71
X194.31Y-95.25
X194.31Y-97.79
X194.31Y-100.33
X194.31Y-102.87
X194.31Y-105.41
X194.31Y-107.95
X196.85Y-64.77
X196.85Y-67.31
X196.85Y-69.85
X196.85Y-72.39
X196.85Y-74.93
X196.85Y-77.47
X196.85Y-80.01
X196.85Y-82.55
X196.85Y-85.09
X196.85Y-87.63
X196.85Y-90.17
X196.85Y-92.71
X196.85Y-95.25
X196.85Y-97.79
X196.85Y-100.33
X196.85Y-102.87
X196.85Y-105.41
X196.85Y-107.95
T0
M30
