%FSLAX45Y45*%
G04 Gerber Fmt 4.5, Leading zero omitted, Abs format (unit mm)*
G04 Created by KiCad (PCBNEW (5.1.12)-1) date 2021-11-28 01:25:26*
%MOMM*%
%LPD*%
G01*
G04 APERTURE LIST*
%TA.AperFunction,Profile*%
%ADD10C,0.050000*%
%TD*%
%ADD11C,0.200000*%
%ADD12C,0.300000*%
G04 APERTURE END LIST*
D10*
X10139680Y-6223000D02*
X19786600Y-6223000D01*
X10139680Y-11557000D02*
X10139680Y-6223000D01*
X19939000Y-11557000D02*
X10139680Y-11557000D01*
X20121880Y-11247120D02*
X19939000Y-11430000D01*
X20121880Y-7675880D02*
X20121880Y-11247120D01*
X19939000Y-7493000D02*
X20121880Y-7675880D01*
X19939000Y-11430000D02*
X19939000Y-11557000D01*
X19939000Y-6375400D02*
X19939000Y-7493000D01*
X19786600Y-6223000D02*
X19939000Y-6375400D01*
D11*
X10698800Y-11003600D02*
X10738800Y-11043600D01*
X10738800Y-11003600D02*
X10698800Y-11043600D01*
X11791000Y-11283000D02*
X11831000Y-11323000D01*
X11831000Y-11283000D02*
X11791000Y-11323000D01*
X12095800Y-8450900D02*
X12135800Y-8490900D01*
X12135800Y-8450900D02*
X12095800Y-8490900D01*
X12527600Y-10902000D02*
X12567600Y-10942000D01*
X12567600Y-10902000D02*
X12527600Y-10942000D01*
X13010200Y-9759000D02*
X13050200Y-9799000D01*
X13050200Y-9759000D02*
X13010200Y-9799000D01*
X13378200Y-9850440D02*
X13418200Y-9890440D01*
X13418200Y-9850440D02*
X13378200Y-9890440D01*
X15740700Y-9487220D02*
X15780700Y-9527220D01*
X15780700Y-9487220D02*
X15740700Y-9527220D01*
X16095500Y-7086600D02*
G75*
G03*
X16095500Y-7086600I-30000J0D01*
G01*
X16095500Y-7211600D02*
G75*
G03*
X16095500Y-7211600I-30000J0D01*
G01*
X16095500Y-7336600D02*
G75*
G03*
X16095500Y-7336600I-30000J0D01*
G01*
X16095500Y-7461600D02*
G75*
G03*
X16095500Y-7461600I-30000J0D01*
G01*
X16095500Y-7586600D02*
G75*
G03*
X16095500Y-7586600I-30000J0D01*
G01*
X16095500Y-7711600D02*
G75*
G03*
X16095500Y-7711600I-30000J0D01*
G01*
X13068300Y-10440700D02*
X13068300Y-10539700D01*
X13018800Y-10490200D02*
X13117800Y-10490200D01*
X13068300Y-10890700D02*
X13068300Y-10989700D01*
X13018800Y-10940200D02*
X13117800Y-10940200D01*
X13718300Y-10440700D02*
X13718300Y-10539700D01*
X13668800Y-10490200D02*
X13767800Y-10490200D01*
X13718300Y-10890700D02*
X13718300Y-10989700D01*
X13668800Y-10940200D02*
X13767800Y-10940200D01*
X10411256Y-8620556D02*
X10411256Y-8549844D01*
X10340544Y-8549844D01*
X10340544Y-8620556D01*
X10411256Y-8620556D01*
X10411256Y-8874556D02*
X10411256Y-8803844D01*
X10340544Y-8803844D01*
X10340544Y-8874556D01*
X10411256Y-8874556D01*
X10411256Y-9128556D02*
X10411256Y-9057844D01*
X10340544Y-9057844D01*
X10340544Y-9128556D01*
X10411256Y-9128556D01*
X10411256Y-9382556D02*
X10411256Y-9311844D01*
X10340544Y-9311844D01*
X10340544Y-9382556D01*
X10411256Y-9382556D01*
X10411256Y-9636556D02*
X10411256Y-9565844D01*
X10340544Y-9565844D01*
X10340544Y-9636556D01*
X10411256Y-9636556D01*
X10411256Y-9890556D02*
X10411256Y-9819844D01*
X10340544Y-9819844D01*
X10340544Y-9890556D01*
X10411256Y-9890556D01*
X10411256Y-10144556D02*
X10411256Y-10073844D01*
X10340544Y-10073844D01*
X10340544Y-10144556D01*
X10411256Y-10144556D01*
X10456976Y-6956856D02*
X10456976Y-6886144D01*
X10386264Y-6886144D01*
X10386264Y-6956856D01*
X10456976Y-6956856D01*
X10665256Y-8620556D02*
X10665256Y-8549844D01*
X10594544Y-8549844D01*
X10594544Y-8620556D01*
X10665256Y-8620556D01*
X10665256Y-8874556D02*
X10665256Y-8803844D01*
X10594544Y-8803844D01*
X10594544Y-8874556D01*
X10665256Y-8874556D01*
X10665256Y-9128556D02*
X10665256Y-9057844D01*
X10594544Y-9057844D01*
X10594544Y-9128556D01*
X10665256Y-9128556D01*
X10665256Y-9382556D02*
X10665256Y-9311844D01*
X10594544Y-9311844D01*
X10594544Y-9382556D01*
X10665256Y-9382556D01*
X10665256Y-9636556D02*
X10665256Y-9565844D01*
X10594544Y-9565844D01*
X10594544Y-9636556D01*
X10665256Y-9636556D01*
X10665256Y-9890556D02*
X10665256Y-9819844D01*
X10594544Y-9819844D01*
X10594544Y-9890556D01*
X10665256Y-9890556D01*
X10665256Y-10144556D02*
X10665256Y-10073844D01*
X10594544Y-10073844D01*
X10594544Y-10144556D01*
X10665256Y-10144556D01*
X10710976Y-6956856D02*
X10710976Y-6886144D01*
X10640264Y-6886144D01*
X10640264Y-6956856D01*
X10710976Y-6956856D01*
X10919256Y-8620556D02*
X10919256Y-8549844D01*
X10848544Y-8549844D01*
X10848544Y-8620556D01*
X10919256Y-8620556D01*
X10919256Y-8874556D02*
X10919256Y-8803844D01*
X10848544Y-8803844D01*
X10848544Y-8874556D01*
X10919256Y-8874556D01*
X10919256Y-9128556D02*
X10919256Y-9057844D01*
X10848544Y-9057844D01*
X10848544Y-9128556D01*
X10919256Y-9128556D01*
X10919256Y-9382556D02*
X10919256Y-9311844D01*
X10848544Y-9311844D01*
X10848544Y-9382556D01*
X10919256Y-9382556D01*
X10919256Y-9636556D02*
X10919256Y-9565844D01*
X10848544Y-9565844D01*
X10848544Y-9636556D01*
X10919256Y-9636556D01*
X10919256Y-9890556D02*
X10919256Y-9819844D01*
X10848544Y-9819844D01*
X10848544Y-9890556D01*
X10919256Y-9890556D01*
X10919256Y-10144556D02*
X10919256Y-10073844D01*
X10848544Y-10073844D01*
X10848544Y-10144556D01*
X10919256Y-10144556D01*
X10964976Y-6956856D02*
X10964976Y-6886144D01*
X10894264Y-6886144D01*
X10894264Y-6956856D01*
X10964976Y-6956856D01*
X11218976Y-6956856D02*
X11218976Y-6886144D01*
X11148264Y-6886144D01*
X11148264Y-6956856D01*
X11218976Y-6956856D01*
X11472976Y-6956856D02*
X11472976Y-6886144D01*
X11402264Y-6886144D01*
X11402264Y-6956856D01*
X11472976Y-6956856D01*
X11516156Y-10068356D02*
X11516156Y-9997644D01*
X11445444Y-9997644D01*
X11445444Y-10068356D01*
X11516156Y-10068356D01*
X11516156Y-10322356D02*
X11516156Y-10251644D01*
X11445444Y-10251644D01*
X11445444Y-10322356D01*
X11516156Y-10322356D01*
X11516156Y-10703356D02*
X11516156Y-10632644D01*
X11445444Y-10632644D01*
X11445444Y-10703356D01*
X11516156Y-10703356D01*
X11516156Y-10957356D02*
X11516156Y-10886644D01*
X11445444Y-10886644D01*
X11445444Y-10957356D01*
X11516156Y-10957356D01*
X11726976Y-6956856D02*
X11726976Y-6886144D01*
X11656264Y-6886144D01*
X11656264Y-6956856D01*
X11726976Y-6956856D01*
X11770156Y-10068356D02*
X11770156Y-9997644D01*
X11699444Y-9997644D01*
X11699444Y-10068356D01*
X11770156Y-10068356D01*
X11770156Y-10322356D02*
X11770156Y-10251644D01*
X11699444Y-10251644D01*
X11699444Y-10322356D01*
X11770156Y-10322356D01*
X11770156Y-10703356D02*
X11770156Y-10632644D01*
X11699444Y-10632644D01*
X11699444Y-10703356D01*
X11770156Y-10703356D01*
X11770156Y-10957356D02*
X11770156Y-10886644D01*
X11699444Y-10886644D01*
X11699444Y-10957356D01*
X11770156Y-10957356D01*
X11980976Y-6956856D02*
X11980976Y-6886144D01*
X11910264Y-6886144D01*
X11910264Y-6956856D01*
X11980976Y-6956856D01*
X12024156Y-10068356D02*
X12024156Y-9997644D01*
X11953444Y-9997644D01*
X11953444Y-10068356D01*
X12024156Y-10068356D01*
X12024156Y-10322356D02*
X12024156Y-10251644D01*
X11953444Y-10251644D01*
X11953444Y-10322356D01*
X12024156Y-10322356D01*
X12024156Y-10703356D02*
X12024156Y-10632644D01*
X11953444Y-10632644D01*
X11953444Y-10703356D01*
X12024156Y-10703356D01*
X12024156Y-10957356D02*
X12024156Y-10886644D01*
X11953444Y-10886644D01*
X11953444Y-10957356D01*
X12024156Y-10957356D01*
X12240056Y-11351056D02*
X12240056Y-11280344D01*
X12169344Y-11280344D01*
X12169344Y-11351056D01*
X12240056Y-11351056D01*
X12494056Y-8544356D02*
X12494056Y-8473644D01*
X12423344Y-8473644D01*
X12423344Y-8544356D01*
X12494056Y-8544356D01*
X12494056Y-8798356D02*
X12494056Y-8727644D01*
X12423344Y-8727644D01*
X12423344Y-8798356D01*
X12494056Y-8798356D01*
X12494056Y-9052356D02*
X12494056Y-8981644D01*
X12423344Y-8981644D01*
X12423344Y-9052356D01*
X12494056Y-9052356D01*
X12494056Y-11351056D02*
X12494056Y-11280344D01*
X12423344Y-11280344D01*
X12423344Y-11351056D01*
X12494056Y-11351056D01*
X12532156Y-7096556D02*
X12532156Y-7025844D01*
X12461444Y-7025844D01*
X12461444Y-7096556D01*
X12532156Y-7096556D01*
X12532156Y-7350556D02*
X12532156Y-7279844D01*
X12461444Y-7279844D01*
X12461444Y-7350556D01*
X12532156Y-7350556D01*
X12532156Y-7604556D02*
X12532156Y-7533844D01*
X12461444Y-7533844D01*
X12461444Y-7604556D01*
X12532156Y-7604556D01*
X12748056Y-8544356D02*
X12748056Y-8473644D01*
X12677344Y-8473644D01*
X12677344Y-8544356D01*
X12748056Y-8544356D01*
X12748056Y-8798356D02*
X12748056Y-8727644D01*
X12677344Y-8727644D01*
X12677344Y-8798356D01*
X12748056Y-8798356D01*
X12748056Y-9052356D02*
X12748056Y-8981644D01*
X12677344Y-8981644D01*
X12677344Y-9052356D01*
X12748056Y-9052356D01*
X12786156Y-7096556D02*
X12786156Y-7025844D01*
X12715444Y-7025844D01*
X12715444Y-7096556D01*
X12786156Y-7096556D01*
X12786156Y-7350556D02*
X12786156Y-7279844D01*
X12715444Y-7279844D01*
X12715444Y-7350556D01*
X12786156Y-7350556D01*
X12786156Y-7604556D02*
X12786156Y-7533844D01*
X12715444Y-7533844D01*
X12715444Y-7604556D01*
X12786156Y-7604556D01*
X13002056Y-8544356D02*
X13002056Y-8473644D01*
X12931344Y-8473644D01*
X12931344Y-8544356D01*
X13002056Y-8544356D01*
X13002056Y-8798356D02*
X13002056Y-8727644D01*
X12931344Y-8727644D01*
X12931344Y-8798356D01*
X13002056Y-8798356D01*
X13002056Y-9052356D02*
X13002056Y-8981644D01*
X12931344Y-8981644D01*
X12931344Y-9052356D01*
X13002056Y-9052356D01*
X13040156Y-7096556D02*
X13040156Y-7025844D01*
X12969444Y-7025844D01*
X12969444Y-7096556D01*
X13040156Y-7096556D01*
X13040156Y-7350556D02*
X13040156Y-7279844D01*
X12969444Y-7279844D01*
X12969444Y-7350556D01*
X13040156Y-7350556D01*
X13040156Y-7604556D02*
X13040156Y-7533844D01*
X12969444Y-7533844D01*
X12969444Y-7604556D01*
X13040156Y-7604556D01*
X13256056Y-8544356D02*
X13256056Y-8473644D01*
X13185344Y-8473644D01*
X13185344Y-8544356D01*
X13256056Y-8544356D01*
X13256056Y-8798356D02*
X13256056Y-8727644D01*
X13185344Y-8727644D01*
X13185344Y-8798356D01*
X13256056Y-8798356D01*
X13256056Y-9052356D02*
X13256056Y-8981644D01*
X13185344Y-8981644D01*
X13185344Y-9052356D01*
X13256056Y-9052356D01*
X13294156Y-7096556D02*
X13294156Y-7025844D01*
X13223444Y-7025844D01*
X13223444Y-7096556D01*
X13294156Y-7096556D01*
X13294156Y-7350556D02*
X13294156Y-7279844D01*
X13223444Y-7279844D01*
X13223444Y-7350556D01*
X13294156Y-7350556D01*
X13294156Y-7604556D02*
X13294156Y-7533844D01*
X13223444Y-7533844D01*
X13223444Y-7604556D01*
X13294156Y-7604556D01*
X13510056Y-8544356D02*
X13510056Y-8473644D01*
X13439344Y-8473644D01*
X13439344Y-8544356D01*
X13510056Y-8544356D01*
X13510056Y-8798356D02*
X13510056Y-8727644D01*
X13439344Y-8727644D01*
X13439344Y-8798356D01*
X13510056Y-8798356D01*
X13510056Y-9052356D02*
X13510056Y-8981644D01*
X13439344Y-8981644D01*
X13439344Y-9052356D01*
X13510056Y-9052356D01*
X13550696Y-7096536D02*
X13550696Y-7025824D01*
X13479984Y-7025824D01*
X13479984Y-7096536D01*
X13550696Y-7096536D01*
X13550696Y-7350536D02*
X13550696Y-7279824D01*
X13479984Y-7279824D01*
X13479984Y-7350536D01*
X13550696Y-7350536D01*
X13550696Y-7604536D02*
X13550696Y-7533824D01*
X13479984Y-7533824D01*
X13479984Y-7604536D01*
X13550696Y-7604536D01*
X13764056Y-8544356D02*
X13764056Y-8473644D01*
X13693344Y-8473644D01*
X13693344Y-8544356D01*
X13764056Y-8544356D01*
X13764056Y-8798356D02*
X13764056Y-8727644D01*
X13693344Y-8727644D01*
X13693344Y-8798356D01*
X13764056Y-8798356D01*
X13764056Y-9052356D02*
X13764056Y-8981644D01*
X13693344Y-8981644D01*
X13693344Y-9052356D01*
X13764056Y-9052356D01*
X13804696Y-7096536D02*
X13804696Y-7025824D01*
X13733984Y-7025824D01*
X13733984Y-7096536D01*
X13804696Y-7096536D01*
X13804696Y-7350536D02*
X13804696Y-7279824D01*
X13733984Y-7279824D01*
X13733984Y-7350536D01*
X13804696Y-7350536D01*
X13804696Y-7604536D02*
X13804696Y-7533824D01*
X13733984Y-7533824D01*
X13733984Y-7604536D01*
X13804696Y-7604536D01*
X14018056Y-8544356D02*
X14018056Y-8473644D01*
X13947344Y-8473644D01*
X13947344Y-8544356D01*
X14018056Y-8544356D01*
X14018056Y-8798356D02*
X14018056Y-8727644D01*
X13947344Y-8727644D01*
X13947344Y-8798356D01*
X14018056Y-8798356D01*
X14018056Y-9052356D02*
X14018056Y-8981644D01*
X13947344Y-8981644D01*
X13947344Y-9052356D01*
X14018056Y-9052356D01*
X14058696Y-7096556D02*
X14058696Y-7025844D01*
X13987984Y-7025844D01*
X13987984Y-7096556D01*
X14058696Y-7096556D01*
X14058696Y-7350556D02*
X14058696Y-7279844D01*
X13987984Y-7279844D01*
X13987984Y-7350556D01*
X14058696Y-7350556D01*
X14058696Y-7604556D02*
X14058696Y-7533844D01*
X13987984Y-7533844D01*
X13987984Y-7604556D01*
X14058696Y-7604556D01*
X14272056Y-8544356D02*
X14272056Y-8473644D01*
X14201344Y-8473644D01*
X14201344Y-8544356D01*
X14272056Y-8544356D01*
X14272056Y-8798356D02*
X14272056Y-8727644D01*
X14201344Y-8727644D01*
X14201344Y-8798356D01*
X14272056Y-8798356D01*
X14272056Y-9052356D02*
X14272056Y-8981644D01*
X14201344Y-8981644D01*
X14201344Y-9052356D01*
X14272056Y-9052356D01*
X14312696Y-7096556D02*
X14312696Y-7025844D01*
X14241984Y-7025844D01*
X14241984Y-7096556D01*
X14312696Y-7096556D01*
X14312696Y-7350556D02*
X14312696Y-7279844D01*
X14241984Y-7279844D01*
X14241984Y-7350556D01*
X14312696Y-7350556D01*
X14312696Y-7604556D02*
X14312696Y-7533844D01*
X14241984Y-7533844D01*
X14241984Y-7604556D01*
X14312696Y-7604556D01*
X14526056Y-8544356D02*
X14526056Y-8473644D01*
X14455344Y-8473644D01*
X14455344Y-8544356D01*
X14526056Y-8544356D01*
X14526056Y-8798356D02*
X14526056Y-8727644D01*
X14455344Y-8727644D01*
X14455344Y-8798356D01*
X14526056Y-8798356D01*
X14526056Y-9052356D02*
X14526056Y-8981644D01*
X14455344Y-8981644D01*
X14455344Y-9052356D01*
X14526056Y-9052356D01*
X14526056Y-10411256D02*
X14526056Y-10340544D01*
X14455344Y-10340544D01*
X14455344Y-10411256D01*
X14526056Y-10411256D01*
X14526056Y-10665256D02*
X14526056Y-10594544D01*
X14455344Y-10594544D01*
X14455344Y-10665256D01*
X14526056Y-10665256D01*
X14526056Y-10919256D02*
X14526056Y-10848544D01*
X14455344Y-10848544D01*
X14455344Y-10919256D01*
X14526056Y-10919256D01*
X14780056Y-8544356D02*
X14780056Y-8473644D01*
X14709344Y-8473644D01*
X14709344Y-8544356D01*
X14780056Y-8544356D01*
X14780056Y-8798356D02*
X14780056Y-8727644D01*
X14709344Y-8727644D01*
X14709344Y-8798356D01*
X14780056Y-8798356D01*
X14780056Y-9052356D02*
X14780056Y-8981644D01*
X14709344Y-8981644D01*
X14709344Y-9052356D01*
X14780056Y-9052356D01*
X14780056Y-10411256D02*
X14780056Y-10340544D01*
X14709344Y-10340544D01*
X14709344Y-10411256D01*
X14780056Y-10411256D01*
X14780056Y-10665256D02*
X14780056Y-10594544D01*
X14709344Y-10594544D01*
X14709344Y-10665256D01*
X14780056Y-10665256D01*
X14780056Y-10919256D02*
X14780056Y-10848544D01*
X14709344Y-10848544D01*
X14709344Y-10919256D01*
X14780056Y-10919256D01*
X14805456Y-7096556D02*
X14805456Y-7025844D01*
X14734744Y-7025844D01*
X14734744Y-7096556D01*
X14805456Y-7096556D01*
X14805456Y-7350556D02*
X14805456Y-7279844D01*
X14734744Y-7279844D01*
X14734744Y-7350556D01*
X14805456Y-7350556D01*
X14805456Y-7604556D02*
X14805456Y-7533844D01*
X14734744Y-7533844D01*
X14734744Y-7604556D01*
X14805456Y-7604556D01*
X14805456Y-7858556D02*
X14805456Y-7787844D01*
X14734744Y-7787844D01*
X14734744Y-7858556D01*
X14805456Y-7858556D01*
X15034056Y-8544356D02*
X15034056Y-8473644D01*
X14963344Y-8473644D01*
X14963344Y-8544356D01*
X15034056Y-8544356D01*
X15034056Y-8798356D02*
X15034056Y-8727644D01*
X14963344Y-8727644D01*
X14963344Y-8798356D01*
X15034056Y-8798356D01*
X15034056Y-9052356D02*
X15034056Y-8981644D01*
X14963344Y-8981644D01*
X14963344Y-9052356D01*
X15034056Y-9052356D01*
X15034056Y-10411256D02*
X15034056Y-10340544D01*
X14963344Y-10340544D01*
X14963344Y-10411256D01*
X15034056Y-10411256D01*
X15034056Y-10665256D02*
X15034056Y-10594544D01*
X14963344Y-10594544D01*
X14963344Y-10665256D01*
X15034056Y-10665256D01*
X15034056Y-10919256D02*
X15034056Y-10848544D01*
X14963344Y-10848544D01*
X14963344Y-10919256D01*
X15034056Y-10919256D01*
X15249956Y-7096556D02*
X15249956Y-7025844D01*
X15179244Y-7025844D01*
X15179244Y-7096556D01*
X15249956Y-7096556D01*
X15249956Y-7350556D02*
X15249956Y-7279844D01*
X15179244Y-7279844D01*
X15179244Y-7350556D01*
X15249956Y-7350556D01*
X15249956Y-7604556D02*
X15249956Y-7533844D01*
X15179244Y-7533844D01*
X15179244Y-7604556D01*
X15249956Y-7604556D01*
X15249956Y-7858556D02*
X15249956Y-7787844D01*
X15179244Y-7787844D01*
X15179244Y-7858556D01*
X15249956Y-7858556D01*
X15288056Y-8544356D02*
X15288056Y-8473644D01*
X15217344Y-8473644D01*
X15217344Y-8544356D01*
X15288056Y-8544356D01*
X15288056Y-8798356D02*
X15288056Y-8727644D01*
X15217344Y-8727644D01*
X15217344Y-8798356D01*
X15288056Y-8798356D01*
X15288056Y-9052356D02*
X15288056Y-8981644D01*
X15217344Y-8981644D01*
X15217344Y-9052356D01*
X15288056Y-9052356D01*
X15288056Y-10411256D02*
X15288056Y-10340544D01*
X15217344Y-10340544D01*
X15217344Y-10411256D01*
X15288056Y-10411256D01*
X15288056Y-10665256D02*
X15288056Y-10594544D01*
X15217344Y-10594544D01*
X15217344Y-10665256D01*
X15288056Y-10665256D01*
X15288056Y-10919256D02*
X15288056Y-10848544D01*
X15217344Y-10848544D01*
X15217344Y-10919256D01*
X15288056Y-10919256D01*
X15542056Y-8544356D02*
X15542056Y-8473644D01*
X15471344Y-8473644D01*
X15471344Y-8544356D01*
X15542056Y-8544356D01*
X15542056Y-8798356D02*
X15542056Y-8727644D01*
X15471344Y-8727644D01*
X15471344Y-8798356D01*
X15542056Y-8798356D01*
X15542056Y-9052356D02*
X15542056Y-8981644D01*
X15471344Y-8981644D01*
X15471344Y-9052356D01*
X15542056Y-9052356D01*
X15542056Y-10411256D02*
X15542056Y-10340544D01*
X15471344Y-10340544D01*
X15471344Y-10411256D01*
X15542056Y-10411256D01*
X15542056Y-10665256D02*
X15542056Y-10594544D01*
X15471344Y-10594544D01*
X15471344Y-10665256D01*
X15542056Y-10665256D01*
X15542056Y-10919256D02*
X15542056Y-10848544D01*
X15471344Y-10848544D01*
X15471344Y-10919256D01*
X15542056Y-10919256D01*
X15694456Y-7096556D02*
X15694456Y-7025844D01*
X15623744Y-7025844D01*
X15623744Y-7096556D01*
X15694456Y-7096556D01*
X15694456Y-7350556D02*
X15694456Y-7279844D01*
X15623744Y-7279844D01*
X15623744Y-7350556D01*
X15694456Y-7350556D01*
X15694456Y-7604556D02*
X15694456Y-7533844D01*
X15623744Y-7533844D01*
X15623744Y-7604556D01*
X15694456Y-7604556D01*
X15694456Y-7858556D02*
X15694456Y-7787844D01*
X15623744Y-7787844D01*
X15623744Y-7858556D01*
X15694456Y-7858556D01*
X15796056Y-8544356D02*
X15796056Y-8473644D01*
X15725344Y-8473644D01*
X15725344Y-8544356D01*
X15796056Y-8544356D01*
X15796056Y-8798356D02*
X15796056Y-8727644D01*
X15725344Y-8727644D01*
X15725344Y-8798356D01*
X15796056Y-8798356D01*
X15796056Y-9052356D02*
X15796056Y-8981644D01*
X15725344Y-8981644D01*
X15725344Y-9052356D01*
X15796056Y-9052356D01*
X15796056Y-10411256D02*
X15796056Y-10340544D01*
X15725344Y-10340544D01*
X15725344Y-10411256D01*
X15796056Y-10411256D01*
X15796056Y-10665256D02*
X15796056Y-10594544D01*
X15725344Y-10594544D01*
X15725344Y-10665256D01*
X15796056Y-10665256D01*
X15796056Y-10919256D02*
X15796056Y-10848544D01*
X15725344Y-10848544D01*
X15725344Y-10919256D01*
X15796056Y-10919256D01*
X16050056Y-8544356D02*
X16050056Y-8473644D01*
X15979344Y-8473644D01*
X15979344Y-8544356D01*
X16050056Y-8544356D01*
X16050056Y-8798356D02*
X16050056Y-8727644D01*
X15979344Y-8727644D01*
X15979344Y-8798356D01*
X16050056Y-8798356D01*
X16050056Y-9052356D02*
X16050056Y-8981644D01*
X15979344Y-8981644D01*
X15979344Y-9052356D01*
X16050056Y-9052356D01*
X16050056Y-10411256D02*
X16050056Y-10340544D01*
X15979344Y-10340544D01*
X15979344Y-10411256D01*
X16050056Y-10411256D01*
X16050056Y-10665256D02*
X16050056Y-10594544D01*
X15979344Y-10594544D01*
X15979344Y-10665256D01*
X16050056Y-10665256D01*
X16050056Y-10919256D02*
X16050056Y-10848544D01*
X15979344Y-10848544D01*
X15979344Y-10919256D01*
X16050056Y-10919256D01*
X16304056Y-10411256D02*
X16304056Y-10340544D01*
X16233344Y-10340544D01*
X16233344Y-10411256D01*
X16304056Y-10411256D01*
X16304056Y-10665256D02*
X16304056Y-10594544D01*
X16233344Y-10594544D01*
X16233344Y-10665256D01*
X16304056Y-10665256D01*
X16304056Y-10919256D02*
X16304056Y-10848544D01*
X16233344Y-10848544D01*
X16233344Y-10919256D01*
X16304056Y-10919256D01*
X16685056Y-6982256D02*
X16685056Y-6911544D01*
X16614344Y-6911544D01*
X16614344Y-6982256D01*
X16685056Y-6982256D01*
X16939056Y-6982256D02*
X16939056Y-6911544D01*
X16868344Y-6911544D01*
X16868344Y-6982256D01*
X16939056Y-6982256D01*
X17048276Y-8546896D02*
X17048276Y-8476184D01*
X16977564Y-8476184D01*
X16977564Y-8546896D01*
X17048276Y-8546896D01*
X17048276Y-8800896D02*
X17048276Y-8730184D01*
X16977564Y-8730184D01*
X16977564Y-8800896D01*
X17048276Y-8800896D01*
X17048276Y-9054896D02*
X17048276Y-8984184D01*
X16977564Y-8984184D01*
X16977564Y-9054896D01*
X17048276Y-9054896D01*
X17104156Y-10411256D02*
X17104156Y-10340544D01*
X17033444Y-10340544D01*
X17033444Y-10411256D01*
X17104156Y-10411256D01*
X17104156Y-10665256D02*
X17104156Y-10594544D01*
X17033444Y-10594544D01*
X17033444Y-10665256D01*
X17104156Y-10665256D01*
X17104156Y-10919256D02*
X17104156Y-10848544D01*
X17033444Y-10848544D01*
X17033444Y-10919256D01*
X17104156Y-10919256D01*
X17193056Y-6982256D02*
X17193056Y-6911544D01*
X17122344Y-6911544D01*
X17122344Y-6982256D01*
X17193056Y-6982256D01*
X17302276Y-8546896D02*
X17302276Y-8476184D01*
X17231564Y-8476184D01*
X17231564Y-8546896D01*
X17302276Y-8546896D01*
X17302276Y-8800896D02*
X17302276Y-8730184D01*
X17231564Y-8730184D01*
X17231564Y-8800896D01*
X17302276Y-8800896D01*
X17302276Y-9054896D02*
X17302276Y-8984184D01*
X17231564Y-8984184D01*
X17231564Y-9054896D01*
X17302276Y-9054896D01*
X17358156Y-10411256D02*
X17358156Y-10340544D01*
X17287444Y-10340544D01*
X17287444Y-10411256D01*
X17358156Y-10411256D01*
X17358156Y-10665256D02*
X17358156Y-10594544D01*
X17287444Y-10594544D01*
X17287444Y-10665256D01*
X17358156Y-10665256D01*
X17358156Y-10919256D02*
X17358156Y-10848544D01*
X17287444Y-10848544D01*
X17287444Y-10919256D01*
X17358156Y-10919256D01*
X17447056Y-6982256D02*
X17447056Y-6911544D01*
X17376344Y-6911544D01*
X17376344Y-6982256D01*
X17447056Y-6982256D01*
X17612156Y-10411256D02*
X17612156Y-10340544D01*
X17541444Y-10340544D01*
X17541444Y-10411256D01*
X17612156Y-10411256D01*
X17612156Y-10665256D02*
X17612156Y-10594544D01*
X17541444Y-10594544D01*
X17541444Y-10665256D01*
X17612156Y-10665256D01*
X17612156Y-10919256D02*
X17612156Y-10848544D01*
X17541444Y-10848544D01*
X17541444Y-10919256D01*
X17612156Y-10919256D01*
X17701056Y-6982256D02*
X17701056Y-6911544D01*
X17630344Y-6911544D01*
X17630344Y-6982256D01*
X17701056Y-6982256D01*
X17866156Y-10411256D02*
X17866156Y-10340544D01*
X17795444Y-10340544D01*
X17795444Y-10411256D01*
X17866156Y-10411256D01*
X17866156Y-10665256D02*
X17866156Y-10594544D01*
X17795444Y-10594544D01*
X17795444Y-10665256D01*
X17866156Y-10665256D01*
X17866156Y-10919256D02*
X17866156Y-10848544D01*
X17795444Y-10848544D01*
X17795444Y-10919256D01*
X17866156Y-10919256D01*
X17955056Y-6982256D02*
X17955056Y-6911544D01*
X17884344Y-6911544D01*
X17884344Y-6982256D01*
X17955056Y-6982256D01*
X18120156Y-10411256D02*
X18120156Y-10340544D01*
X18049444Y-10340544D01*
X18049444Y-10411256D01*
X18120156Y-10411256D01*
X18120156Y-10665256D02*
X18120156Y-10594544D01*
X18049444Y-10594544D01*
X18049444Y-10665256D01*
X18120156Y-10665256D01*
X18120156Y-10919256D02*
X18120156Y-10848544D01*
X18049444Y-10848544D01*
X18049444Y-10919256D01*
X18120156Y-10919256D01*
X18374156Y-10411256D02*
X18374156Y-10340544D01*
X18303444Y-10340544D01*
X18303444Y-10411256D01*
X18374156Y-10411256D01*
X18374156Y-10665256D02*
X18374156Y-10594544D01*
X18303444Y-10594544D01*
X18303444Y-10665256D01*
X18374156Y-10665256D01*
X18374156Y-10919256D02*
X18374156Y-10848544D01*
X18303444Y-10848544D01*
X18303444Y-10919256D01*
X18374156Y-10919256D01*
X18399556Y-7096556D02*
X18399556Y-7025844D01*
X18328844Y-7025844D01*
X18328844Y-7096556D01*
X18399556Y-7096556D01*
X18399556Y-7350556D02*
X18399556Y-7279844D01*
X18328844Y-7279844D01*
X18328844Y-7350556D01*
X18399556Y-7350556D01*
X18399556Y-7604556D02*
X18399556Y-7533844D01*
X18328844Y-7533844D01*
X18328844Y-7604556D01*
X18399556Y-7604556D01*
X18399556Y-7858556D02*
X18399556Y-7787844D01*
X18328844Y-7787844D01*
X18328844Y-7858556D01*
X18399556Y-7858556D01*
X18399556Y-8112556D02*
X18399556Y-8041844D01*
X18328844Y-8041844D01*
X18328844Y-8112556D01*
X18399556Y-8112556D01*
X18399556Y-8366556D02*
X18399556Y-8295844D01*
X18328844Y-8295844D01*
X18328844Y-8366556D01*
X18399556Y-8366556D01*
X18399556Y-8620556D02*
X18399556Y-8549844D01*
X18328844Y-8549844D01*
X18328844Y-8620556D01*
X18399556Y-8620556D01*
X18399556Y-8874556D02*
X18399556Y-8803844D01*
X18328844Y-8803844D01*
X18328844Y-8874556D01*
X18399556Y-8874556D01*
X18399556Y-9128556D02*
X18399556Y-9057844D01*
X18328844Y-9057844D01*
X18328844Y-9128556D01*
X18399556Y-9128556D01*
X18399556Y-9382556D02*
X18399556Y-9311844D01*
X18328844Y-9311844D01*
X18328844Y-9382556D01*
X18399556Y-9382556D01*
X18399556Y-9636556D02*
X18399556Y-9565844D01*
X18328844Y-9565844D01*
X18328844Y-9636556D01*
X18399556Y-9636556D01*
X18399556Y-9890556D02*
X18399556Y-9819844D01*
X18328844Y-9819844D01*
X18328844Y-9890556D01*
X18399556Y-9890556D01*
X18628156Y-10411256D02*
X18628156Y-10340544D01*
X18557444Y-10340544D01*
X18557444Y-10411256D01*
X18628156Y-10411256D01*
X18628156Y-10665256D02*
X18628156Y-10594544D01*
X18557444Y-10594544D01*
X18557444Y-10665256D01*
X18628156Y-10665256D01*
X18628156Y-10919256D02*
X18628156Y-10848544D01*
X18557444Y-10848544D01*
X18557444Y-10919256D01*
X18628156Y-10919256D01*
X18653556Y-7096556D02*
X18653556Y-7025844D01*
X18582844Y-7025844D01*
X18582844Y-7096556D01*
X18653556Y-7096556D01*
X18653556Y-7350556D02*
X18653556Y-7279844D01*
X18582844Y-7279844D01*
X18582844Y-7350556D01*
X18653556Y-7350556D01*
X18653556Y-7604556D02*
X18653556Y-7533844D01*
X18582844Y-7533844D01*
X18582844Y-7604556D01*
X18653556Y-7604556D01*
X18653556Y-7858556D02*
X18653556Y-7787844D01*
X18582844Y-7787844D01*
X18582844Y-7858556D01*
X18653556Y-7858556D01*
X18653556Y-8112556D02*
X18653556Y-8041844D01*
X18582844Y-8041844D01*
X18582844Y-8112556D01*
X18653556Y-8112556D01*
X18653556Y-8366556D02*
X18653556Y-8295844D01*
X18582844Y-8295844D01*
X18582844Y-8366556D01*
X18653556Y-8366556D01*
X18653556Y-8620556D02*
X18653556Y-8549844D01*
X18582844Y-8549844D01*
X18582844Y-8620556D01*
X18653556Y-8620556D01*
X18653556Y-8874556D02*
X18653556Y-8803844D01*
X18582844Y-8803844D01*
X18582844Y-8874556D01*
X18653556Y-8874556D01*
X18653556Y-9128556D02*
X18653556Y-9057844D01*
X18582844Y-9057844D01*
X18582844Y-9128556D01*
X18653556Y-9128556D01*
X18653556Y-9382556D02*
X18653556Y-9311844D01*
X18582844Y-9311844D01*
X18582844Y-9382556D01*
X18653556Y-9382556D01*
X18653556Y-9636556D02*
X18653556Y-9565844D01*
X18582844Y-9565844D01*
X18582844Y-9636556D01*
X18653556Y-9636556D01*
X18653556Y-9890556D02*
X18653556Y-9819844D01*
X18582844Y-9819844D01*
X18582844Y-9890556D01*
X18653556Y-9890556D01*
X18882156Y-10411256D02*
X18882156Y-10340544D01*
X18811444Y-10340544D01*
X18811444Y-10411256D01*
X18882156Y-10411256D01*
X18882156Y-10665256D02*
X18882156Y-10594544D01*
X18811444Y-10594544D01*
X18811444Y-10665256D01*
X18882156Y-10665256D01*
X18882156Y-10919256D02*
X18882156Y-10848544D01*
X18811444Y-10848544D01*
X18811444Y-10919256D01*
X18882156Y-10919256D01*
X18907556Y-7096556D02*
X18907556Y-7025844D01*
X18836844Y-7025844D01*
X18836844Y-7096556D01*
X18907556Y-7096556D01*
X18907556Y-7350556D02*
X18907556Y-7279844D01*
X18836844Y-7279844D01*
X18836844Y-7350556D01*
X18907556Y-7350556D01*
X18907556Y-7604556D02*
X18907556Y-7533844D01*
X18836844Y-7533844D01*
X18836844Y-7604556D01*
X18907556Y-7604556D01*
X18907556Y-7858556D02*
X18907556Y-7787844D01*
X18836844Y-7787844D01*
X18836844Y-7858556D01*
X18907556Y-7858556D01*
X18907556Y-8112556D02*
X18907556Y-8041844D01*
X18836844Y-8041844D01*
X18836844Y-8112556D01*
X18907556Y-8112556D01*
X18907556Y-8366556D02*
X18907556Y-8295844D01*
X18836844Y-8295844D01*
X18836844Y-8366556D01*
X18907556Y-8366556D01*
X18907556Y-8620556D02*
X18907556Y-8549844D01*
X18836844Y-8549844D01*
X18836844Y-8620556D01*
X18907556Y-8620556D01*
X18907556Y-8874556D02*
X18907556Y-8803844D01*
X18836844Y-8803844D01*
X18836844Y-8874556D01*
X18907556Y-8874556D01*
X18907556Y-9128556D02*
X18907556Y-9057844D01*
X18836844Y-9057844D01*
X18836844Y-9128556D01*
X18907556Y-9128556D01*
X18907556Y-9382556D02*
X18907556Y-9311844D01*
X18836844Y-9311844D01*
X18836844Y-9382556D01*
X18907556Y-9382556D01*
X18907556Y-9636556D02*
X18907556Y-9565844D01*
X18836844Y-9565844D01*
X18836844Y-9636556D01*
X18907556Y-9636556D01*
X18907556Y-9890556D02*
X18907556Y-9819844D01*
X18836844Y-9819844D01*
X18836844Y-9890556D01*
X18907556Y-9890556D01*
X11912600Y-6527800D02*
X11963400Y-6477000D01*
X11912600Y-6426200D01*
X11861800Y-6477000D01*
X11912600Y-6527800D01*
X12166600Y-6527800D02*
X12217400Y-6477000D01*
X12166600Y-6426200D01*
X12115800Y-6477000D01*
X12166600Y-6527800D01*
X12420600Y-6527800D02*
X12471400Y-6477000D01*
X12420600Y-6426200D01*
X12369800Y-6477000D01*
X12420600Y-6527800D01*
X12674600Y-6527800D02*
X12725400Y-6477000D01*
X12674600Y-6426200D01*
X12623800Y-6477000D01*
X12674600Y-6527800D01*
X12827000Y-11353800D02*
X12877800Y-11303000D01*
X12827000Y-11252200D01*
X12776200Y-11303000D01*
X12827000Y-11353800D01*
X12928600Y-6527800D02*
X12979400Y-6477000D01*
X12928600Y-6426200D01*
X12877800Y-6477000D01*
X12928600Y-6527800D01*
X13081000Y-11353800D02*
X13131800Y-11303000D01*
X13081000Y-11252200D01*
X13030200Y-11303000D01*
X13081000Y-11353800D01*
X13182600Y-6527800D02*
X13233400Y-6477000D01*
X13182600Y-6426200D01*
X13131800Y-6477000D01*
X13182600Y-6527800D01*
X13335000Y-11353800D02*
X13385800Y-11303000D01*
X13335000Y-11252200D01*
X13284200Y-11303000D01*
X13335000Y-11353800D01*
X13436600Y-6527800D02*
X13487400Y-6477000D01*
X13436600Y-6426200D01*
X13385800Y-6477000D01*
X13436600Y-6527800D01*
X13589000Y-11353800D02*
X13639800Y-11303000D01*
X13589000Y-11252200D01*
X13538200Y-11303000D01*
X13589000Y-11353800D01*
X13690600Y-6527800D02*
X13741400Y-6477000D01*
X13690600Y-6426200D01*
X13639800Y-6477000D01*
X13690600Y-6527800D01*
X13843000Y-11353800D02*
X13893800Y-11303000D01*
X13843000Y-11252200D01*
X13792200Y-11303000D01*
X13843000Y-11353800D01*
X13944600Y-6527800D02*
X13995400Y-6477000D01*
X13944600Y-6426200D01*
X13893800Y-6477000D01*
X13944600Y-6527800D01*
X14097000Y-11353800D02*
X14147800Y-11303000D01*
X14097000Y-11252200D01*
X14046200Y-11303000D01*
X14097000Y-11353800D01*
X14198600Y-6527800D02*
X14249400Y-6477000D01*
X14198600Y-6426200D01*
X14147800Y-6477000D01*
X14198600Y-6527800D01*
X14351000Y-11353800D02*
X14401800Y-11303000D01*
X14351000Y-11252200D01*
X14300200Y-11303000D01*
X14351000Y-11353800D01*
X14605000Y-6527800D02*
X14655800Y-6477000D01*
X14605000Y-6426200D01*
X14554200Y-6477000D01*
X14605000Y-6527800D01*
X14605000Y-11353800D02*
X14655800Y-11303000D01*
X14605000Y-11252200D01*
X14554200Y-11303000D01*
X14605000Y-11353800D01*
X14859000Y-6527800D02*
X14909800Y-6477000D01*
X14859000Y-6426200D01*
X14808200Y-6477000D01*
X14859000Y-6527800D01*
X15113000Y-6527800D02*
X15163800Y-6477000D01*
X15113000Y-6426200D01*
X15062200Y-6477000D01*
X15113000Y-6527800D01*
X15113000Y-11353800D02*
X15163800Y-11303000D01*
X15113000Y-11252200D01*
X15062200Y-11303000D01*
X15113000Y-11353800D01*
X15367000Y-6527800D02*
X15417800Y-6477000D01*
X15367000Y-6426200D01*
X15316200Y-6477000D01*
X15367000Y-6527800D01*
X15367000Y-11353800D02*
X15417800Y-11303000D01*
X15367000Y-11252200D01*
X15316200Y-11303000D01*
X15367000Y-11353800D01*
X15621000Y-6527800D02*
X15671800Y-6477000D01*
X15621000Y-6426200D01*
X15570200Y-6477000D01*
X15621000Y-6527800D01*
X15621000Y-11353800D02*
X15671800Y-11303000D01*
X15621000Y-11252200D01*
X15570200Y-11303000D01*
X15621000Y-11353800D01*
X15875000Y-6527800D02*
X15925800Y-6477000D01*
X15875000Y-6426200D01*
X15824200Y-6477000D01*
X15875000Y-6527800D01*
X15875000Y-11353800D02*
X15925800Y-11303000D01*
X15875000Y-11252200D01*
X15824200Y-11303000D01*
X15875000Y-11353800D01*
X16129000Y-6527800D02*
X16179800Y-6477000D01*
X16129000Y-6426200D01*
X16078200Y-6477000D01*
X16129000Y-6527800D01*
X16129000Y-11353800D02*
X16179800Y-11303000D01*
X16129000Y-11252200D01*
X16078200Y-11303000D01*
X16129000Y-11353800D01*
X16383000Y-6527800D02*
X16433800Y-6477000D01*
X16383000Y-6426200D01*
X16332200Y-6477000D01*
X16383000Y-6527800D01*
X16383000Y-11353800D02*
X16433800Y-11303000D01*
X16383000Y-11252200D01*
X16332200Y-11303000D01*
X16383000Y-11353800D01*
X16395700Y-8559800D02*
X16446500Y-8509000D01*
X16395700Y-8458200D01*
X16344900Y-8509000D01*
X16395700Y-8559800D01*
X16395700Y-8813800D02*
X16446500Y-8763000D01*
X16395700Y-8712200D01*
X16344900Y-8763000D01*
X16395700Y-8813800D01*
X16395700Y-9067800D02*
X16446500Y-9017000D01*
X16395700Y-8966200D01*
X16344900Y-9017000D01*
X16395700Y-9067800D01*
X16637000Y-11353800D02*
X16687800Y-11303000D01*
X16637000Y-11252200D01*
X16586200Y-11303000D01*
X16637000Y-11353800D01*
X16649700Y-8559800D02*
X16700500Y-8509000D01*
X16649700Y-8458200D01*
X16598900Y-8509000D01*
X16649700Y-8559800D01*
X16649700Y-8813800D02*
X16700500Y-8763000D01*
X16649700Y-8712200D01*
X16598900Y-8763000D01*
X16649700Y-8813800D01*
X16649700Y-9067800D02*
X16700500Y-9017000D01*
X16649700Y-8966200D01*
X16598900Y-9017000D01*
X16649700Y-9067800D01*
X16891000Y-6527800D02*
X16941800Y-6477000D01*
X16891000Y-6426200D01*
X16840200Y-6477000D01*
X16891000Y-6527800D01*
X16891000Y-11353800D02*
X16941800Y-11303000D01*
X16891000Y-11252200D01*
X16840200Y-11303000D01*
X16891000Y-11353800D01*
X17145000Y-6527800D02*
X17195800Y-6477000D01*
X17145000Y-6426200D01*
X17094200Y-6477000D01*
X17145000Y-6527800D01*
X17399000Y-6527800D02*
X17449800Y-6477000D01*
X17399000Y-6426200D01*
X17348200Y-6477000D01*
X17399000Y-6527800D01*
X17399000Y-11353800D02*
X17449800Y-11303000D01*
X17399000Y-11252200D01*
X17348200Y-11303000D01*
X17399000Y-11353800D01*
X17653000Y-6527800D02*
X17703800Y-6477000D01*
X17653000Y-6426200D01*
X17602200Y-6477000D01*
X17653000Y-6527800D01*
X17653000Y-11353800D02*
X17703800Y-11303000D01*
X17653000Y-11252200D01*
X17602200Y-11303000D01*
X17653000Y-11353800D01*
X17907000Y-6527800D02*
X17957800Y-6477000D01*
X17907000Y-6426200D01*
X17856200Y-6477000D01*
X17907000Y-6527800D01*
X17907000Y-11353800D02*
X17957800Y-11303000D01*
X17907000Y-11252200D01*
X17856200Y-11303000D01*
X17907000Y-11353800D01*
X18161000Y-6527800D02*
X18211800Y-6477000D01*
X18161000Y-6426200D01*
X18110200Y-6477000D01*
X18161000Y-6527800D01*
X18161000Y-11353800D02*
X18211800Y-11303000D01*
X18161000Y-11252200D01*
X18110200Y-11303000D01*
X18161000Y-11353800D01*
X18415000Y-6527800D02*
X18465800Y-6477000D01*
X18415000Y-6426200D01*
X18364200Y-6477000D01*
X18415000Y-6527800D01*
X18415000Y-11353800D02*
X18465800Y-11303000D01*
X18415000Y-11252200D01*
X18364200Y-11303000D01*
X18415000Y-11353800D01*
X18669000Y-6527800D02*
X18719800Y-6477000D01*
X18669000Y-6426200D01*
X18618200Y-6477000D01*
X18669000Y-6527800D01*
X18669000Y-11353800D02*
X18719800Y-11303000D01*
X18669000Y-11252200D01*
X18618200Y-11303000D01*
X18669000Y-11353800D01*
X18923000Y-11353800D02*
X18973800Y-11303000D01*
X18923000Y-11252200D01*
X18872200Y-11303000D01*
X18923000Y-11353800D01*
X19177000Y-11353800D02*
X19227800Y-11303000D01*
X19177000Y-11252200D01*
X19126200Y-11303000D01*
X19177000Y-11353800D01*
X19431000Y-6527800D02*
X19481800Y-6477000D01*
X19431000Y-6426200D01*
X19380200Y-6477000D01*
X19431000Y-6527800D01*
X19431000Y-6781800D02*
X19481800Y-6731000D01*
X19431000Y-6680200D01*
X19380200Y-6731000D01*
X19431000Y-6781800D01*
X19431000Y-7035800D02*
X19481800Y-6985000D01*
X19431000Y-6934200D01*
X19380200Y-6985000D01*
X19431000Y-7035800D01*
X19431000Y-7289800D02*
X19481800Y-7239000D01*
X19431000Y-7188200D01*
X19380200Y-7239000D01*
X19431000Y-7289800D01*
X19431000Y-7543800D02*
X19481800Y-7493000D01*
X19431000Y-7442200D01*
X19380200Y-7493000D01*
X19431000Y-7543800D01*
X19431000Y-7797800D02*
X19481800Y-7747000D01*
X19431000Y-7696200D01*
X19380200Y-7747000D01*
X19431000Y-7797800D01*
X19431000Y-8051800D02*
X19481800Y-8001000D01*
X19431000Y-7950200D01*
X19380200Y-8001000D01*
X19431000Y-8051800D01*
X19431000Y-8305800D02*
X19481800Y-8255000D01*
X19431000Y-8204200D01*
X19380200Y-8255000D01*
X19431000Y-8305800D01*
X19431000Y-8559800D02*
X19481800Y-8509000D01*
X19431000Y-8458200D01*
X19380200Y-8509000D01*
X19431000Y-8559800D01*
X19431000Y-8813800D02*
X19481800Y-8763000D01*
X19431000Y-8712200D01*
X19380200Y-8763000D01*
X19431000Y-8813800D01*
X19431000Y-9067800D02*
X19481800Y-9017000D01*
X19431000Y-8966200D01*
X19380200Y-9017000D01*
X19431000Y-9067800D01*
X19431000Y-9321800D02*
X19481800Y-9271000D01*
X19431000Y-9220200D01*
X19380200Y-9271000D01*
X19431000Y-9321800D01*
X19431000Y-9575800D02*
X19481800Y-9525000D01*
X19431000Y-9474200D01*
X19380200Y-9525000D01*
X19431000Y-9575800D01*
X19431000Y-9829800D02*
X19481800Y-9779000D01*
X19431000Y-9728200D01*
X19380200Y-9779000D01*
X19431000Y-9829800D01*
X19431000Y-10083800D02*
X19481800Y-10033000D01*
X19431000Y-9982200D01*
X19380200Y-10033000D01*
X19431000Y-10083800D01*
X19431000Y-10337800D02*
X19481800Y-10287000D01*
X19431000Y-10236200D01*
X19380200Y-10287000D01*
X19431000Y-10337800D01*
X19431000Y-10591800D02*
X19481800Y-10541000D01*
X19431000Y-10490200D01*
X19380200Y-10541000D01*
X19431000Y-10591800D01*
X19431000Y-10845800D02*
X19481800Y-10795000D01*
X19431000Y-10744200D01*
X19380200Y-10795000D01*
X19431000Y-10845800D01*
X19685000Y-6527800D02*
X19735800Y-6477000D01*
X19685000Y-6426200D01*
X19634200Y-6477000D01*
X19685000Y-6527800D01*
X19685000Y-6781800D02*
X19735800Y-6731000D01*
X19685000Y-6680200D01*
X19634200Y-6731000D01*
X19685000Y-6781800D01*
X19685000Y-7035800D02*
X19735800Y-6985000D01*
X19685000Y-6934200D01*
X19634200Y-6985000D01*
X19685000Y-7035800D01*
X19685000Y-7289800D02*
X19735800Y-7239000D01*
X19685000Y-7188200D01*
X19634200Y-7239000D01*
X19685000Y-7289800D01*
X19685000Y-7543800D02*
X19735800Y-7493000D01*
X19685000Y-7442200D01*
X19634200Y-7493000D01*
X19685000Y-7543800D01*
X19685000Y-7797800D02*
X19735800Y-7747000D01*
X19685000Y-7696200D01*
X19634200Y-7747000D01*
X19685000Y-7797800D01*
X19685000Y-8051800D02*
X19735800Y-8001000D01*
X19685000Y-7950200D01*
X19634200Y-8001000D01*
X19685000Y-8051800D01*
X19685000Y-8305800D02*
X19735800Y-8255000D01*
X19685000Y-8204200D01*
X19634200Y-8255000D01*
X19685000Y-8305800D01*
X19685000Y-8559800D02*
X19735800Y-8509000D01*
X19685000Y-8458200D01*
X19634200Y-8509000D01*
X19685000Y-8559800D01*
X19685000Y-8813800D02*
X19735800Y-8763000D01*
X19685000Y-8712200D01*
X19634200Y-8763000D01*
X19685000Y-8813800D01*
X19685000Y-9067800D02*
X19735800Y-9017000D01*
X19685000Y-8966200D01*
X19634200Y-9017000D01*
X19685000Y-9067800D01*
X19685000Y-9321800D02*
X19735800Y-9271000D01*
X19685000Y-9220200D01*
X19634200Y-9271000D01*
X19685000Y-9321800D01*
X19685000Y-9575800D02*
X19735800Y-9525000D01*
X19685000Y-9474200D01*
X19634200Y-9525000D01*
X19685000Y-9575800D01*
X19685000Y-9829800D02*
X19735800Y-9779000D01*
X19685000Y-9728200D01*
X19634200Y-9779000D01*
X19685000Y-9829800D01*
X19685000Y-10083800D02*
X19735800Y-10033000D01*
X19685000Y-9982200D01*
X19634200Y-10033000D01*
X19685000Y-10083800D01*
X19685000Y-10337800D02*
X19735800Y-10287000D01*
X19685000Y-10236200D01*
X19634200Y-10287000D01*
X19685000Y-10337800D01*
X19685000Y-10591800D02*
X19735800Y-10541000D01*
X19685000Y-10490200D01*
X19634200Y-10541000D01*
X19685000Y-10591800D01*
X19685000Y-10845800D02*
X19735800Y-10795000D01*
X19685000Y-10744200D01*
X19634200Y-10795000D01*
X19685000Y-10845800D01*
D12*
X10423608Y-12025214D02*
X10423608Y-11725214D01*
X10495037Y-11725214D01*
X10537894Y-11739500D01*
X10566466Y-11768071D01*
X10580751Y-11796643D01*
X10595037Y-11853786D01*
X10595037Y-11896643D01*
X10580751Y-11953786D01*
X10566466Y-11982357D01*
X10537894Y-12010929D01*
X10495037Y-12025214D01*
X10423608Y-12025214D01*
X10723608Y-12025214D02*
X10723608Y-11825214D01*
X10723608Y-11882357D02*
X10737894Y-11853786D01*
X10752180Y-11839500D01*
X10780751Y-11825214D01*
X10809323Y-11825214D01*
X10909323Y-12025214D02*
X10909323Y-11825214D01*
X10909323Y-11725214D02*
X10895037Y-11739500D01*
X10909323Y-11753786D01*
X10923608Y-11739500D01*
X10909323Y-11725214D01*
X10909323Y-11753786D01*
X11095037Y-12025214D02*
X11066466Y-12010929D01*
X11052180Y-11982357D01*
X11052180Y-11725214D01*
X11252180Y-12025214D02*
X11223608Y-12010929D01*
X11209323Y-11982357D01*
X11209323Y-11725214D01*
X11595037Y-12025214D02*
X11595037Y-11725214D01*
X11695037Y-11939500D01*
X11795037Y-11725214D01*
X11795037Y-12025214D01*
X12066466Y-12025214D02*
X12066466Y-11868071D01*
X12052180Y-11839500D01*
X12023608Y-11825214D01*
X11966466Y-11825214D01*
X11937894Y-11839500D01*
X12066466Y-12010929D02*
X12037894Y-12025214D01*
X11966466Y-12025214D01*
X11937894Y-12010929D01*
X11923608Y-11982357D01*
X11923608Y-11953786D01*
X11937894Y-11925214D01*
X11966466Y-11910929D01*
X12037894Y-11910929D01*
X12066466Y-11896643D01*
X12209323Y-11825214D02*
X12209323Y-12125214D01*
X12209323Y-11839500D02*
X12237894Y-11825214D01*
X12295037Y-11825214D01*
X12323608Y-11839500D01*
X12337894Y-11853786D01*
X12352180Y-11882357D01*
X12352180Y-11968071D01*
X12337894Y-11996643D01*
X12323608Y-12010929D01*
X12295037Y-12025214D01*
X12237894Y-12025214D01*
X12209323Y-12010929D01*
X12480751Y-11996643D02*
X12495037Y-12010929D01*
X12480751Y-12025214D01*
X12466466Y-12010929D01*
X12480751Y-11996643D01*
X12480751Y-12025214D01*
X12480751Y-11839500D02*
X12495037Y-11853786D01*
X12480751Y-11868071D01*
X12466466Y-11853786D01*
X12480751Y-11839500D01*
X12480751Y-11868071D01*
X10097180Y-12499500D02*
X10137180Y-12539500D01*
X10137180Y-12499500D02*
X10097180Y-12539500D01*
X10480751Y-12355214D02*
X10509323Y-12355214D01*
X10537894Y-12369500D01*
X10552180Y-12383786D01*
X10566466Y-12412357D01*
X10580751Y-12469500D01*
X10580751Y-12540929D01*
X10566466Y-12598071D01*
X10552180Y-12626643D01*
X10537894Y-12640929D01*
X10509323Y-12655214D01*
X10480751Y-12655214D01*
X10452180Y-12640929D01*
X10437894Y-12626643D01*
X10423608Y-12598071D01*
X10409323Y-12540929D01*
X10409323Y-12469500D01*
X10423608Y-12412357D01*
X10437894Y-12383786D01*
X10452180Y-12369500D01*
X10480751Y-12355214D01*
X10709323Y-12626643D02*
X10723608Y-12640929D01*
X10709323Y-12655214D01*
X10695037Y-12640929D01*
X10709323Y-12626643D01*
X10709323Y-12655214D01*
X10980751Y-12455214D02*
X10980751Y-12655214D01*
X10909323Y-12340929D02*
X10837894Y-12555214D01*
X11023608Y-12555214D01*
X11195037Y-12355214D02*
X11223608Y-12355214D01*
X11252180Y-12369500D01*
X11266466Y-12383786D01*
X11280751Y-12412357D01*
X11295037Y-12469500D01*
X11295037Y-12540929D01*
X11280751Y-12598071D01*
X11266466Y-12626643D01*
X11252180Y-12640929D01*
X11223608Y-12655214D01*
X11195037Y-12655214D01*
X11166466Y-12640929D01*
X11152180Y-12626643D01*
X11137894Y-12598071D01*
X11123608Y-12540929D01*
X11123608Y-12469500D01*
X11137894Y-12412357D01*
X11152180Y-12383786D01*
X11166466Y-12369500D01*
X11195037Y-12355214D01*
X11480751Y-12355214D02*
X11509323Y-12355214D01*
X11537894Y-12369500D01*
X11552180Y-12383786D01*
X11566466Y-12412357D01*
X11580751Y-12469500D01*
X11580751Y-12540929D01*
X11566466Y-12598071D01*
X11552180Y-12626643D01*
X11537894Y-12640929D01*
X11509323Y-12655214D01*
X11480751Y-12655214D01*
X11452180Y-12640929D01*
X11437894Y-12626643D01*
X11423608Y-12598071D01*
X11409323Y-12540929D01*
X11409323Y-12469500D01*
X11423608Y-12412357D01*
X11437894Y-12383786D01*
X11452180Y-12369500D01*
X11480751Y-12355214D01*
X11709323Y-12655214D02*
X11709323Y-12455214D01*
X11709323Y-12483786D02*
X11723608Y-12469500D01*
X11752180Y-12455214D01*
X11795037Y-12455214D01*
X11823608Y-12469500D01*
X11837894Y-12498071D01*
X11837894Y-12655214D01*
X11837894Y-12498071D02*
X11852180Y-12469500D01*
X11880751Y-12455214D01*
X11923608Y-12455214D01*
X11952180Y-12469500D01*
X11966466Y-12498071D01*
X11966466Y-12655214D01*
X12109323Y-12655214D02*
X12109323Y-12455214D01*
X12109323Y-12483786D02*
X12123608Y-12469500D01*
X12152180Y-12455214D01*
X12195037Y-12455214D01*
X12223608Y-12469500D01*
X12237894Y-12498071D01*
X12237894Y-12655214D01*
X12237894Y-12498071D02*
X12252180Y-12469500D01*
X12280751Y-12455214D01*
X12323608Y-12455214D01*
X12352180Y-12469500D01*
X12366466Y-12498071D01*
X12366466Y-12655214D01*
X12952180Y-12340929D02*
X12695037Y-12726643D01*
X13337894Y-12355214D02*
X13366466Y-12355214D01*
X13395037Y-12369500D01*
X13409323Y-12383786D01*
X13423608Y-12412357D01*
X13437894Y-12469500D01*
X13437894Y-12540929D01*
X13423608Y-12598071D01*
X13409323Y-12626643D01*
X13395037Y-12640929D01*
X13366466Y-12655214D01*
X13337894Y-12655214D01*
X13309323Y-12640929D01*
X13295037Y-12626643D01*
X13280751Y-12598071D01*
X13266466Y-12540929D01*
X13266466Y-12469500D01*
X13280751Y-12412357D01*
X13295037Y-12383786D01*
X13309323Y-12369500D01*
X13337894Y-12355214D01*
X13566466Y-12626643D02*
X13580751Y-12640929D01*
X13566466Y-12655214D01*
X13552180Y-12640929D01*
X13566466Y-12626643D01*
X13566466Y-12655214D01*
X13766466Y-12355214D02*
X13795037Y-12355214D01*
X13823608Y-12369500D01*
X13837894Y-12383786D01*
X13852180Y-12412357D01*
X13866466Y-12469500D01*
X13866466Y-12540929D01*
X13852180Y-12598071D01*
X13837894Y-12626643D01*
X13823608Y-12640929D01*
X13795037Y-12655214D01*
X13766466Y-12655214D01*
X13737894Y-12640929D01*
X13723608Y-12626643D01*
X13709323Y-12598071D01*
X13695037Y-12540929D01*
X13695037Y-12469500D01*
X13709323Y-12412357D01*
X13723608Y-12383786D01*
X13737894Y-12369500D01*
X13766466Y-12355214D01*
X14152180Y-12655214D02*
X13980751Y-12655214D01*
X14066466Y-12655214D02*
X14066466Y-12355214D01*
X14037894Y-12398071D01*
X14009323Y-12426643D01*
X13980751Y-12440929D01*
X14423608Y-12355214D02*
X14280751Y-12355214D01*
X14266466Y-12498071D01*
X14280751Y-12483786D01*
X14309323Y-12469500D01*
X14380751Y-12469500D01*
X14409323Y-12483786D01*
X14423608Y-12498071D01*
X14437894Y-12526643D01*
X14437894Y-12598071D01*
X14423608Y-12626643D01*
X14409323Y-12640929D01*
X14380751Y-12655214D01*
X14309323Y-12655214D01*
X14280751Y-12640929D01*
X14266466Y-12626643D01*
X14537894Y-12355214D02*
X14737894Y-12355214D01*
X14609323Y-12655214D01*
X14837894Y-12355214D02*
X14837894Y-12412357D01*
X14952180Y-12355214D02*
X14952180Y-12412357D01*
X15395037Y-12769500D02*
X15380751Y-12755214D01*
X15352180Y-12712357D01*
X15337894Y-12683786D01*
X15323608Y-12640929D01*
X15309323Y-12569500D01*
X15309323Y-12512357D01*
X15323608Y-12440929D01*
X15337894Y-12398071D01*
X15352180Y-12369500D01*
X15380751Y-12326643D01*
X15395037Y-12312357D01*
X15480751Y-12355214D02*
X15680751Y-12355214D01*
X15552180Y-12655214D01*
X16023608Y-12655214D02*
X16023608Y-12355214D01*
X16152180Y-12655214D02*
X16152180Y-12498071D01*
X16137894Y-12469500D01*
X16109323Y-12455214D01*
X16066466Y-12455214D01*
X16037894Y-12469500D01*
X16023608Y-12483786D01*
X16337894Y-12655214D02*
X16309323Y-12640929D01*
X16295037Y-12626643D01*
X16280751Y-12598071D01*
X16280751Y-12512357D01*
X16295037Y-12483786D01*
X16309323Y-12469500D01*
X16337894Y-12455214D01*
X16380751Y-12455214D01*
X16409323Y-12469500D01*
X16423608Y-12483786D01*
X16437894Y-12512357D01*
X16437894Y-12598071D01*
X16423608Y-12626643D01*
X16409323Y-12640929D01*
X16380751Y-12655214D01*
X16337894Y-12655214D01*
X16609323Y-12655214D02*
X16580751Y-12640929D01*
X16566466Y-12612357D01*
X16566466Y-12355214D01*
X16837894Y-12640929D02*
X16809323Y-12655214D01*
X16752180Y-12655214D01*
X16723608Y-12640929D01*
X16709323Y-12612357D01*
X16709323Y-12498071D01*
X16723608Y-12469500D01*
X16752180Y-12455214D01*
X16809323Y-12455214D01*
X16837894Y-12469500D01*
X16852180Y-12498071D01*
X16852180Y-12526643D01*
X16709323Y-12555214D01*
X16966466Y-12640929D02*
X16995037Y-12655214D01*
X17052180Y-12655214D01*
X17080751Y-12640929D01*
X17095037Y-12612357D01*
X17095037Y-12598071D01*
X17080751Y-12569500D01*
X17052180Y-12555214D01*
X17009323Y-12555214D01*
X16980751Y-12540929D01*
X16966466Y-12512357D01*
X16966466Y-12498071D01*
X16980751Y-12469500D01*
X17009323Y-12455214D01*
X17052180Y-12455214D01*
X17080751Y-12469500D01*
X17195037Y-12769500D02*
X17209323Y-12755214D01*
X17237894Y-12712357D01*
X17252180Y-12683786D01*
X17266466Y-12640929D01*
X17280751Y-12569500D01*
X17280751Y-12512357D01*
X17266466Y-12440929D01*
X17252180Y-12398071D01*
X17237894Y-12369500D01*
X17209323Y-12326643D01*
X17195037Y-12312357D01*
X10137180Y-12915500D02*
G75*
G03*
X10137180Y-12915500I-30000J0D01*
G01*
X10480751Y-12751214D02*
X10509323Y-12751214D01*
X10537894Y-12765500D01*
X10552180Y-12779786D01*
X10566466Y-12808357D01*
X10580751Y-12865500D01*
X10580751Y-12936929D01*
X10566466Y-12994071D01*
X10552180Y-13022643D01*
X10537894Y-13036929D01*
X10509323Y-13051214D01*
X10480751Y-13051214D01*
X10452180Y-13036929D01*
X10437894Y-13022643D01*
X10423608Y-12994071D01*
X10409323Y-12936929D01*
X10409323Y-12865500D01*
X10423608Y-12808357D01*
X10437894Y-12779786D01*
X10452180Y-12765500D01*
X10480751Y-12751214D01*
X10709323Y-13022643D02*
X10723608Y-13036929D01*
X10709323Y-13051214D01*
X10695037Y-13036929D01*
X10709323Y-13022643D01*
X10709323Y-13051214D01*
X10980751Y-12751214D02*
X10923608Y-12751214D01*
X10895037Y-12765500D01*
X10880751Y-12779786D01*
X10852180Y-12822643D01*
X10837894Y-12879786D01*
X10837894Y-12994071D01*
X10852180Y-13022643D01*
X10866466Y-13036929D01*
X10895037Y-13051214D01*
X10952180Y-13051214D01*
X10980751Y-13036929D01*
X10995037Y-13022643D01*
X11009323Y-12994071D01*
X11009323Y-12922643D01*
X10995037Y-12894071D01*
X10980751Y-12879786D01*
X10952180Y-12865500D01*
X10895037Y-12865500D01*
X10866466Y-12879786D01*
X10852180Y-12894071D01*
X10837894Y-12922643D01*
X11195037Y-12751214D02*
X11223608Y-12751214D01*
X11252180Y-12765500D01*
X11266466Y-12779786D01*
X11280751Y-12808357D01*
X11295037Y-12865500D01*
X11295037Y-12936929D01*
X11280751Y-12994071D01*
X11266466Y-13022643D01*
X11252180Y-13036929D01*
X11223608Y-13051214D01*
X11195037Y-13051214D01*
X11166466Y-13036929D01*
X11152180Y-13022643D01*
X11137894Y-12994071D01*
X11123608Y-12936929D01*
X11123608Y-12865500D01*
X11137894Y-12808357D01*
X11152180Y-12779786D01*
X11166466Y-12765500D01*
X11195037Y-12751214D01*
X11480751Y-12751214D02*
X11509323Y-12751214D01*
X11537894Y-12765500D01*
X11552180Y-12779786D01*
X11566466Y-12808357D01*
X11580751Y-12865500D01*
X11580751Y-12936929D01*
X11566466Y-12994071D01*
X11552180Y-13022643D01*
X11537894Y-13036929D01*
X11509323Y-13051214D01*
X11480751Y-13051214D01*
X11452180Y-13036929D01*
X11437894Y-13022643D01*
X11423608Y-12994071D01*
X11409323Y-12936929D01*
X11409323Y-12865500D01*
X11423608Y-12808357D01*
X11437894Y-12779786D01*
X11452180Y-12765500D01*
X11480751Y-12751214D01*
X11709323Y-13051214D02*
X11709323Y-12851214D01*
X11709323Y-12879786D02*
X11723608Y-12865500D01*
X11752180Y-12851214D01*
X11795037Y-12851214D01*
X11823608Y-12865500D01*
X11837894Y-12894071D01*
X11837894Y-13051214D01*
X11837894Y-12894071D02*
X11852180Y-12865500D01*
X11880751Y-12851214D01*
X11923608Y-12851214D01*
X11952180Y-12865500D01*
X11966466Y-12894071D01*
X11966466Y-13051214D01*
X12109323Y-13051214D02*
X12109323Y-12851214D01*
X12109323Y-12879786D02*
X12123608Y-12865500D01*
X12152180Y-12851214D01*
X12195037Y-12851214D01*
X12223608Y-12865500D01*
X12237894Y-12894071D01*
X12237894Y-13051214D01*
X12237894Y-12894071D02*
X12252180Y-12865500D01*
X12280751Y-12851214D01*
X12323608Y-12851214D01*
X12352180Y-12865500D01*
X12366466Y-12894071D01*
X12366466Y-13051214D01*
X12952180Y-12736929D02*
X12695037Y-13122643D01*
X13337894Y-12751214D02*
X13366466Y-12751214D01*
X13395037Y-12765500D01*
X13409323Y-12779786D01*
X13423608Y-12808357D01*
X13437894Y-12865500D01*
X13437894Y-12936929D01*
X13423608Y-12994071D01*
X13409323Y-13022643D01*
X13395037Y-13036929D01*
X13366466Y-13051214D01*
X13337894Y-13051214D01*
X13309323Y-13036929D01*
X13295037Y-13022643D01*
X13280751Y-12994071D01*
X13266466Y-12936929D01*
X13266466Y-12865500D01*
X13280751Y-12808357D01*
X13295037Y-12779786D01*
X13309323Y-12765500D01*
X13337894Y-12751214D01*
X13566466Y-13022643D02*
X13580751Y-13036929D01*
X13566466Y-13051214D01*
X13552180Y-13036929D01*
X13566466Y-13022643D01*
X13566466Y-13051214D01*
X13766466Y-12751214D02*
X13795037Y-12751214D01*
X13823608Y-12765500D01*
X13837894Y-12779786D01*
X13852180Y-12808357D01*
X13866466Y-12865500D01*
X13866466Y-12936929D01*
X13852180Y-12994071D01*
X13837894Y-13022643D01*
X13823608Y-13036929D01*
X13795037Y-13051214D01*
X13766466Y-13051214D01*
X13737894Y-13036929D01*
X13723608Y-13022643D01*
X13709323Y-12994071D01*
X13695037Y-12936929D01*
X13695037Y-12865500D01*
X13709323Y-12808357D01*
X13723608Y-12779786D01*
X13737894Y-12765500D01*
X13766466Y-12751214D01*
X13980751Y-12779786D02*
X13995037Y-12765500D01*
X14023608Y-12751214D01*
X14095037Y-12751214D01*
X14123608Y-12765500D01*
X14137894Y-12779786D01*
X14152180Y-12808357D01*
X14152180Y-12836929D01*
X14137894Y-12879786D01*
X13966466Y-13051214D01*
X14152180Y-13051214D01*
X14252180Y-12751214D02*
X14437894Y-12751214D01*
X14337894Y-12865500D01*
X14380751Y-12865500D01*
X14409323Y-12879786D01*
X14423608Y-12894071D01*
X14437894Y-12922643D01*
X14437894Y-12994071D01*
X14423608Y-13022643D01*
X14409323Y-13036929D01*
X14380751Y-13051214D01*
X14295037Y-13051214D01*
X14266466Y-13036929D01*
X14252180Y-13022643D01*
X14695037Y-12751214D02*
X14637894Y-12751214D01*
X14609323Y-12765500D01*
X14595037Y-12779786D01*
X14566466Y-12822643D01*
X14552180Y-12879786D01*
X14552180Y-12994071D01*
X14566466Y-13022643D01*
X14580751Y-13036929D01*
X14609323Y-13051214D01*
X14666466Y-13051214D01*
X14695037Y-13036929D01*
X14709323Y-13022643D01*
X14723608Y-12994071D01*
X14723608Y-12922643D01*
X14709323Y-12894071D01*
X14695037Y-12879786D01*
X14666466Y-12865500D01*
X14609323Y-12865500D01*
X14580751Y-12879786D01*
X14566466Y-12894071D01*
X14552180Y-12922643D01*
X14837894Y-12751214D02*
X14837894Y-12808357D01*
X14952180Y-12751214D02*
X14952180Y-12808357D01*
X15395037Y-13165500D02*
X15380751Y-13151214D01*
X15352180Y-13108357D01*
X15337894Y-13079786D01*
X15323608Y-13036929D01*
X15309323Y-12965500D01*
X15309323Y-12908357D01*
X15323608Y-12836929D01*
X15337894Y-12794071D01*
X15352180Y-12765500D01*
X15380751Y-12722643D01*
X15395037Y-12708357D01*
X15637894Y-12751214D02*
X15580751Y-12751214D01*
X15552180Y-12765500D01*
X15537894Y-12779786D01*
X15509323Y-12822643D01*
X15495037Y-12879786D01*
X15495037Y-12994071D01*
X15509323Y-13022643D01*
X15523608Y-13036929D01*
X15552180Y-13051214D01*
X15609323Y-13051214D01*
X15637894Y-13036929D01*
X15652180Y-13022643D01*
X15666466Y-12994071D01*
X15666466Y-12922643D01*
X15652180Y-12894071D01*
X15637894Y-12879786D01*
X15609323Y-12865500D01*
X15552180Y-12865500D01*
X15523608Y-12879786D01*
X15509323Y-12894071D01*
X15495037Y-12922643D01*
X16023608Y-13051214D02*
X16023608Y-12751214D01*
X16152180Y-13051214D02*
X16152180Y-12894071D01*
X16137894Y-12865500D01*
X16109323Y-12851214D01*
X16066466Y-12851214D01*
X16037894Y-12865500D01*
X16023608Y-12879786D01*
X16337894Y-13051214D02*
X16309323Y-13036929D01*
X16295037Y-13022643D01*
X16280751Y-12994071D01*
X16280751Y-12908357D01*
X16295037Y-12879786D01*
X16309323Y-12865500D01*
X16337894Y-12851214D01*
X16380751Y-12851214D01*
X16409323Y-12865500D01*
X16423608Y-12879786D01*
X16437894Y-12908357D01*
X16437894Y-12994071D01*
X16423608Y-13022643D01*
X16409323Y-13036929D01*
X16380751Y-13051214D01*
X16337894Y-13051214D01*
X16609323Y-13051214D02*
X16580751Y-13036929D01*
X16566466Y-13008357D01*
X16566466Y-12751214D01*
X16837894Y-13036929D02*
X16809323Y-13051214D01*
X16752180Y-13051214D01*
X16723608Y-13036929D01*
X16709323Y-13008357D01*
X16709323Y-12894071D01*
X16723608Y-12865500D01*
X16752180Y-12851214D01*
X16809323Y-12851214D01*
X16837894Y-12865500D01*
X16852180Y-12894071D01*
X16852180Y-12922643D01*
X16709323Y-12951214D01*
X16966466Y-13036929D02*
X16995037Y-13051214D01*
X17052180Y-13051214D01*
X17080751Y-13036929D01*
X17095037Y-13008357D01*
X17095037Y-12994071D01*
X17080751Y-12965500D01*
X17052180Y-12951214D01*
X17009323Y-12951214D01*
X16980751Y-12936929D01*
X16966466Y-12908357D01*
X16966466Y-12894071D01*
X16980751Y-12865500D01*
X17009323Y-12851214D01*
X17052180Y-12851214D01*
X17080751Y-12865500D01*
X17195037Y-13165500D02*
X17209323Y-13151214D01*
X17237894Y-13108357D01*
X17252180Y-13079786D01*
X17266466Y-13036929D01*
X17280751Y-12965500D01*
X17280751Y-12908357D01*
X17266466Y-12836929D01*
X17252180Y-12794071D01*
X17237894Y-12765500D01*
X17209323Y-12722643D01*
X17195037Y-12708357D01*
X10087680Y-13262000D02*
X10087680Y-13361000D01*
X10038180Y-13311500D02*
X10137180Y-13311500D01*
X10480751Y-13147214D02*
X10509323Y-13147214D01*
X10537894Y-13161500D01*
X10552180Y-13175786D01*
X10566466Y-13204357D01*
X10580751Y-13261500D01*
X10580751Y-13332929D01*
X10566466Y-13390071D01*
X10552180Y-13418643D01*
X10537894Y-13432929D01*
X10509323Y-13447214D01*
X10480751Y-13447214D01*
X10452180Y-13432929D01*
X10437894Y-13418643D01*
X10423608Y-13390071D01*
X10409323Y-13332929D01*
X10409323Y-13261500D01*
X10423608Y-13204357D01*
X10437894Y-13175786D01*
X10452180Y-13161500D01*
X10480751Y-13147214D01*
X10709323Y-13418643D02*
X10723608Y-13432929D01*
X10709323Y-13447214D01*
X10695037Y-13432929D01*
X10709323Y-13418643D01*
X10709323Y-13447214D01*
X10866466Y-13447214D02*
X10923608Y-13447214D01*
X10952180Y-13432929D01*
X10966466Y-13418643D01*
X10995037Y-13375786D01*
X11009323Y-13318643D01*
X11009323Y-13204357D01*
X10995037Y-13175786D01*
X10980751Y-13161500D01*
X10952180Y-13147214D01*
X10895037Y-13147214D01*
X10866466Y-13161500D01*
X10852180Y-13175786D01*
X10837894Y-13204357D01*
X10837894Y-13275786D01*
X10852180Y-13304357D01*
X10866466Y-13318643D01*
X10895037Y-13332929D01*
X10952180Y-13332929D01*
X10980751Y-13318643D01*
X10995037Y-13304357D01*
X11009323Y-13275786D01*
X11152180Y-13447214D02*
X11209323Y-13447214D01*
X11237894Y-13432929D01*
X11252180Y-13418643D01*
X11280751Y-13375786D01*
X11295037Y-13318643D01*
X11295037Y-13204357D01*
X11280751Y-13175786D01*
X11266466Y-13161500D01*
X11237894Y-13147214D01*
X11180751Y-13147214D01*
X11152180Y-13161500D01*
X11137894Y-13175786D01*
X11123608Y-13204357D01*
X11123608Y-13275786D01*
X11137894Y-13304357D01*
X11152180Y-13318643D01*
X11180751Y-13332929D01*
X11237894Y-13332929D01*
X11266466Y-13318643D01*
X11280751Y-13304357D01*
X11295037Y-13275786D01*
X11480751Y-13147214D02*
X11509323Y-13147214D01*
X11537894Y-13161500D01*
X11552180Y-13175786D01*
X11566466Y-13204357D01*
X11580751Y-13261500D01*
X11580751Y-13332929D01*
X11566466Y-13390071D01*
X11552180Y-13418643D01*
X11537894Y-13432929D01*
X11509323Y-13447214D01*
X11480751Y-13447214D01*
X11452180Y-13432929D01*
X11437894Y-13418643D01*
X11423608Y-13390071D01*
X11409323Y-13332929D01*
X11409323Y-13261500D01*
X11423608Y-13204357D01*
X11437894Y-13175786D01*
X11452180Y-13161500D01*
X11480751Y-13147214D01*
X11709323Y-13447214D02*
X11709323Y-13247214D01*
X11709323Y-13275786D02*
X11723608Y-13261500D01*
X11752180Y-13247214D01*
X11795037Y-13247214D01*
X11823608Y-13261500D01*
X11837894Y-13290071D01*
X11837894Y-13447214D01*
X11837894Y-13290071D02*
X11852180Y-13261500D01*
X11880751Y-13247214D01*
X11923608Y-13247214D01*
X11952180Y-13261500D01*
X11966466Y-13290071D01*
X11966466Y-13447214D01*
X12109323Y-13447214D02*
X12109323Y-13247214D01*
X12109323Y-13275786D02*
X12123608Y-13261500D01*
X12152180Y-13247214D01*
X12195037Y-13247214D01*
X12223608Y-13261500D01*
X12237894Y-13290071D01*
X12237894Y-13447214D01*
X12237894Y-13290071D02*
X12252180Y-13261500D01*
X12280751Y-13247214D01*
X12323608Y-13247214D01*
X12352180Y-13261500D01*
X12366466Y-13290071D01*
X12366466Y-13447214D01*
X12952180Y-13132929D02*
X12695037Y-13518643D01*
X13337894Y-13147214D02*
X13366466Y-13147214D01*
X13395037Y-13161500D01*
X13409323Y-13175786D01*
X13423608Y-13204357D01*
X13437894Y-13261500D01*
X13437894Y-13332929D01*
X13423608Y-13390071D01*
X13409323Y-13418643D01*
X13395037Y-13432929D01*
X13366466Y-13447214D01*
X13337894Y-13447214D01*
X13309323Y-13432929D01*
X13295037Y-13418643D01*
X13280751Y-13390071D01*
X13266466Y-13332929D01*
X13266466Y-13261500D01*
X13280751Y-13204357D01*
X13295037Y-13175786D01*
X13309323Y-13161500D01*
X13337894Y-13147214D01*
X13566466Y-13418643D02*
X13580751Y-13432929D01*
X13566466Y-13447214D01*
X13552180Y-13432929D01*
X13566466Y-13418643D01*
X13566466Y-13447214D01*
X13766466Y-13147214D02*
X13795037Y-13147214D01*
X13823608Y-13161500D01*
X13837894Y-13175786D01*
X13852180Y-13204357D01*
X13866466Y-13261500D01*
X13866466Y-13332929D01*
X13852180Y-13390071D01*
X13837894Y-13418643D01*
X13823608Y-13432929D01*
X13795037Y-13447214D01*
X13766466Y-13447214D01*
X13737894Y-13432929D01*
X13723608Y-13418643D01*
X13709323Y-13390071D01*
X13695037Y-13332929D01*
X13695037Y-13261500D01*
X13709323Y-13204357D01*
X13723608Y-13175786D01*
X13737894Y-13161500D01*
X13766466Y-13147214D01*
X13966466Y-13147214D02*
X14152180Y-13147214D01*
X14052180Y-13261500D01*
X14095037Y-13261500D01*
X14123608Y-13275786D01*
X14137894Y-13290071D01*
X14152180Y-13318643D01*
X14152180Y-13390071D01*
X14137894Y-13418643D01*
X14123608Y-13432929D01*
X14095037Y-13447214D01*
X14009323Y-13447214D01*
X13980751Y-13432929D01*
X13966466Y-13418643D01*
X14295037Y-13447214D02*
X14352180Y-13447214D01*
X14380751Y-13432929D01*
X14395037Y-13418643D01*
X14423608Y-13375786D01*
X14437894Y-13318643D01*
X14437894Y-13204357D01*
X14423608Y-13175786D01*
X14409323Y-13161500D01*
X14380751Y-13147214D01*
X14323608Y-13147214D01*
X14295037Y-13161500D01*
X14280751Y-13175786D01*
X14266466Y-13204357D01*
X14266466Y-13275786D01*
X14280751Y-13304357D01*
X14295037Y-13318643D01*
X14323608Y-13332929D01*
X14380751Y-13332929D01*
X14409323Y-13318643D01*
X14423608Y-13304357D01*
X14437894Y-13275786D01*
X14623608Y-13147214D02*
X14652180Y-13147214D01*
X14680751Y-13161500D01*
X14695037Y-13175786D01*
X14709323Y-13204357D01*
X14723608Y-13261500D01*
X14723608Y-13332929D01*
X14709323Y-13390071D01*
X14695037Y-13418643D01*
X14680751Y-13432929D01*
X14652180Y-13447214D01*
X14623608Y-13447214D01*
X14595037Y-13432929D01*
X14580751Y-13418643D01*
X14566466Y-13390071D01*
X14552180Y-13332929D01*
X14552180Y-13261500D01*
X14566466Y-13204357D01*
X14580751Y-13175786D01*
X14595037Y-13161500D01*
X14623608Y-13147214D01*
X14837894Y-13147214D02*
X14837894Y-13204357D01*
X14952180Y-13147214D02*
X14952180Y-13204357D01*
X15395037Y-13561500D02*
X15380751Y-13547214D01*
X15352180Y-13504357D01*
X15337894Y-13475786D01*
X15323608Y-13432929D01*
X15309323Y-13361500D01*
X15309323Y-13304357D01*
X15323608Y-13232929D01*
X15337894Y-13190071D01*
X15352180Y-13161500D01*
X15380751Y-13118643D01*
X15395037Y-13104357D01*
X15637894Y-13247214D02*
X15637894Y-13447214D01*
X15566466Y-13132929D02*
X15495037Y-13347214D01*
X15680751Y-13347214D01*
X16023608Y-13447214D02*
X16023608Y-13147214D01*
X16152180Y-13447214D02*
X16152180Y-13290071D01*
X16137894Y-13261500D01*
X16109323Y-13247214D01*
X16066466Y-13247214D01*
X16037894Y-13261500D01*
X16023608Y-13275786D01*
X16337894Y-13447214D02*
X16309323Y-13432929D01*
X16295037Y-13418643D01*
X16280751Y-13390071D01*
X16280751Y-13304357D01*
X16295037Y-13275786D01*
X16309323Y-13261500D01*
X16337894Y-13247214D01*
X16380751Y-13247214D01*
X16409323Y-13261500D01*
X16423608Y-13275786D01*
X16437894Y-13304357D01*
X16437894Y-13390071D01*
X16423608Y-13418643D01*
X16409323Y-13432929D01*
X16380751Y-13447214D01*
X16337894Y-13447214D01*
X16609323Y-13447214D02*
X16580751Y-13432929D01*
X16566466Y-13404357D01*
X16566466Y-13147214D01*
X16837894Y-13432929D02*
X16809323Y-13447214D01*
X16752180Y-13447214D01*
X16723608Y-13432929D01*
X16709323Y-13404357D01*
X16709323Y-13290071D01*
X16723608Y-13261500D01*
X16752180Y-13247214D01*
X16809323Y-13247214D01*
X16837894Y-13261500D01*
X16852180Y-13290071D01*
X16852180Y-13318643D01*
X16709323Y-13347214D01*
X16966466Y-13432929D02*
X16995037Y-13447214D01*
X17052180Y-13447214D01*
X17080751Y-13432929D01*
X17095037Y-13404357D01*
X17095037Y-13390071D01*
X17080751Y-13361500D01*
X17052180Y-13347214D01*
X17009323Y-13347214D01*
X16980751Y-13332929D01*
X16966466Y-13304357D01*
X16966466Y-13290071D01*
X16980751Y-13261500D01*
X17009323Y-13247214D01*
X17052180Y-13247214D01*
X17080751Y-13261500D01*
X17195037Y-13561500D02*
X17209323Y-13547214D01*
X17237894Y-13504357D01*
X17252180Y-13475786D01*
X17266466Y-13432929D01*
X17280751Y-13361500D01*
X17280751Y-13304357D01*
X17266466Y-13232929D01*
X17252180Y-13190071D01*
X17237894Y-13161500D01*
X17209323Y-13118643D01*
X17195037Y-13104357D01*
X10122536Y-13742856D02*
X10122536Y-13672144D01*
X10051824Y-13672144D01*
X10051824Y-13742856D01*
X10122536Y-13742856D01*
X10580751Y-13843214D02*
X10409323Y-13843214D01*
X10495037Y-13843214D02*
X10495037Y-13543214D01*
X10466466Y-13586071D01*
X10437894Y-13614643D01*
X10409323Y-13628929D01*
X10709323Y-13814643D02*
X10723608Y-13828929D01*
X10709323Y-13843214D01*
X10695037Y-13828929D01*
X10709323Y-13814643D01*
X10709323Y-13843214D01*
X10909323Y-13543214D02*
X10937894Y-13543214D01*
X10966466Y-13557500D01*
X10980751Y-13571786D01*
X10995037Y-13600357D01*
X11009323Y-13657500D01*
X11009323Y-13728929D01*
X10995037Y-13786071D01*
X10980751Y-13814643D01*
X10966466Y-13828929D01*
X10937894Y-13843214D01*
X10909323Y-13843214D01*
X10880751Y-13828929D01*
X10866466Y-13814643D01*
X10852180Y-13786071D01*
X10837894Y-13728929D01*
X10837894Y-13657500D01*
X10852180Y-13600357D01*
X10866466Y-13571786D01*
X10880751Y-13557500D01*
X10909323Y-13543214D01*
X11195037Y-13543214D02*
X11223608Y-13543214D01*
X11252180Y-13557500D01*
X11266466Y-13571786D01*
X11280751Y-13600357D01*
X11295037Y-13657500D01*
X11295037Y-13728929D01*
X11280751Y-13786071D01*
X11266466Y-13814643D01*
X11252180Y-13828929D01*
X11223608Y-13843214D01*
X11195037Y-13843214D01*
X11166466Y-13828929D01*
X11152180Y-13814643D01*
X11137894Y-13786071D01*
X11123608Y-13728929D01*
X11123608Y-13657500D01*
X11137894Y-13600357D01*
X11152180Y-13571786D01*
X11166466Y-13557500D01*
X11195037Y-13543214D01*
X11480751Y-13543214D02*
X11509323Y-13543214D01*
X11537894Y-13557500D01*
X11552180Y-13571786D01*
X11566466Y-13600357D01*
X11580751Y-13657500D01*
X11580751Y-13728929D01*
X11566466Y-13786071D01*
X11552180Y-13814643D01*
X11537894Y-13828929D01*
X11509323Y-13843214D01*
X11480751Y-13843214D01*
X11452180Y-13828929D01*
X11437894Y-13814643D01*
X11423608Y-13786071D01*
X11409323Y-13728929D01*
X11409323Y-13657500D01*
X11423608Y-13600357D01*
X11437894Y-13571786D01*
X11452180Y-13557500D01*
X11480751Y-13543214D01*
X11709323Y-13843214D02*
X11709323Y-13643214D01*
X11709323Y-13671786D02*
X11723608Y-13657500D01*
X11752180Y-13643214D01*
X11795037Y-13643214D01*
X11823608Y-13657500D01*
X11837894Y-13686071D01*
X11837894Y-13843214D01*
X11837894Y-13686071D02*
X11852180Y-13657500D01*
X11880751Y-13643214D01*
X11923608Y-13643214D01*
X11952180Y-13657500D01*
X11966466Y-13686071D01*
X11966466Y-13843214D01*
X12109323Y-13843214D02*
X12109323Y-13643214D01*
X12109323Y-13671786D02*
X12123608Y-13657500D01*
X12152180Y-13643214D01*
X12195037Y-13643214D01*
X12223608Y-13657500D01*
X12237894Y-13686071D01*
X12237894Y-13843214D01*
X12237894Y-13686071D02*
X12252180Y-13657500D01*
X12280751Y-13643214D01*
X12323608Y-13643214D01*
X12352180Y-13657500D01*
X12366466Y-13686071D01*
X12366466Y-13843214D01*
X12952180Y-13528929D02*
X12695037Y-13914643D01*
X13337894Y-13543214D02*
X13366466Y-13543214D01*
X13395037Y-13557500D01*
X13409323Y-13571786D01*
X13423608Y-13600357D01*
X13437894Y-13657500D01*
X13437894Y-13728929D01*
X13423608Y-13786071D01*
X13409323Y-13814643D01*
X13395037Y-13828929D01*
X13366466Y-13843214D01*
X13337894Y-13843214D01*
X13309323Y-13828929D01*
X13295037Y-13814643D01*
X13280751Y-13786071D01*
X13266466Y-13728929D01*
X13266466Y-13657500D01*
X13280751Y-13600357D01*
X13295037Y-13571786D01*
X13309323Y-13557500D01*
X13337894Y-13543214D01*
X13566466Y-13814643D02*
X13580751Y-13828929D01*
X13566466Y-13843214D01*
X13552180Y-13828929D01*
X13566466Y-13814643D01*
X13566466Y-13843214D01*
X13766466Y-13543214D02*
X13795037Y-13543214D01*
X13823608Y-13557500D01*
X13837894Y-13571786D01*
X13852180Y-13600357D01*
X13866466Y-13657500D01*
X13866466Y-13728929D01*
X13852180Y-13786071D01*
X13837894Y-13814643D01*
X13823608Y-13828929D01*
X13795037Y-13843214D01*
X13766466Y-13843214D01*
X13737894Y-13828929D01*
X13723608Y-13814643D01*
X13709323Y-13786071D01*
X13695037Y-13728929D01*
X13695037Y-13657500D01*
X13709323Y-13600357D01*
X13723608Y-13571786D01*
X13737894Y-13557500D01*
X13766466Y-13543214D01*
X13966466Y-13543214D02*
X14152180Y-13543214D01*
X14052180Y-13657500D01*
X14095037Y-13657500D01*
X14123608Y-13671786D01*
X14137894Y-13686071D01*
X14152180Y-13714643D01*
X14152180Y-13786071D01*
X14137894Y-13814643D01*
X14123608Y-13828929D01*
X14095037Y-13843214D01*
X14009323Y-13843214D01*
X13980751Y-13828929D01*
X13966466Y-13814643D01*
X14295037Y-13843214D02*
X14352180Y-13843214D01*
X14380751Y-13828929D01*
X14395037Y-13814643D01*
X14423608Y-13771786D01*
X14437894Y-13714643D01*
X14437894Y-13600357D01*
X14423608Y-13571786D01*
X14409323Y-13557500D01*
X14380751Y-13543214D01*
X14323608Y-13543214D01*
X14295037Y-13557500D01*
X14280751Y-13571786D01*
X14266466Y-13600357D01*
X14266466Y-13671786D01*
X14280751Y-13700357D01*
X14295037Y-13714643D01*
X14323608Y-13728929D01*
X14380751Y-13728929D01*
X14409323Y-13714643D01*
X14423608Y-13700357D01*
X14437894Y-13671786D01*
X14695037Y-13643214D02*
X14695037Y-13843214D01*
X14623608Y-13528929D02*
X14552180Y-13743214D01*
X14737894Y-13743214D01*
X14837894Y-13543214D02*
X14837894Y-13600357D01*
X14952180Y-13543214D02*
X14952180Y-13600357D01*
X15395037Y-13957500D02*
X15380751Y-13943214D01*
X15352180Y-13900357D01*
X15337894Y-13871786D01*
X15323608Y-13828929D01*
X15309323Y-13757500D01*
X15309323Y-13700357D01*
X15323608Y-13628929D01*
X15337894Y-13586071D01*
X15352180Y-13557500D01*
X15380751Y-13514643D01*
X15395037Y-13500357D01*
X15495037Y-13571786D02*
X15509323Y-13557500D01*
X15537894Y-13543214D01*
X15609323Y-13543214D01*
X15637894Y-13557500D01*
X15652180Y-13571786D01*
X15666466Y-13600357D01*
X15666466Y-13628929D01*
X15652180Y-13671786D01*
X15480751Y-13843214D01*
X15666466Y-13843214D01*
X15952180Y-13843214D02*
X15780751Y-13843214D01*
X15866466Y-13843214D02*
X15866466Y-13543214D01*
X15837894Y-13586071D01*
X15809323Y-13614643D01*
X15780751Y-13628929D01*
X16095037Y-13843214D02*
X16152180Y-13843214D01*
X16180751Y-13828929D01*
X16195037Y-13814643D01*
X16223608Y-13771786D01*
X16237894Y-13714643D01*
X16237894Y-13600357D01*
X16223608Y-13571786D01*
X16209323Y-13557500D01*
X16180751Y-13543214D01*
X16123608Y-13543214D01*
X16095037Y-13557500D01*
X16080751Y-13571786D01*
X16066466Y-13600357D01*
X16066466Y-13671786D01*
X16080751Y-13700357D01*
X16095037Y-13714643D01*
X16123608Y-13728929D01*
X16180751Y-13728929D01*
X16209323Y-13714643D01*
X16223608Y-13700357D01*
X16237894Y-13671786D01*
X16595037Y-13843214D02*
X16595037Y-13543214D01*
X16723608Y-13843214D02*
X16723608Y-13686071D01*
X16709323Y-13657500D01*
X16680751Y-13643214D01*
X16637894Y-13643214D01*
X16609323Y-13657500D01*
X16595037Y-13671786D01*
X16909323Y-13843214D02*
X16880751Y-13828929D01*
X16866466Y-13814643D01*
X16852180Y-13786071D01*
X16852180Y-13700357D01*
X16866466Y-13671786D01*
X16880751Y-13657500D01*
X16909323Y-13643214D01*
X16952180Y-13643214D01*
X16980751Y-13657500D01*
X16995037Y-13671786D01*
X17009323Y-13700357D01*
X17009323Y-13786071D01*
X16995037Y-13814643D01*
X16980751Y-13828929D01*
X16952180Y-13843214D01*
X16909323Y-13843214D01*
X17180751Y-13843214D02*
X17152180Y-13828929D01*
X17137894Y-13800357D01*
X17137894Y-13543214D01*
X17409323Y-13828929D02*
X17380751Y-13843214D01*
X17323608Y-13843214D01*
X17295037Y-13828929D01*
X17280751Y-13800357D01*
X17280751Y-13686071D01*
X17295037Y-13657500D01*
X17323608Y-13643214D01*
X17380751Y-13643214D01*
X17409323Y-13657500D01*
X17423608Y-13686071D01*
X17423608Y-13714643D01*
X17280751Y-13743214D01*
X17537894Y-13828929D02*
X17566466Y-13843214D01*
X17623608Y-13843214D01*
X17652180Y-13828929D01*
X17666466Y-13800357D01*
X17666466Y-13786071D01*
X17652180Y-13757500D01*
X17623608Y-13743214D01*
X17580751Y-13743214D01*
X17552180Y-13728929D01*
X17537894Y-13700357D01*
X17537894Y-13686071D01*
X17552180Y-13657500D01*
X17580751Y-13643214D01*
X17623608Y-13643214D01*
X17652180Y-13657500D01*
X17766466Y-13957500D02*
X17780751Y-13943214D01*
X17809323Y-13900357D01*
X17823608Y-13871786D01*
X17837894Y-13828929D01*
X17852180Y-13757500D01*
X17852180Y-13700357D01*
X17837894Y-13628929D01*
X17823608Y-13586071D01*
X17809323Y-13557500D01*
X17780751Y-13514643D01*
X17766466Y-13500357D01*
X10086380Y-14154300D02*
X10137180Y-14103500D01*
X10086380Y-14052700D01*
X10035580Y-14103500D01*
X10086380Y-14154300D01*
X10580751Y-14239214D02*
X10409323Y-14239214D01*
X10495037Y-14239214D02*
X10495037Y-13939214D01*
X10466466Y-13982071D01*
X10437894Y-14010643D01*
X10409323Y-14024929D01*
X10709323Y-14210643D02*
X10723608Y-14224929D01*
X10709323Y-14239214D01*
X10695037Y-14224929D01*
X10709323Y-14210643D01*
X10709323Y-14239214D01*
X10909323Y-13939214D02*
X10937894Y-13939214D01*
X10966466Y-13953500D01*
X10980751Y-13967786D01*
X10995037Y-13996357D01*
X11009323Y-14053500D01*
X11009323Y-14124929D01*
X10995037Y-14182071D01*
X10980751Y-14210643D01*
X10966466Y-14224929D01*
X10937894Y-14239214D01*
X10909323Y-14239214D01*
X10880751Y-14224929D01*
X10866466Y-14210643D01*
X10852180Y-14182071D01*
X10837894Y-14124929D01*
X10837894Y-14053500D01*
X10852180Y-13996357D01*
X10866466Y-13967786D01*
X10880751Y-13953500D01*
X10909323Y-13939214D01*
X11295037Y-14239214D02*
X11123608Y-14239214D01*
X11209323Y-14239214D02*
X11209323Y-13939214D01*
X11180751Y-13982071D01*
X11152180Y-14010643D01*
X11123608Y-14024929D01*
X11552180Y-13939214D02*
X11495037Y-13939214D01*
X11466466Y-13953500D01*
X11452180Y-13967786D01*
X11423608Y-14010643D01*
X11409323Y-14067786D01*
X11409323Y-14182071D01*
X11423608Y-14210643D01*
X11437894Y-14224929D01*
X11466466Y-14239214D01*
X11523608Y-14239214D01*
X11552180Y-14224929D01*
X11566466Y-14210643D01*
X11580751Y-14182071D01*
X11580751Y-14110643D01*
X11566466Y-14082071D01*
X11552180Y-14067786D01*
X11523608Y-14053500D01*
X11466466Y-14053500D01*
X11437894Y-14067786D01*
X11423608Y-14082071D01*
X11409323Y-14110643D01*
X11709323Y-14239214D02*
X11709323Y-14039214D01*
X11709323Y-14067786D02*
X11723608Y-14053500D01*
X11752180Y-14039214D01*
X11795037Y-14039214D01*
X11823608Y-14053500D01*
X11837894Y-14082071D01*
X11837894Y-14239214D01*
X11837894Y-14082071D02*
X11852180Y-14053500D01*
X11880751Y-14039214D01*
X11923608Y-14039214D01*
X11952180Y-14053500D01*
X11966466Y-14082071D01*
X11966466Y-14239214D01*
X12109323Y-14239214D02*
X12109323Y-14039214D01*
X12109323Y-14067786D02*
X12123608Y-14053500D01*
X12152180Y-14039214D01*
X12195037Y-14039214D01*
X12223608Y-14053500D01*
X12237894Y-14082071D01*
X12237894Y-14239214D01*
X12237894Y-14082071D02*
X12252180Y-14053500D01*
X12280751Y-14039214D01*
X12323608Y-14039214D01*
X12352180Y-14053500D01*
X12366466Y-14082071D01*
X12366466Y-14239214D01*
X12952180Y-13924929D02*
X12695037Y-14310643D01*
X13337894Y-13939214D02*
X13366466Y-13939214D01*
X13395037Y-13953500D01*
X13409323Y-13967786D01*
X13423608Y-13996357D01*
X13437894Y-14053500D01*
X13437894Y-14124929D01*
X13423608Y-14182071D01*
X13409323Y-14210643D01*
X13395037Y-14224929D01*
X13366466Y-14239214D01*
X13337894Y-14239214D01*
X13309323Y-14224929D01*
X13295037Y-14210643D01*
X13280751Y-14182071D01*
X13266466Y-14124929D01*
X13266466Y-14053500D01*
X13280751Y-13996357D01*
X13295037Y-13967786D01*
X13309323Y-13953500D01*
X13337894Y-13939214D01*
X13566466Y-14210643D02*
X13580751Y-14224929D01*
X13566466Y-14239214D01*
X13552180Y-14224929D01*
X13566466Y-14210643D01*
X13566466Y-14239214D01*
X13766466Y-13939214D02*
X13795037Y-13939214D01*
X13823608Y-13953500D01*
X13837894Y-13967786D01*
X13852180Y-13996357D01*
X13866466Y-14053500D01*
X13866466Y-14124929D01*
X13852180Y-14182071D01*
X13837894Y-14210643D01*
X13823608Y-14224929D01*
X13795037Y-14239214D01*
X13766466Y-14239214D01*
X13737894Y-14224929D01*
X13723608Y-14210643D01*
X13709323Y-14182071D01*
X13695037Y-14124929D01*
X13695037Y-14053500D01*
X13709323Y-13996357D01*
X13723608Y-13967786D01*
X13737894Y-13953500D01*
X13766466Y-13939214D01*
X14123608Y-14039214D02*
X14123608Y-14239214D01*
X14052180Y-13924929D02*
X13980751Y-14139214D01*
X14166466Y-14139214D01*
X14337894Y-13939214D02*
X14366466Y-13939214D01*
X14395037Y-13953500D01*
X14409323Y-13967786D01*
X14423608Y-13996357D01*
X14437894Y-14053500D01*
X14437894Y-14124929D01*
X14423608Y-14182071D01*
X14409323Y-14210643D01*
X14395037Y-14224929D01*
X14366466Y-14239214D01*
X14337894Y-14239214D01*
X14309323Y-14224929D01*
X14295037Y-14210643D01*
X14280751Y-14182071D01*
X14266466Y-14124929D01*
X14266466Y-14053500D01*
X14280751Y-13996357D01*
X14295037Y-13967786D01*
X14309323Y-13953500D01*
X14337894Y-13939214D01*
X14623608Y-13939214D02*
X14652180Y-13939214D01*
X14680751Y-13953500D01*
X14695037Y-13967786D01*
X14709323Y-13996357D01*
X14723608Y-14053500D01*
X14723608Y-14124929D01*
X14709323Y-14182071D01*
X14695037Y-14210643D01*
X14680751Y-14224929D01*
X14652180Y-14239214D01*
X14623608Y-14239214D01*
X14595037Y-14224929D01*
X14580751Y-14210643D01*
X14566466Y-14182071D01*
X14552180Y-14124929D01*
X14552180Y-14053500D01*
X14566466Y-13996357D01*
X14580751Y-13967786D01*
X14595037Y-13953500D01*
X14623608Y-13939214D01*
X14837894Y-13939214D02*
X14837894Y-13996357D01*
X14952180Y-13939214D02*
X14952180Y-13996357D01*
X15395037Y-14353500D02*
X15380751Y-14339214D01*
X15352180Y-14296357D01*
X15337894Y-14267786D01*
X15323608Y-14224929D01*
X15309323Y-14153500D01*
X15309323Y-14096357D01*
X15323608Y-14024929D01*
X15337894Y-13982071D01*
X15352180Y-13953500D01*
X15380751Y-13910643D01*
X15395037Y-13896357D01*
X15523608Y-14239214D02*
X15580751Y-14239214D01*
X15609323Y-14224929D01*
X15623608Y-14210643D01*
X15652180Y-14167786D01*
X15666466Y-14110643D01*
X15666466Y-13996357D01*
X15652180Y-13967786D01*
X15637894Y-13953500D01*
X15609323Y-13939214D01*
X15552180Y-13939214D01*
X15523608Y-13953500D01*
X15509323Y-13967786D01*
X15495037Y-13996357D01*
X15495037Y-14067786D01*
X15509323Y-14096357D01*
X15523608Y-14110643D01*
X15552180Y-14124929D01*
X15609323Y-14124929D01*
X15637894Y-14110643D01*
X15652180Y-14096357D01*
X15666466Y-14067786D01*
X15780751Y-13967786D02*
X15795037Y-13953500D01*
X15823608Y-13939214D01*
X15895037Y-13939214D01*
X15923608Y-13953500D01*
X15937894Y-13967786D01*
X15952180Y-13996357D01*
X15952180Y-14024929D01*
X15937894Y-14067786D01*
X15766466Y-14239214D01*
X15952180Y-14239214D01*
X16309323Y-14239214D02*
X16309323Y-13939214D01*
X16437894Y-14239214D02*
X16437894Y-14082071D01*
X16423608Y-14053500D01*
X16395037Y-14039214D01*
X16352180Y-14039214D01*
X16323608Y-14053500D01*
X16309323Y-14067786D01*
X16623608Y-14239214D02*
X16595037Y-14224929D01*
X16580751Y-14210643D01*
X16566466Y-14182071D01*
X16566466Y-14096357D01*
X16580751Y-14067786D01*
X16595037Y-14053500D01*
X16623608Y-14039214D01*
X16666466Y-14039214D01*
X16695037Y-14053500D01*
X16709323Y-14067786D01*
X16723608Y-14096357D01*
X16723608Y-14182071D01*
X16709323Y-14210643D01*
X16695037Y-14224929D01*
X16666466Y-14239214D01*
X16623608Y-14239214D01*
X16895037Y-14239214D02*
X16866466Y-14224929D01*
X16852180Y-14196357D01*
X16852180Y-13939214D01*
X17123608Y-14224929D02*
X17095037Y-14239214D01*
X17037894Y-14239214D01*
X17009323Y-14224929D01*
X16995037Y-14196357D01*
X16995037Y-14082071D01*
X17009323Y-14053500D01*
X17037894Y-14039214D01*
X17095037Y-14039214D01*
X17123608Y-14053500D01*
X17137894Y-14082071D01*
X17137894Y-14110643D01*
X16995037Y-14139214D01*
X17252180Y-14224929D02*
X17280751Y-14239214D01*
X17337894Y-14239214D01*
X17366466Y-14224929D01*
X17380751Y-14196357D01*
X17380751Y-14182071D01*
X17366466Y-14153500D01*
X17337894Y-14139214D01*
X17295037Y-14139214D01*
X17266466Y-14124929D01*
X17252180Y-14096357D01*
X17252180Y-14082071D01*
X17266466Y-14053500D01*
X17295037Y-14039214D01*
X17337894Y-14039214D01*
X17366466Y-14053500D01*
X17480751Y-14353500D02*
X17495037Y-14339214D01*
X17523608Y-14296357D01*
X17537894Y-14267786D01*
X17552180Y-14224929D01*
X17566466Y-14153500D01*
X17566466Y-14096357D01*
X17552180Y-14024929D01*
X17537894Y-13982071D01*
X17523608Y-13953500D01*
X17495037Y-13910643D01*
X17480751Y-13896357D01*
M02*
