G04 #@! TF.GenerationSoftware,KiCad,Pcbnew,(5.1.12)-1*
G04 #@! TF.CreationDate,2021-11-28T08:49:57-03:00*
G04 #@! TF.ProjectId,SHIELD_MEGA,53484945-4c44-45f4-9d45-47412e6b6963,rev?*
G04 #@! TF.SameCoordinates,Original*
G04 #@! TF.FileFunction,Legend,Bot*
G04 #@! TF.FilePolarity,Positive*
%FSLAX46Y46*%
G04 Gerber Fmt 4.6, Leading zero omitted, Abs format (unit mm)*
G04 Created by KiCad (PCBNEW (5.1.12)-1) date 2021-11-28 08:49:57*
%MOMM*%
%LPD*%
G01*
G04 APERTURE LIST*
%ADD10C,0.150000*%
%ADD11C,0.200000*%
%ADD12C,0.010000*%
%ADD13C,1.498000*%
%ADD14R,1.498000X1.498000*%
%ADD15O,1.700000X1.700000*%
%ADD16R,1.700000X1.700000*%
%ADD17O,1.727200X1.727200*%
%ADD18C,3.200000*%
%ADD19O,1.400000X0.900000*%
G04 APERTURE END LIST*
D10*
X119519238Y-90491904D02*
X119519238Y-89691904D01*
X119328761Y-89691904D01*
X119214476Y-89730000D01*
X119138285Y-89806190D01*
X119100190Y-89882380D01*
X119062095Y-90034761D01*
X119062095Y-90149047D01*
X119100190Y-90301428D01*
X119138285Y-90377619D01*
X119214476Y-90453809D01*
X119328761Y-90491904D01*
X119519238Y-90491904D01*
X118719238Y-90072857D02*
X118452571Y-90072857D01*
X118338285Y-90491904D02*
X118719238Y-90491904D01*
X118719238Y-89691904D01*
X118338285Y-89691904D01*
X117576380Y-89730000D02*
X117652571Y-89691904D01*
X117766857Y-89691904D01*
X117881142Y-89730000D01*
X117957333Y-89806190D01*
X117995428Y-89882380D01*
X118033523Y-90034761D01*
X118033523Y-90149047D01*
X117995428Y-90301428D01*
X117957333Y-90377619D01*
X117881142Y-90453809D01*
X117766857Y-90491904D01*
X117690666Y-90491904D01*
X117576380Y-90453809D01*
X117538285Y-90415714D01*
X117538285Y-90149047D01*
X117690666Y-90149047D01*
X117195428Y-90491904D02*
X117195428Y-89691904D01*
X116814476Y-90491904D02*
X116814476Y-89691904D01*
X116357333Y-90491904D01*
X116357333Y-89691904D01*
X115976380Y-90072857D02*
X115709714Y-90072857D01*
X115595428Y-90491904D02*
X115976380Y-90491904D01*
X115976380Y-89691904D01*
X115595428Y-89691904D01*
X115252571Y-90491904D02*
X115252571Y-89691904D01*
X115062095Y-89691904D01*
X114947809Y-89730000D01*
X114871619Y-89806190D01*
X114833523Y-89882380D01*
X114795428Y-90034761D01*
X114795428Y-90149047D01*
X114833523Y-90301428D01*
X114871619Y-90377619D01*
X114947809Y-90453809D01*
X115062095Y-90491904D01*
X115252571Y-90491904D01*
X113576380Y-90072857D02*
X113462095Y-90110952D01*
X113424000Y-90149047D01*
X113385904Y-90225238D01*
X113385904Y-90339523D01*
X113424000Y-90415714D01*
X113462095Y-90453809D01*
X113538285Y-90491904D01*
X113843047Y-90491904D01*
X113843047Y-89691904D01*
X113576380Y-89691904D01*
X113500190Y-89730000D01*
X113462095Y-89768095D01*
X113424000Y-89844285D01*
X113424000Y-89920476D01*
X113462095Y-89996666D01*
X113500190Y-90034761D01*
X113576380Y-90072857D01*
X113843047Y-90072857D01*
X112890666Y-90110952D02*
X112890666Y-90491904D01*
X113157333Y-89691904D02*
X112890666Y-90110952D01*
X112624000Y-89691904D01*
X120604952Y-91841904D02*
X120985904Y-91841904D01*
X120985904Y-91041904D01*
X120338285Y-91841904D02*
X120338285Y-91041904D01*
X119957333Y-91841904D02*
X119957333Y-91041904D01*
X119500190Y-91841904D01*
X119500190Y-91041904D01*
X118662095Y-91765714D02*
X118700190Y-91803809D01*
X118814476Y-91841904D01*
X118890666Y-91841904D01*
X119004952Y-91803809D01*
X119081142Y-91727619D01*
X119119238Y-91651428D01*
X119157333Y-91499047D01*
X119157333Y-91384761D01*
X119119238Y-91232380D01*
X119081142Y-91156190D01*
X119004952Y-91080000D01*
X118890666Y-91041904D01*
X118814476Y-91041904D01*
X118700190Y-91080000D01*
X118662095Y-91118095D01*
X118166857Y-91041904D02*
X118014476Y-91041904D01*
X117938285Y-91080000D01*
X117862095Y-91156190D01*
X117824000Y-91308571D01*
X117824000Y-91575238D01*
X117862095Y-91727619D01*
X117938285Y-91803809D01*
X118014476Y-91841904D01*
X118166857Y-91841904D01*
X118243047Y-91803809D01*
X118319238Y-91727619D01*
X118357333Y-91575238D01*
X118357333Y-91308571D01*
X118319238Y-91156190D01*
X118243047Y-91080000D01*
X118166857Y-91041904D01*
X117100190Y-91841904D02*
X117481142Y-91841904D01*
X117481142Y-91041904D01*
X116833523Y-91841904D02*
X116833523Y-91041904D01*
X116376380Y-91841904D01*
X116376380Y-91041904D01*
X115462095Y-91041904D02*
X115271619Y-91841904D01*
X115119238Y-91270476D01*
X114966857Y-91841904D01*
X114776380Y-91041904D01*
X114509714Y-91613333D02*
X114128761Y-91613333D01*
X114585904Y-91841904D02*
X114319238Y-91041904D01*
X114052571Y-91841904D01*
X113404952Y-91841904D02*
X113785904Y-91841904D01*
X113785904Y-91041904D01*
X112757333Y-91841904D02*
X113138285Y-91841904D01*
X113138285Y-91041904D01*
X112528761Y-91613333D02*
X112147809Y-91613333D01*
X112604952Y-91841904D02*
X112338285Y-91041904D01*
X112071619Y-91841904D01*
X111347809Y-91765714D02*
X111385904Y-91803809D01*
X111500190Y-91841904D01*
X111576380Y-91841904D01*
X111690666Y-91803809D01*
X111766857Y-91727619D01*
X111804952Y-91651428D01*
X111843047Y-91499047D01*
X111843047Y-91384761D01*
X111804952Y-91232380D01*
X111766857Y-91156190D01*
X111690666Y-91080000D01*
X111576380Y-91041904D01*
X111500190Y-91041904D01*
X111385904Y-91080000D01*
X111347809Y-91118095D01*
X111004952Y-91422857D02*
X110738285Y-91422857D01*
X110624000Y-91841904D02*
X111004952Y-91841904D01*
X111004952Y-91041904D01*
X110624000Y-91041904D01*
D11*
X121657380Y-87971380D02*
X121657380Y-88780904D01*
X121609761Y-88876142D01*
X121562142Y-88923761D01*
X121466904Y-88971380D01*
X121276428Y-88971380D01*
X121181190Y-88923761D01*
X121133571Y-88876142D01*
X121085952Y-88780904D01*
X121085952Y-87971380D01*
X120609761Y-88971380D02*
X120609761Y-87971380D01*
X120038333Y-88971380D01*
X120038333Y-87971380D01*
X119562142Y-88971380D02*
X119562142Y-87971380D01*
X118752619Y-88447571D02*
X119085952Y-88447571D01*
X119085952Y-88971380D02*
X119085952Y-87971380D01*
X118609761Y-87971380D01*
X118228809Y-88447571D02*
X117895476Y-88447571D01*
X117752619Y-88971380D02*
X118228809Y-88971380D01*
X118228809Y-87971380D01*
X117752619Y-87971380D01*
X117324047Y-88971380D02*
X117324047Y-87971380D01*
X116085952Y-88590428D02*
X115324047Y-88590428D01*
X114133571Y-88066619D02*
X114085952Y-88019000D01*
X113990714Y-87971380D01*
X113752619Y-87971380D01*
X113657380Y-88019000D01*
X113609761Y-88066619D01*
X113562142Y-88161857D01*
X113562142Y-88257095D01*
X113609761Y-88399952D01*
X114181190Y-88971380D01*
X113562142Y-88971380D01*
X112943095Y-87971380D02*
X112847857Y-87971380D01*
X112752619Y-88019000D01*
X112705000Y-88066619D01*
X112657380Y-88161857D01*
X112609761Y-88352333D01*
X112609761Y-88590428D01*
X112657380Y-88780904D01*
X112705000Y-88876142D01*
X112752619Y-88923761D01*
X112847857Y-88971380D01*
X112943095Y-88971380D01*
X113038333Y-88923761D01*
X113085952Y-88876142D01*
X113133571Y-88780904D01*
X113181190Y-88590428D01*
X113181190Y-88352333D01*
X113133571Y-88161857D01*
X113085952Y-88066619D01*
X113038333Y-88019000D01*
X112943095Y-87971380D01*
X112228809Y-88066619D02*
X112181190Y-88019000D01*
X112085952Y-87971380D01*
X111847857Y-87971380D01*
X111752619Y-88019000D01*
X111705000Y-88066619D01*
X111657380Y-88161857D01*
X111657380Y-88257095D01*
X111705000Y-88399952D01*
X112276428Y-88971380D01*
X111657380Y-88971380D01*
X110705000Y-88971380D02*
X111276428Y-88971380D01*
X110990714Y-88971380D02*
X110990714Y-87971380D01*
X111085952Y-88114238D01*
X111181190Y-88209476D01*
X111276428Y-88257095D01*
D12*
G36*
X113731720Y-70796933D02*
G01*
X113732946Y-70830861D01*
X113734998Y-70862651D01*
X113693111Y-70853356D01*
X113634445Y-70848624D01*
X113622666Y-70866000D01*
X113591542Y-70888053D01*
X113558627Y-70881102D01*
X113474320Y-70884351D01*
X113434562Y-70906345D01*
X113350030Y-70943825D01*
X113246059Y-70959816D01*
X113162841Y-70971242D01*
X113136563Y-70993950D01*
X113137349Y-70995453D01*
X113120906Y-71012591D01*
X113076713Y-71006412D01*
X112983645Y-71012969D01*
X112893359Y-71052841D01*
X112811196Y-71092477D01*
X112762037Y-71091926D01*
X112736154Y-71096365D01*
X112733666Y-71114800D01*
X112701414Y-71157765D01*
X112680750Y-71159173D01*
X112530166Y-71166370D01*
X112400684Y-71242082D01*
X112398049Y-71244356D01*
X112307825Y-71296284D01*
X112236460Y-71300662D01*
X112191685Y-71296020D01*
X112201804Y-71327304D01*
X112205284Y-71367526D01*
X112176998Y-71368532D01*
X112087649Y-71372370D01*
X111994977Y-71403675D01*
X111935579Y-71448039D01*
X111929333Y-71466049D01*
X111898256Y-71491482D01*
X111863634Y-71484848D01*
X111819935Y-71481889D01*
X111823800Y-71501485D01*
X111810582Y-71534433D01*
X111762498Y-71543334D01*
X111692379Y-71561613D01*
X111675333Y-71588165D01*
X111649398Y-71613448D01*
X111633000Y-71606833D01*
X111594053Y-71611594D01*
X111590666Y-71628000D01*
X111564879Y-71655606D01*
X111548333Y-71649167D01*
X111509386Y-71653928D01*
X111506000Y-71670333D01*
X111482054Y-71699636D01*
X111468463Y-71694465D01*
X111414573Y-71702896D01*
X111378613Y-71734300D01*
X111299396Y-71788177D01*
X111254799Y-71797334D01*
X111172907Y-71824698D01*
X111092419Y-71882000D01*
X111013527Y-71943295D01*
X110959540Y-71966667D01*
X110906080Y-71998982D01*
X110874391Y-72040750D01*
X110839920Y-72083730D01*
X110829954Y-72074992D01*
X110807389Y-72072341D01*
X110762027Y-72117326D01*
X110723632Y-72158138D01*
X110726235Y-72140043D01*
X110734252Y-72101218D01*
X110710056Y-72109648D01*
X110681170Y-72168315D01*
X110686785Y-72200613D01*
X110726664Y-72242545D01*
X110748436Y-72239092D01*
X110780980Y-72251264D01*
X110786333Y-72281668D01*
X110808435Y-72339590D01*
X110828666Y-72347667D01*
X110865900Y-72371521D01*
X110865987Y-72379417D01*
X110866348Y-72465552D01*
X110893799Y-72502283D01*
X110910285Y-72497717D01*
X110951688Y-72511840D01*
X110977071Y-72560083D01*
X111024770Y-72651159D01*
X111102244Y-72752088D01*
X111105603Y-72755744D01*
X111172153Y-72835516D01*
X111202889Y-72888202D01*
X111203138Y-72891963D01*
X111206999Y-72980233D01*
X111242775Y-73006317D01*
X111259194Y-72999387D01*
X111291032Y-72997341D01*
X111281884Y-73038714D01*
X111279849Y-73093311D01*
X111304375Y-73098576D01*
X111348500Y-73127682D01*
X111395126Y-73212425D01*
X111404089Y-73236667D01*
X111432617Y-73335257D01*
X111424503Y-73380739D01*
X111376326Y-73398109D01*
X111309811Y-73432990D01*
X111205587Y-73513020D01*
X111084347Y-73622053D01*
X111064330Y-73641526D01*
X110947899Y-73750959D01*
X110851507Y-73832182D01*
X110792893Y-73870461D01*
X110787241Y-73871667D01*
X110753819Y-73903311D01*
X110754583Y-73922659D01*
X110736678Y-73971079D01*
X110720734Y-73975576D01*
X110670159Y-74005793D01*
X110581621Y-74082411D01*
X110472475Y-74187734D01*
X110360076Y-74304069D01*
X110261780Y-74413719D01*
X110194942Y-74498989D01*
X110177886Y-74529062D01*
X110135851Y-74573844D01*
X110109000Y-74570167D01*
X110061763Y-74580802D01*
X110036676Y-74620400D01*
X109980147Y-74709196D01*
X109928941Y-74760722D01*
X109862711Y-74836331D01*
X109840625Y-74887722D01*
X109812949Y-74948609D01*
X109756764Y-75025679D01*
X109690583Y-75098915D01*
X109632917Y-75148304D01*
X109602277Y-75153832D01*
X109601000Y-75146801D01*
X109565847Y-75096626D01*
X109495166Y-75057000D01*
X109416688Y-75013303D01*
X109389333Y-74974871D01*
X109373674Y-74951167D01*
X109347000Y-74951167D01*
X109325833Y-74972334D01*
X109304666Y-74951167D01*
X109325833Y-74930000D01*
X109347000Y-74951167D01*
X109373674Y-74951167D01*
X109356171Y-74924672D01*
X109299558Y-74884933D01*
X109237128Y-74857659D01*
X109232231Y-74879341D01*
X109239197Y-74894027D01*
X109239916Y-74909912D01*
X109201972Y-74868992D01*
X109152532Y-74821466D01*
X109134046Y-74826659D01*
X109116406Y-74829483D01*
X109089609Y-74792417D01*
X109027199Y-74730928D01*
X108986552Y-74718334D01*
X108921544Y-74684723D01*
X108879576Y-74630383D01*
X108861843Y-74612500D01*
X108839000Y-74612500D01*
X108817833Y-74633667D01*
X108796666Y-74612500D01*
X108817833Y-74591334D01*
X108839000Y-74612500D01*
X108861843Y-74612500D01*
X108818060Y-74568348D01*
X108770054Y-74566399D01*
X108728339Y-74568652D01*
X108731358Y-74551927D01*
X108711621Y-74515697D01*
X108632930Y-74473943D01*
X108606166Y-74464334D01*
X108512500Y-74420502D01*
X108482521Y-74376824D01*
X108485318Y-74369714D01*
X108486934Y-74344463D01*
X108463850Y-74354884D01*
X108433024Y-74405547D01*
X108438641Y-74424925D01*
X108434099Y-74461857D01*
X108421018Y-74464334D01*
X108377380Y-74499627D01*
X108349136Y-74559584D01*
X108296686Y-74656714D01*
X108216900Y-74750270D01*
X108153718Y-74825491D01*
X108136834Y-74880944D01*
X108138381Y-74884238D01*
X108131369Y-74930729D01*
X108119177Y-74937108D01*
X108079301Y-74985211D01*
X108055833Y-75057000D01*
X108025215Y-75142324D01*
X107992489Y-75176893D01*
X107968081Y-75217102D01*
X107973401Y-75229949D01*
X107965584Y-75265994D01*
X107950000Y-75268667D01*
X107922394Y-75294454D01*
X107928833Y-75311000D01*
X107925477Y-75350010D01*
X107910165Y-75353333D01*
X107870406Y-75387582D01*
X107865333Y-75416834D01*
X107838756Y-75473108D01*
X107815944Y-75480333D01*
X107787480Y-75497326D01*
X107794410Y-75508188D01*
X107795597Y-75559091D01*
X107775116Y-75592855D01*
X107749004Y-75640339D01*
X107757340Y-75649667D01*
X107755606Y-75674025D01*
X107719801Y-75716580D01*
X107677446Y-75786333D01*
X107679868Y-75827146D01*
X107680835Y-75885800D01*
X107669673Y-75897817D01*
X107607862Y-75969087D01*
X107561511Y-76064626D01*
X107547044Y-76146713D01*
X107552940Y-76165930D01*
X107556461Y-76192847D01*
X107529762Y-76180747D01*
X107491767Y-76179139D01*
X107491469Y-76231203D01*
X107477367Y-76330871D01*
X107447397Y-76383997D01*
X107413801Y-76438668D01*
X107420518Y-76454000D01*
X107422187Y-76484098D01*
X107384028Y-76557245D01*
X107379561Y-76564155D01*
X107333733Y-76665421D01*
X107326663Y-76748027D01*
X107321603Y-76832607D01*
X107284454Y-76946885D01*
X107273922Y-76969805D01*
X107229796Y-77090734D01*
X107214650Y-77196139D01*
X107215853Y-77209266D01*
X107212950Y-77281058D01*
X107193605Y-77300667D01*
X107173432Y-77335893D01*
X107177639Y-77406500D01*
X107180468Y-77485160D01*
X107161185Y-77512334D01*
X107133083Y-77548429D01*
X107124500Y-77612875D01*
X107132414Y-77671927D01*
X107168463Y-77705818D01*
X107251108Y-77721988D01*
X107398807Y-77727881D01*
X107410250Y-77728072D01*
X107473396Y-77752818D01*
X107484981Y-77779548D01*
X107501606Y-77795956D01*
X107526666Y-77766334D01*
X107560123Y-77729522D01*
X107568352Y-77758603D01*
X107599026Y-77795128D01*
X107658968Y-77785818D01*
X107721045Y-77775622D01*
X107716730Y-77809372D01*
X107716454Y-77809819D01*
X107715093Y-77843992D01*
X107780658Y-77847531D01*
X107814751Y-77843181D01*
X107898798Y-77838325D01*
X107927719Y-77852291D01*
X107926690Y-77854467D01*
X107950054Y-77875300D01*
X108032102Y-77885881D01*
X108045343Y-77886139D01*
X108170568Y-77894203D01*
X108287073Y-77912467D01*
X108358964Y-77935099D01*
X108362750Y-77937720D01*
X108407872Y-77949748D01*
X108426250Y-77952264D01*
X108456414Y-77966303D01*
X108470035Y-78010049D01*
X108467528Y-78099091D01*
X108449306Y-78249021D01*
X108436485Y-78337834D01*
X108423756Y-78474508D01*
X108414461Y-78675670D01*
X108408600Y-78921210D01*
X108406173Y-79191018D01*
X108407180Y-79464985D01*
X108411620Y-79723002D01*
X108419495Y-79944958D01*
X108430804Y-80110745D01*
X108436485Y-80158167D01*
X108461458Y-80339668D01*
X108470898Y-80453454D01*
X108464390Y-80515117D01*
X108441521Y-80540246D01*
X108426250Y-80543737D01*
X108361241Y-80556789D01*
X108352166Y-80560334D01*
X108296535Y-80572498D01*
X108256916Y-80576857D01*
X108164009Y-80599258D01*
X108133737Y-80614036D01*
X108055807Y-80626974D01*
X108010376Y-80616777D01*
X107959386Y-80609264D01*
X107965171Y-80635299D01*
X107957340Y-80663402D01*
X107876985Y-80662648D01*
X107838533Y-80657052D01*
X107737070Y-80648924D01*
X107705865Y-80667150D01*
X107708621Y-80673507D01*
X107695070Y-80703318D01*
X107642684Y-80708471D01*
X107532752Y-80722693D01*
X107453313Y-80752373D01*
X107335529Y-80786247D01*
X107236697Y-80789182D01*
X107146007Y-80802716D01*
X107119827Y-80866800D01*
X107160941Y-80974036D01*
X107164795Y-80980369D01*
X107178663Y-81018945D01*
X107152207Y-81008876D01*
X107110624Y-81013006D01*
X107103333Y-81047167D01*
X107124575Y-81092312D01*
X107152861Y-81085054D01*
X107184651Y-81083002D01*
X107175356Y-81124889D01*
X107170623Y-81183555D01*
X107188000Y-81195334D01*
X107211763Y-81225712D01*
X107206511Y-81250488D01*
X107208962Y-81321233D01*
X107240624Y-81431790D01*
X107256891Y-81472738D01*
X107301145Y-81607901D01*
X107321144Y-81733468D01*
X107320966Y-81757290D01*
X107335247Y-81854652D01*
X107373573Y-81897801D01*
X107420493Y-81953236D01*
X107423335Y-81991128D01*
X107441932Y-82080403D01*
X107466075Y-82114457D01*
X107501305Y-82196717D01*
X107498444Y-82246611D01*
X107509523Y-82337166D01*
X107547145Y-82395098D01*
X107606137Y-82485939D01*
X107622720Y-82546643D01*
X107644296Y-82602458D01*
X107669648Y-82603623D01*
X107691756Y-82612082D01*
X107682512Y-82651088D01*
X107676028Y-82700428D01*
X107696485Y-82697867D01*
X107730128Y-82711088D01*
X107747071Y-82780757D01*
X107743346Y-82856917D01*
X107770961Y-82887106D01*
X107785196Y-82888667D01*
X107813043Y-82919632D01*
X107806847Y-82954366D01*
X107803889Y-82998065D01*
X107823485Y-82994200D01*
X107856433Y-83007418D01*
X107865333Y-83055502D01*
X107883613Y-83125621D01*
X107910165Y-83142667D01*
X107935448Y-83168602D01*
X107928833Y-83185000D01*
X107935462Y-83223524D01*
X107954557Y-83227334D01*
X107986392Y-83242814D01*
X107980238Y-83253540D01*
X107984357Y-83299796D01*
X108015905Y-83341619D01*
X108057179Y-83406089D01*
X108056465Y-83437977D01*
X108070054Y-83479651D01*
X108101093Y-83497765D01*
X108144680Y-83539719D01*
X108140685Y-83565701D01*
X108145157Y-83604862D01*
X108161666Y-83608334D01*
X108189626Y-83633961D01*
X108183530Y-83649539D01*
X108192841Y-83703859D01*
X108244532Y-83764780D01*
X108310140Y-83847793D01*
X108331000Y-83915404D01*
X108361613Y-83992678D01*
X108394257Y-84016265D01*
X108438169Y-84054732D01*
X108435899Y-84075511D01*
X108446117Y-84123725D01*
X108467893Y-84141362D01*
X108498809Y-84151164D01*
X108490595Y-84138077D01*
X108508049Y-84103564D01*
X108585389Y-84050123D01*
X108670511Y-84006237D01*
X108742541Y-83968167D01*
X108415666Y-83968167D01*
X108394500Y-83989334D01*
X108373333Y-83968167D01*
X108394500Y-83947000D01*
X108415666Y-83968167D01*
X108742541Y-83968167D01*
X108786989Y-83944675D01*
X108863554Y-83889639D01*
X108867687Y-83883500D01*
X108839000Y-83883500D01*
X108817833Y-83904667D01*
X108796666Y-83883500D01*
X108817833Y-83862334D01*
X108839000Y-83883500D01*
X108867687Y-83883500D01*
X108881333Y-83863233D01*
X108916411Y-83816260D01*
X108987166Y-83777667D01*
X109065710Y-83732594D01*
X109093000Y-83691550D01*
X109118873Y-83665291D01*
X109135333Y-83671834D01*
X109174280Y-83667073D01*
X109177666Y-83650667D01*
X109203233Y-83622576D01*
X109218456Y-83628546D01*
X109274161Y-83620260D01*
X109345456Y-83567544D01*
X109370973Y-83544834D01*
X109347000Y-83544834D01*
X109325833Y-83566000D01*
X109304666Y-83544834D01*
X109325833Y-83523667D01*
X109347000Y-83544834D01*
X109370973Y-83544834D01*
X109406319Y-83513377D01*
X109431666Y-83504131D01*
X109431666Y-83504149D01*
X109457970Y-83495530D01*
X109521537Y-83443228D01*
X109524316Y-83440649D01*
X109618196Y-83373827D01*
X109692496Y-83356686D01*
X109727388Y-83392930D01*
X109728000Y-83402583D01*
X109757700Y-83465496D01*
X109802083Y-83511556D01*
X109836746Y-83545975D01*
X109814924Y-83540329D01*
X109796798Y-83548360D01*
X109827101Y-83609615D01*
X109851942Y-83646373D01*
X109929002Y-83740574D01*
X109996435Y-83800538D01*
X110008192Y-83806620D01*
X110050313Y-83841592D01*
X110048854Y-83856906D01*
X110067404Y-83898459D01*
X110134245Y-83971533D01*
X110177874Y-84011220D01*
X110251601Y-84075550D01*
X110316880Y-84135237D01*
X110387623Y-84204113D01*
X110477738Y-84296011D01*
X110601137Y-84424767D01*
X110730537Y-84560834D01*
X110834691Y-84667927D01*
X110907076Y-84737274D01*
X110936971Y-84758854D01*
X110934319Y-84751334D01*
X110938199Y-84741712D01*
X110988033Y-84784519D01*
X111042680Y-84839238D01*
X111160249Y-84948491D01*
X111282060Y-85042777D01*
X111320583Y-85067366D01*
X111414681Y-85141869D01*
X111433440Y-85216942D01*
X111432062Y-85222878D01*
X111399661Y-85288278D01*
X111377007Y-85301667D01*
X111344610Y-85337617D01*
X111328022Y-85396917D01*
X111297561Y-85466821D01*
X111261578Y-85481584D01*
X111212899Y-85504957D01*
X111202261Y-85590093D01*
X111204653Y-85608584D01*
X111177703Y-85639333D01*
X111167333Y-85640334D01*
X111129429Y-85674470D01*
X111125000Y-85701730D01*
X111091977Y-85772991D01*
X111057707Y-85800785D01*
X110996664Y-85851886D01*
X110983623Y-85876972D01*
X110952716Y-85906655D01*
X110946607Y-85905425D01*
X110933442Y-85928197D01*
X110943217Y-85965286D01*
X110948908Y-86012652D01*
X110920527Y-86004613D01*
X110876589Y-86008225D01*
X110862087Y-86076968D01*
X110865987Y-86116584D01*
X110839037Y-86147333D01*
X110828666Y-86148334D01*
X110791514Y-86182791D01*
X110786333Y-86214332D01*
X110767794Y-86259550D01*
X110748436Y-86256908D01*
X110703436Y-86267953D01*
X110686785Y-86295388D01*
X110690861Y-86365565D01*
X110710056Y-86386352D01*
X110736874Y-86389309D01*
X110722450Y-86355958D01*
X110724845Y-86344247D01*
X110772286Y-86386016D01*
X110798554Y-86412917D01*
X110883095Y-86488903D01*
X110950505Y-86527947D01*
X110959562Y-86529334D01*
X111024962Y-86560010D01*
X111056833Y-86593328D01*
X111133469Y-86650975D01*
X111209527Y-86677575D01*
X111294874Y-86708014D01*
X111329471Y-86740581D01*
X111377892Y-86775898D01*
X111427359Y-86783334D01*
X111484940Y-86801045D01*
X111480387Y-86832861D01*
X111478335Y-86864651D01*
X111520222Y-86855356D01*
X111578795Y-86852288D01*
X111590666Y-86871827D01*
X111616680Y-86895871D01*
X111633000Y-86889167D01*
X111672009Y-86892523D01*
X111675333Y-86907835D01*
X111710358Y-86945510D01*
X111751533Y-86952667D01*
X111846811Y-86980730D01*
X111880650Y-87005584D01*
X111947494Y-87054491D01*
X111973783Y-87063792D01*
X112053592Y-87073753D01*
X112058832Y-87074375D01*
X112082016Y-87106240D01*
X112073054Y-87129194D01*
X112071002Y-87160984D01*
X112112889Y-87151690D01*
X112172024Y-87150187D01*
X112183333Y-87172718D01*
X112200579Y-87199976D01*
X112210994Y-87193117D01*
X112260630Y-87195807D01*
X112351095Y-87236113D01*
X112384952Y-87255872D01*
X112511454Y-87314508D01*
X112634509Y-87342430D01*
X112652889Y-87342830D01*
X112748799Y-87352702D01*
X112798929Y-87378852D01*
X112856993Y-87411976D01*
X112905498Y-87418334D01*
X112972952Y-87434440D01*
X112987666Y-87455729D01*
X113022899Y-87495248D01*
X113072392Y-87515281D01*
X113130743Y-87519516D01*
X113135833Y-87503000D01*
X113151485Y-87484439D01*
X113199275Y-87490719D01*
X113267957Y-87525285D01*
X113284000Y-87552769D01*
X113309822Y-87574247D01*
X113323408Y-87568308D01*
X113378137Y-87572703D01*
X113387090Y-87583229D01*
X113443093Y-87609182D01*
X113515836Y-87611037D01*
X113585830Y-87614302D01*
X113598216Y-87635314D01*
X113618869Y-87653609D01*
X113698304Y-87652135D01*
X113715812Y-87649720D01*
X113800775Y-87639536D01*
X113810264Y-87649287D01*
X113770833Y-87672334D01*
X113728630Y-87699077D01*
X113755858Y-87703846D01*
X113831246Y-87693868D01*
X113936644Y-87676250D01*
X113987129Y-87649335D01*
X114010030Y-87586231D01*
X114024755Y-87503445D01*
X114051566Y-87392298D01*
X114082321Y-87317562D01*
X114084719Y-87314231D01*
X114109053Y-87239514D01*
X114110797Y-87174917D01*
X114119449Y-87100873D01*
X114143033Y-87079667D01*
X114164082Y-87043814D01*
X114158779Y-86955806D01*
X114157762Y-86950562D01*
X114149884Y-86864402D01*
X114171537Y-86845991D01*
X114173152Y-86846928D01*
X114196438Y-86839347D01*
X114188946Y-86806160D01*
X114188774Y-86719425D01*
X114205160Y-86687544D01*
X114235520Y-86602352D01*
X114234834Y-86561252D01*
X114242514Y-86486698D01*
X114259588Y-86464646D01*
X114279325Y-86411650D01*
X114272455Y-86379811D01*
X114261274Y-86348644D01*
X114265690Y-86329891D01*
X114299521Y-86323310D01*
X114376585Y-86328661D01*
X114510702Y-86345701D01*
X114702166Y-86372306D01*
X114920134Y-86394562D01*
X115186162Y-86409267D01*
X115479139Y-86416505D01*
X115777954Y-86416355D01*
X116061496Y-86408900D01*
X116308654Y-86394221D01*
X116498317Y-86372401D01*
X116537353Y-86365208D01*
X116697094Y-86343276D01*
X116813194Y-86349463D01*
X116870032Y-86382038D01*
X116872629Y-86402334D01*
X116878159Y-86453404D01*
X116896462Y-86555076D01*
X116904104Y-86592834D01*
X116930804Y-86719265D01*
X116948422Y-86794901D01*
X116964521Y-86851960D01*
X116966194Y-86857417D01*
X116970906Y-86919661D01*
X116968295Y-87005584D01*
X116977686Y-87089782D01*
X117008641Y-87122000D01*
X117036313Y-87147998D01*
X117029354Y-87166188D01*
X117027720Y-87233736D01*
X117043360Y-87261438D01*
X117075781Y-87341581D01*
X117084881Y-87418334D01*
X117102419Y-87572991D01*
X117163764Y-87662781D01*
X117283131Y-87702163D01*
X117369166Y-87707472D01*
X117453833Y-87708716D01*
X117369166Y-87668772D01*
X117320790Y-87642260D01*
X117345955Y-87638104D01*
X117400916Y-87644710D01*
X117484897Y-87646278D01*
X117517333Y-87628608D01*
X117553286Y-87603504D01*
X117612583Y-87596308D01*
X117762181Y-87580140D01*
X117906781Y-87522521D01*
X117935192Y-87507324D01*
X117998997Y-87480235D01*
X118010556Y-87492661D01*
X118025208Y-87516299D01*
X118093592Y-87512452D01*
X118182887Y-87477599D01*
X118222660Y-87436976D01*
X118228891Y-87432445D01*
X118180555Y-87432445D01*
X118174744Y-87457612D01*
X118152333Y-87460667D01*
X118117488Y-87445178D01*
X118124111Y-87432445D01*
X118174351Y-87427378D01*
X118180555Y-87432445D01*
X118228891Y-87432445D01*
X118275432Y-87398603D01*
X118325015Y-87397812D01*
X118391225Y-87395664D01*
X118406333Y-87378099D01*
X118440055Y-87334288D01*
X118472032Y-87317514D01*
X118516308Y-87313564D01*
X118514307Y-87330204D01*
X118528048Y-87351523D01*
X118575132Y-87346073D01*
X118633132Y-87313834D01*
X118636492Y-87287006D01*
X118645840Y-87266263D01*
X118672519Y-87272578D01*
X118745287Y-87263054D01*
X118783646Y-87232276D01*
X118857801Y-87191390D01*
X118903206Y-87195211D01*
X118948377Y-87199130D01*
X118942688Y-87175963D01*
X118950333Y-87125433D01*
X118980275Y-87105754D01*
X119023753Y-87102920D01*
X119020166Y-87122000D01*
X119027545Y-87145515D01*
X119060301Y-87138153D01*
X119117705Y-87095364D01*
X119126000Y-87072639D01*
X119152203Y-87051588D01*
X119168333Y-87058500D01*
X119207228Y-87052610D01*
X119210666Y-87035303D01*
X119241517Y-87005311D01*
X119276365Y-87011153D01*
X119320065Y-87014111D01*
X119316200Y-86994515D01*
X119329417Y-86961567D01*
X119377501Y-86952667D01*
X119447637Y-86935395D01*
X119464666Y-86910333D01*
X119488520Y-86873100D01*
X119496416Y-86873013D01*
X119591187Y-86874890D01*
X119650816Y-86853417D01*
X119655166Y-86825667D01*
X119663756Y-86788616D01*
X119689818Y-86783334D01*
X119766972Y-86753381D01*
X119801245Y-86722350D01*
X119869250Y-86680662D01*
X119906489Y-86682331D01*
X119966926Y-86667236D01*
X120010460Y-86635167D01*
X119972666Y-86635167D01*
X119951500Y-86656334D01*
X119930333Y-86635167D01*
X119951500Y-86614000D01*
X119972666Y-86635167D01*
X120010460Y-86635167D01*
X120052501Y-86604199D01*
X120083173Y-86573981D01*
X120176809Y-86492475D01*
X120260774Y-86447655D01*
X120279446Y-86444667D01*
X120342330Y-86423575D01*
X120353666Y-86399835D01*
X120379180Y-86373665D01*
X120393075Y-86379359D01*
X120446604Y-86372685D01*
X120463116Y-86354150D01*
X120468816Y-86324459D01*
X120444874Y-86334791D01*
X120402969Y-86330901D01*
X120396000Y-86298999D01*
X120372618Y-86241098D01*
X120351168Y-86233000D01*
X120325974Y-86207025D01*
X120332685Y-86190368D01*
X120324020Y-86141604D01*
X120295523Y-86123364D01*
X120251407Y-86073623D01*
X120253790Y-86042243D01*
X120243209Y-86000167D01*
X120226666Y-86000167D01*
X120205500Y-86021334D01*
X120184333Y-86000167D01*
X120205500Y-85979000D01*
X120226666Y-86000167D01*
X120243209Y-86000167D01*
X120238459Y-85981281D01*
X120187617Y-85938424D01*
X120118586Y-85878586D01*
X120099666Y-85831448D01*
X120066778Y-85762569D01*
X120025583Y-85728391D01*
X119982603Y-85693920D01*
X119991341Y-85683954D01*
X119993992Y-85661389D01*
X119949008Y-85616028D01*
X119907457Y-85577146D01*
X119923973Y-85578803D01*
X119959361Y-85587376D01*
X119945263Y-85541936D01*
X119933067Y-85518442D01*
X119913159Y-85492167D01*
X119888000Y-85492167D01*
X119866833Y-85513334D01*
X119845666Y-85492167D01*
X119866833Y-85471000D01*
X119888000Y-85492167D01*
X119913159Y-85492167D01*
X119880374Y-85448899D01*
X119843129Y-85428667D01*
X119798752Y-85393651D01*
X119761000Y-85322834D01*
X119714795Y-85244238D01*
X119671608Y-85217000D01*
X119661486Y-85195044D01*
X119699965Y-85141669D01*
X119767440Y-85075617D01*
X119844303Y-85015627D01*
X119910947Y-84980440D01*
X119921685Y-84977974D01*
X119991767Y-84941113D01*
X120082272Y-84861289D01*
X120094322Y-84848135D01*
X120050509Y-84848135D01*
X120040209Y-84871793D01*
X119997584Y-84917239D01*
X119973079Y-84907917D01*
X119972666Y-84901999D01*
X120002735Y-84866192D01*
X120021541Y-84853124D01*
X120050509Y-84848135D01*
X120094322Y-84848135D01*
X120113020Y-84827726D01*
X120177169Y-84758041D01*
X120204419Y-84738222D01*
X120200074Y-84751254D01*
X120214985Y-84745910D01*
X120278882Y-84688128D01*
X120382453Y-84586867D01*
X120516383Y-84451086D01*
X120574149Y-84391421D01*
X120828339Y-84126836D01*
X121027455Y-83917621D01*
X121175854Y-83758844D01*
X121216098Y-83714167D01*
X121200333Y-83714167D01*
X121179166Y-83735334D01*
X121158000Y-83714167D01*
X121179166Y-83693000D01*
X121200333Y-83714167D01*
X121216098Y-83714167D01*
X121277891Y-83645570D01*
X121337924Y-83572866D01*
X121360308Y-83535800D01*
X121349401Y-83529439D01*
X121326554Y-83539415D01*
X121304509Y-83543777D01*
X121337916Y-83511556D01*
X121397135Y-83443674D01*
X121412000Y-83402583D01*
X121437525Y-83359434D01*
X121517703Y-83370405D01*
X121627153Y-83419636D01*
X121705376Y-83473801D01*
X121730590Y-83520411D01*
X121728685Y-83524985D01*
X121737943Y-83546299D01*
X121776579Y-83537155D01*
X121826140Y-83530027D01*
X121818613Y-83558806D01*
X121822279Y-83602919D01*
X121892799Y-83617553D01*
X121926037Y-83614862D01*
X121972091Y-83638546D01*
X122050019Y-83701296D01*
X122064628Y-83714595D01*
X122146812Y-83786446D01*
X122202511Y-83827485D01*
X122206758Y-83829496D01*
X122227888Y-83869874D01*
X122227424Y-83871393D01*
X122250196Y-83884558D01*
X122287286Y-83874783D01*
X122334652Y-83869092D01*
X122326613Y-83897473D01*
X122330225Y-83941411D01*
X122398967Y-83955913D01*
X122438583Y-83952013D01*
X122469333Y-83978963D01*
X122470333Y-83989334D01*
X122503280Y-84029472D01*
X122518583Y-84031667D01*
X122580959Y-84062399D01*
X122617954Y-84101580D01*
X122665402Y-84146065D01*
X122702748Y-84117007D01*
X122703245Y-84116206D01*
X122713636Y-84080249D01*
X122677957Y-84092300D01*
X122664283Y-84092077D01*
X122708513Y-84050487D01*
X122719838Y-84041149D01*
X122782912Y-83971361D01*
X122783635Y-83968167D01*
X122766666Y-83968167D01*
X122745500Y-83989334D01*
X122724333Y-83968167D01*
X122745500Y-83947000D01*
X122766666Y-83968167D01*
X122783635Y-83968167D01*
X122795273Y-83916797D01*
X122794582Y-83915587D01*
X122804109Y-83860798D01*
X122861422Y-83780031D01*
X122878933Y-83761612D01*
X122943181Y-83690725D01*
X122964705Y-83652708D01*
X122961290Y-83650667D01*
X122965787Y-83624532D01*
X123015967Y-83561311D01*
X123019017Y-83558018D01*
X123082077Y-83465875D01*
X123105333Y-83388684D01*
X123125824Y-83324370D01*
X123150165Y-83312000D01*
X123175448Y-83286065D01*
X123168833Y-83269667D01*
X123173594Y-83230720D01*
X123190000Y-83227334D01*
X123217606Y-83201546D01*
X123211167Y-83185000D01*
X123214523Y-83145991D01*
X123229835Y-83142667D01*
X123269594Y-83108418D01*
X123274666Y-83079167D01*
X123297525Y-83022831D01*
X123317000Y-83015667D01*
X123354233Y-82991813D01*
X123354320Y-82983917D01*
X123359612Y-82920417D01*
X123396375Y-82738002D01*
X123421348Y-82693991D01*
X123443515Y-82697867D01*
X123466879Y-82690696D01*
X123457488Y-82651088D01*
X123451009Y-82601902D01*
X123470158Y-82603504D01*
X123502707Y-82587038D01*
X123519702Y-82519853D01*
X123552737Y-82416505D01*
X123599061Y-82359693D01*
X123626816Y-82317167D01*
X123613333Y-82317167D01*
X123592166Y-82338334D01*
X123571000Y-82317167D01*
X123592166Y-82296000D01*
X123613333Y-82317167D01*
X123626816Y-82317167D01*
X123646940Y-82286334D01*
X123643177Y-82239847D01*
X123647312Y-82154792D01*
X123671955Y-82116426D01*
X123714243Y-82031387D01*
X123716143Y-81987572D01*
X123735048Y-81898897D01*
X123769265Y-81849783D01*
X123811917Y-81773995D01*
X123811138Y-81728272D01*
X123816534Y-81652668D01*
X123851761Y-81581193D01*
X123888530Y-81515430D01*
X123885717Y-81491667D01*
X123881648Y-81465825D01*
X123899161Y-81438750D01*
X123926464Y-81357425D01*
X123925384Y-81288006D01*
X123927092Y-81221608D01*
X123951235Y-81216027D01*
X123975549Y-81200113D01*
X123973453Y-81114170D01*
X123971720Y-81102188D01*
X123962008Y-81019029D01*
X123972016Y-81012502D01*
X123990443Y-81047167D01*
X124014911Y-81085021D01*
X124024519Y-81054056D01*
X124023002Y-80960976D01*
X124013600Y-80852605D01*
X123986733Y-80807328D01*
X123925039Y-80803570D01*
X123899083Y-80807031D01*
X123808622Y-80804024D01*
X123782666Y-80772276D01*
X123752184Y-80739563D01*
X123720522Y-80744455D01*
X123653647Y-80746000D01*
X123635673Y-80731566D01*
X123581014Y-80707691D01*
X123507318Y-80706426D01*
X123428290Y-80700968D01*
X123401666Y-80676220D01*
X123365600Y-80653741D01*
X123274711Y-80659813D01*
X123272562Y-80660238D01*
X123185224Y-80669461D01*
X123169135Y-80645786D01*
X123173673Y-80637169D01*
X123174925Y-80606360D01*
X123129624Y-80616777D01*
X123042339Y-80626044D01*
X123006263Y-80614036D01*
X122921939Y-80582944D01*
X122883083Y-80576857D01*
X122808202Y-80566381D01*
X122787833Y-80560334D01*
X122731038Y-80546099D01*
X122713750Y-80543737D01*
X122685256Y-80532385D01*
X122671198Y-80496080D01*
X122671224Y-80419230D01*
X122684981Y-80286246D01*
X122704544Y-80137000D01*
X122717057Y-79995095D01*
X122726153Y-79791923D01*
X122731849Y-79546889D01*
X122734164Y-79279401D01*
X122733113Y-79008865D01*
X122728714Y-78754685D01*
X122720984Y-78536269D01*
X122709940Y-78373022D01*
X122702940Y-78316667D01*
X122676681Y-78139727D01*
X122668751Y-78030283D01*
X122679603Y-77973074D01*
X122709688Y-77952839D01*
X122713750Y-77952264D01*
X122778758Y-77939211D01*
X122787833Y-77935667D01*
X122843342Y-77922010D01*
X122883083Y-77916136D01*
X122988630Y-77890700D01*
X123029223Y-77875343D01*
X123115773Y-77863355D01*
X123152180Y-77874956D01*
X123183419Y-77881943D01*
X123174425Y-77860049D01*
X123183724Y-77832409D01*
X123267131Y-77833893D01*
X123301466Y-77838948D01*
X123402432Y-77848735D01*
X123432826Y-77831376D01*
X123426025Y-77813831D01*
X123427185Y-77779948D01*
X123500001Y-77782509D01*
X123500510Y-77782601D01*
X123589470Y-77788468D01*
X123630833Y-77777056D01*
X123689767Y-77753116D01*
X123796879Y-77731272D01*
X123915808Y-77718307D01*
X123952000Y-77717130D01*
X123997550Y-77686090D01*
X124020048Y-77586420D01*
X124023002Y-77540454D01*
X124024069Y-77438466D01*
X124013244Y-77412698D01*
X123990666Y-77448834D01*
X123964238Y-77497159D01*
X123962450Y-77486199D01*
X123770025Y-77486199D01*
X123766321Y-77500457D01*
X123718742Y-77516332D01*
X123603064Y-77544672D01*
X123434353Y-77582072D01*
X123227675Y-77625123D01*
X123117338Y-77647203D01*
X122895308Y-77691433D01*
X122701561Y-77730741D01*
X122551883Y-77761871D01*
X122462061Y-77781564D01*
X122444978Y-77785954D01*
X122423632Y-77825016D01*
X122429297Y-77926056D01*
X122455961Y-78069468D01*
X122495481Y-78317593D01*
X122523655Y-78625934D01*
X122539969Y-78970738D01*
X122543905Y-79328250D01*
X122534949Y-79674716D01*
X122512585Y-79986381D01*
X122499944Y-80094667D01*
X122473038Y-80292997D01*
X122448963Y-80463428D01*
X122430508Y-80586646D01*
X122420996Y-80641272D01*
X122435888Y-80669004D01*
X122499252Y-80699626D01*
X122619821Y-80735744D01*
X122806325Y-80779965D01*
X123067495Y-80834892D01*
X123074620Y-80836337D01*
X123301823Y-80883479D01*
X123498838Y-80926462D01*
X123651136Y-80961951D01*
X123744186Y-80986605D01*
X123765936Y-80995158D01*
X123766992Y-81046580D01*
X123745118Y-81162253D01*
X123704776Y-81326316D01*
X123650427Y-81522908D01*
X123586533Y-81736167D01*
X123517557Y-81950231D01*
X123447961Y-82149239D01*
X123421430Y-82219824D01*
X123315656Y-82476697D01*
X123188197Y-82758425D01*
X123048722Y-83045962D01*
X122906903Y-83320266D01*
X122772409Y-83562294D01*
X122654913Y-83753001D01*
X122610786Y-83816158D01*
X122572975Y-83800464D01*
X122478243Y-83745376D01*
X122339779Y-83658969D01*
X122170773Y-83549314D01*
X122121397Y-83516622D01*
X121934666Y-83392586D01*
X121764075Y-83279486D01*
X121626825Y-83188712D01*
X121540117Y-83131654D01*
X121532127Y-83126443D01*
X121419421Y-83053125D01*
X121282910Y-83251538D01*
X120975576Y-83654936D01*
X120609922Y-84063078D01*
X120207930Y-84453871D01*
X119791582Y-84805222D01*
X119581083Y-84961906D01*
X119473231Y-85040681D01*
X119400248Y-85098529D01*
X119380000Y-85119461D01*
X119402333Y-85157893D01*
X119464098Y-85254521D01*
X119557445Y-85397304D01*
X119674522Y-85574206D01*
X119764277Y-85708730D01*
X119892033Y-85901389D01*
X120000101Y-86067763D01*
X120080956Y-86195989D01*
X120127075Y-86274203D01*
X120134694Y-86292821D01*
X119862307Y-86468211D01*
X119526977Y-86652674D01*
X119148496Y-86837299D01*
X118746655Y-87013175D01*
X118341247Y-87171391D01*
X117952063Y-87303037D01*
X117778079Y-87353830D01*
X117579537Y-87407586D01*
X117447598Y-87439951D01*
X117367399Y-87452583D01*
X117324077Y-87447145D01*
X117302767Y-87425295D01*
X117295359Y-87407750D01*
X117280855Y-87349315D01*
X117253825Y-87223677D01*
X117217577Y-87046807D01*
X117175415Y-86834675D01*
X117154263Y-86726126D01*
X117032532Y-86097419D01*
X116862183Y-86122244D01*
X116364760Y-86181246D01*
X115867420Y-86214954D01*
X115388132Y-86223286D01*
X114944866Y-86206158D01*
X114555591Y-86163490D01*
X114391467Y-86133546D01*
X114229280Y-86104621D01*
X114137033Y-86102912D01*
X114105917Y-86122978D01*
X114091912Y-86178964D01*
X114064741Y-86302306D01*
X114027748Y-86477317D01*
X113984276Y-86688311D01*
X113961418Y-86801087D01*
X113916181Y-87021207D01*
X113875683Y-87210265D01*
X113843223Y-87353470D01*
X113822098Y-87436032D01*
X113816708Y-87450069D01*
X113767564Y-87448979D01*
X113654296Y-87425340D01*
X113492965Y-87383785D01*
X113299632Y-87328950D01*
X113090357Y-87265471D01*
X112881202Y-87197981D01*
X112688226Y-87131115D01*
X112607100Y-87100999D01*
X112344959Y-86993926D01*
X112058805Y-86865204D01*
X111767778Y-86724517D01*
X111512863Y-86592834D01*
X111125000Y-86592834D01*
X111103833Y-86614000D01*
X111082666Y-86592834D01*
X111103833Y-86571667D01*
X111125000Y-86592834D01*
X111512863Y-86592834D01*
X111491017Y-86581549D01*
X111247660Y-86445983D01*
X111211451Y-86423500D01*
X110871000Y-86423500D01*
X110849833Y-86444667D01*
X110828666Y-86423500D01*
X110849833Y-86402334D01*
X110871000Y-86423500D01*
X111211451Y-86423500D01*
X111056848Y-86327504D01*
X111001842Y-86288786D01*
X111017536Y-86250975D01*
X111072624Y-86156243D01*
X111159031Y-86017779D01*
X111268686Y-85848774D01*
X111301378Y-85799398D01*
X111425243Y-85612927D01*
X111538006Y-85442849D01*
X111628338Y-85306273D01*
X111684910Y-85220309D01*
X111690107Y-85212339D01*
X111761976Y-85101845D01*
X111601330Y-84984167D01*
X111294333Y-84984167D01*
X111273166Y-85005334D01*
X111252000Y-84984167D01*
X111273166Y-84963000D01*
X111294333Y-84984167D01*
X111601330Y-84984167D01*
X111510882Y-84917911D01*
X111156954Y-84917911D01*
X111151163Y-84920667D01*
X111112531Y-84890865D01*
X111103833Y-84878334D01*
X111093046Y-84838756D01*
X111098836Y-84836000D01*
X111137469Y-84865802D01*
X111146166Y-84878334D01*
X111156954Y-84917911D01*
X111510882Y-84917911D01*
X111475238Y-84891801D01*
X110889204Y-84414613D01*
X110358413Y-83884244D01*
X110235371Y-83732577D01*
X109971621Y-83732577D01*
X109965830Y-83735334D01*
X109927197Y-83705532D01*
X109918500Y-83693000D01*
X109907712Y-83653423D01*
X109913503Y-83650667D01*
X109952136Y-83680469D01*
X109960833Y-83693000D01*
X109971621Y-83732577D01*
X110235371Y-83732577D01*
X109894578Y-83312505D01*
X109856276Y-83259084D01*
X109777418Y-83151251D01*
X109719507Y-83078270D01*
X109698539Y-83058000D01*
X109660111Y-83080335D01*
X109563470Y-83142112D01*
X109420636Y-83235493D01*
X109243630Y-83352637D01*
X109107656Y-83443357D01*
X108882809Y-83591575D01*
X108717873Y-83694397D01*
X108604378Y-83756353D01*
X108533857Y-83781972D01*
X108497838Y-83775785D01*
X108494231Y-83771441D01*
X108381691Y-83588589D01*
X108249991Y-83356772D01*
X108114358Y-83104391D01*
X107990018Y-82859850D01*
X107892197Y-82651552D01*
X107884831Y-82634667D01*
X107772317Y-82362048D01*
X107747353Y-82296000D01*
X107569000Y-82296000D01*
X107553511Y-82330845D01*
X107540778Y-82324222D01*
X107535711Y-82273983D01*
X107540778Y-82267778D01*
X107565945Y-82273589D01*
X107569000Y-82296000D01*
X107747353Y-82296000D01*
X107667504Y-82084751D01*
X107579342Y-81830334D01*
X107399666Y-81830334D01*
X107384177Y-81865179D01*
X107371444Y-81858556D01*
X107366378Y-81808316D01*
X107371444Y-81802111D01*
X107396611Y-81807922D01*
X107399666Y-81830334D01*
X107579342Y-81830334D01*
X107573894Y-81814613D01*
X107494991Y-81563471D01*
X107434299Y-81343163D01*
X107395319Y-81165527D01*
X107381556Y-81042400D01*
X107396512Y-80985620D01*
X107396768Y-80985458D01*
X107452108Y-80968209D01*
X107575063Y-80938935D01*
X107750006Y-80901080D01*
X107961313Y-80858091D01*
X108076663Y-80835565D01*
X108296079Y-80790991D01*
X108482690Y-80748661D01*
X108622210Y-80712168D01*
X108700353Y-80685106D01*
X108712000Y-80675721D01*
X108706711Y-80621387D01*
X108692295Y-80500765D01*
X108670929Y-80331475D01*
X108644791Y-80131139D01*
X108643717Y-80123033D01*
X108611989Y-79788603D01*
X108597326Y-79413056D01*
X108599200Y-79022682D01*
X108617082Y-78643769D01*
X108650444Y-78302607D01*
X108684607Y-78090803D01*
X108713315Y-77922331D01*
X108716918Y-77824257D01*
X108695787Y-77786237D01*
X108695461Y-77786128D01*
X108638511Y-77772822D01*
X108515107Y-77747012D01*
X108341952Y-77712102D01*
X108135752Y-77671497D01*
X108077000Y-77660080D01*
X107816528Y-77609778D01*
X107627919Y-77572108D01*
X107500139Y-77542484D01*
X107422153Y-77516322D01*
X107382926Y-77489037D01*
X107371423Y-77456046D01*
X107376611Y-77412762D01*
X107384533Y-77372384D01*
X107440641Y-77135219D01*
X107531404Y-76842561D01*
X107649417Y-76512397D01*
X107787272Y-76162713D01*
X107937565Y-75811497D01*
X108092890Y-75476735D01*
X108245839Y-75176414D01*
X108389007Y-74928521D01*
X108394122Y-74920429D01*
X108482059Y-74781834D01*
X108246333Y-74781834D01*
X108225166Y-74803000D01*
X108204000Y-74781834D01*
X108225166Y-74760667D01*
X108246333Y-74781834D01*
X108482059Y-74781834D01*
X108547926Y-74678024D01*
X109115678Y-75058012D01*
X109308049Y-75186080D01*
X109474701Y-75295731D01*
X109603467Y-75379063D01*
X109682179Y-75428173D01*
X109700779Y-75438000D01*
X109731174Y-75405943D01*
X109799875Y-75319224D01*
X109895903Y-75192026D01*
X109979534Y-75078167D01*
X109770333Y-75078167D01*
X109749166Y-75099334D01*
X109728000Y-75078167D01*
X109749166Y-75057000D01*
X109770333Y-75078167D01*
X109979534Y-75078167D01*
X109982215Y-75074517D01*
X110221455Y-74772998D01*
X110221632Y-74772801D01*
X109975176Y-74772801D01*
X109964876Y-74796459D01*
X109922250Y-74841906D01*
X109897745Y-74832583D01*
X109897333Y-74826665D01*
X109927402Y-74790859D01*
X109946207Y-74777791D01*
X109975176Y-74772801D01*
X110221632Y-74772801D01*
X110509236Y-74454343D01*
X110821609Y-74142736D01*
X111134626Y-73862359D01*
X111358238Y-73685022D01*
X111489761Y-73587468D01*
X111160509Y-73587468D01*
X111150209Y-73611126D01*
X111107584Y-73656573D01*
X111083079Y-73647250D01*
X111082666Y-73641332D01*
X111112735Y-73605526D01*
X111131541Y-73592458D01*
X111160509Y-73587468D01*
X111489761Y-73587468D01*
X111504991Y-73576172D01*
X111626334Y-73485561D01*
X111659544Y-73460468D01*
X111329843Y-73460468D01*
X111319542Y-73484126D01*
X111276917Y-73529573D01*
X111252412Y-73520250D01*
X111252000Y-73514332D01*
X111282068Y-73478526D01*
X111300874Y-73465458D01*
X111329843Y-73460468D01*
X111659544Y-73460468D01*
X111705975Y-73425387D01*
X111727317Y-73408672D01*
X111715433Y-73366568D01*
X111662821Y-73266947D01*
X111576683Y-73122083D01*
X111464222Y-72944251D01*
X111377317Y-72812150D01*
X110996501Y-72241834D01*
X111105636Y-72153541D01*
X111209398Y-72083302D01*
X111301026Y-72030167D01*
X110955666Y-72030167D01*
X110934500Y-72051334D01*
X110913333Y-72030167D01*
X110934500Y-72009000D01*
X110955666Y-72030167D01*
X111301026Y-72030167D01*
X111373979Y-71987862D01*
X111582532Y-71875733D01*
X111611718Y-71860834D01*
X111209666Y-71860834D01*
X111188500Y-71882000D01*
X111167333Y-71860834D01*
X111188500Y-71839667D01*
X111209666Y-71860834D01*
X111611718Y-71860834D01*
X111818212Y-71755426D01*
X112064172Y-71635455D01*
X112303566Y-71524331D01*
X112519548Y-71430567D01*
X112602986Y-71396939D01*
X112791437Y-71327479D01*
X113001001Y-71256932D01*
X113215804Y-71189824D01*
X113419972Y-71130683D01*
X113597633Y-71084037D01*
X113732912Y-71054412D01*
X113780284Y-71049445D01*
X113015889Y-71049445D01*
X113010078Y-71074612D01*
X112987666Y-71077667D01*
X112952821Y-71062178D01*
X112959444Y-71049445D01*
X113009684Y-71044378D01*
X113015889Y-71049445D01*
X113780284Y-71049445D01*
X113809937Y-71046336D01*
X113820483Y-71049706D01*
X113835253Y-71096306D01*
X113862589Y-71211579D01*
X113899306Y-71381009D01*
X113942218Y-71590080D01*
X113970965Y-71735438D01*
X114100615Y-72400339D01*
X114295557Y-72375508D01*
X114429523Y-72358376D01*
X114613654Y-72334743D01*
X114814144Y-72308948D01*
X114871500Y-72301557D01*
X115122712Y-72280708D01*
X115429649Y-72272859D01*
X115765509Y-72277123D01*
X116103491Y-72292617D01*
X116416793Y-72318455D01*
X116678613Y-72353754D01*
X116727197Y-72362811D01*
X116895636Y-72391403D01*
X116993691Y-72394957D01*
X117031746Y-72373838D01*
X117031872Y-72373461D01*
X117045178Y-72316511D01*
X117070988Y-72193107D01*
X117105898Y-72019953D01*
X117146503Y-71813753D01*
X117157920Y-71755000D01*
X117208596Y-71492700D01*
X117246633Y-71302406D01*
X117276557Y-71173217D01*
X117302896Y-71094229D01*
X117330175Y-71054541D01*
X117362923Y-71043251D01*
X117405666Y-71049457D01*
X117446915Y-71059016D01*
X117901159Y-71177512D01*
X118390993Y-71341787D01*
X118890892Y-71541108D01*
X119375332Y-71764742D01*
X119818789Y-72001957D01*
X120093440Y-72171856D01*
X120105190Y-72202308D01*
X120086183Y-72265343D01*
X120031862Y-72369483D01*
X119937670Y-72523256D01*
X119799052Y-72735185D01*
X119765357Y-72785657D01*
X119636369Y-72979268D01*
X119525729Y-73147032D01*
X119441277Y-73276922D01*
X119390853Y-73356913D01*
X119380000Y-73376731D01*
X119411723Y-73406685D01*
X119497691Y-73476097D01*
X119624095Y-73574051D01*
X119750416Y-73669646D01*
X120254345Y-74088274D01*
X120732100Y-74564897D01*
X121112178Y-75014667D01*
X121235545Y-75169441D01*
X121342238Y-75294744D01*
X121420951Y-75377873D01*
X121460378Y-75406129D01*
X121460611Y-75406071D01*
X121507015Y-75379960D01*
X121610711Y-75314971D01*
X121758718Y-75219444D01*
X121938050Y-75101720D01*
X122047817Y-75028877D01*
X122165981Y-74951167D01*
X121835333Y-74951167D01*
X121814166Y-74972334D01*
X121793000Y-74951167D01*
X121814166Y-74930000D01*
X121835333Y-74951167D01*
X122165981Y-74951167D01*
X122236581Y-74904738D01*
X122399201Y-74800844D01*
X122523426Y-74724777D01*
X122597010Y-74684118D01*
X122611709Y-74679807D01*
X122691975Y-74797975D01*
X122796716Y-74977508D01*
X122917511Y-75201754D01*
X123045934Y-75454066D01*
X123173563Y-75717793D01*
X123291975Y-75976287D01*
X123392745Y-76212897D01*
X123412946Y-76263500D01*
X123482579Y-76451375D01*
X123553528Y-76661186D01*
X123621281Y-76877132D01*
X123681321Y-77083409D01*
X123729135Y-77264214D01*
X123760208Y-77403745D01*
X123770025Y-77486199D01*
X123962450Y-77486199D01*
X123960118Y-77471909D01*
X123966710Y-77417084D01*
X123967310Y-77333140D01*
X123947458Y-77300667D01*
X123927929Y-77270000D01*
X123933841Y-77244594D01*
X123931278Y-77174663D01*
X123900182Y-77061570D01*
X123877165Y-77001177D01*
X123833565Y-76874969D01*
X123813499Y-76771898D01*
X123814607Y-76742260D01*
X123805009Y-76665667D01*
X123782666Y-76665667D01*
X123767177Y-76700512D01*
X123754444Y-76693889D01*
X123749378Y-76643649D01*
X123754444Y-76637445D01*
X123779611Y-76643256D01*
X123782666Y-76665667D01*
X123805009Y-76665667D01*
X123803940Y-76657144D01*
X123759252Y-76562344D01*
X123718342Y-76487584D01*
X123715997Y-76454127D01*
X123717322Y-76454000D01*
X123716032Y-76429836D01*
X123683625Y-76391245D01*
X123641051Y-76296989D01*
X123644937Y-76236458D01*
X123651998Y-76173115D01*
X123617256Y-76176485D01*
X123612808Y-76179158D01*
X123574427Y-76188717D01*
X123582456Y-76146540D01*
X123575924Y-76065938D01*
X123547783Y-76028965D01*
X123507680Y-75969895D01*
X123510464Y-75941204D01*
X123501642Y-75906384D01*
X123485304Y-75903667D01*
X123451621Y-75873392D01*
X123454457Y-75851128D01*
X123442773Y-75780245D01*
X123415263Y-75741882D01*
X123378777Y-75676996D01*
X123382609Y-75646254D01*
X123374433Y-75610347D01*
X123357302Y-75607334D01*
X123327311Y-75576483D01*
X123333152Y-75541635D01*
X123336111Y-75497935D01*
X123316515Y-75501800D01*
X123283567Y-75488583D01*
X123274666Y-75440499D01*
X123256387Y-75370380D01*
X123229835Y-75353334D01*
X123204552Y-75327399D01*
X123211166Y-75311000D01*
X123206406Y-75272053D01*
X123190000Y-75268667D01*
X123162394Y-75242879D01*
X123168833Y-75226334D01*
X123164072Y-75187387D01*
X123147667Y-75184000D01*
X123119707Y-75158373D01*
X123125803Y-75142795D01*
X123116724Y-75088231D01*
X123066970Y-75029410D01*
X123011524Y-74964293D01*
X123004167Y-74922449D01*
X122993811Y-74889972D01*
X122978333Y-74887667D01*
X122949563Y-74862934D01*
X122955057Y-74848746D01*
X122950343Y-74789779D01*
X122925257Y-74753496D01*
X122863903Y-74678214D01*
X122794013Y-74577973D01*
X122734676Y-74482016D01*
X122704983Y-74419589D01*
X122704267Y-74414945D01*
X122697606Y-74400834D01*
X122682000Y-74400834D01*
X122660833Y-74422000D01*
X122639666Y-74400834D01*
X122660833Y-74379667D01*
X122682000Y-74400834D01*
X122697606Y-74400834D01*
X122678118Y-74359554D01*
X122632236Y-74367047D01*
X122614967Y-74394774D01*
X122562815Y-74454720D01*
X122529304Y-74464334D01*
X122475960Y-74490110D01*
X122470333Y-74509165D01*
X122444765Y-74535223D01*
X122430562Y-74529417D01*
X122379182Y-74541308D01*
X122301945Y-74601690D01*
X122282395Y-74621736D01*
X122213727Y-74688279D01*
X122176310Y-74709926D01*
X122174000Y-74705649D01*
X122148051Y-74701120D01*
X122109031Y-74727248D01*
X122006150Y-74811569D01*
X121942377Y-74855845D01*
X121893370Y-74876091D01*
X121876659Y-74880149D01*
X121806153Y-74920631D01*
X121729500Y-74994800D01*
X121608933Y-75096579D01*
X121489874Y-75120586D01*
X121383384Y-75065824D01*
X121351851Y-75028870D01*
X121311221Y-74961931D01*
X121321200Y-74948050D01*
X121329905Y-74952756D01*
X121346919Y-74951028D01*
X121317663Y-74901335D01*
X121253080Y-74818121D01*
X121221520Y-74781834D01*
X121200333Y-74781834D01*
X121179166Y-74803000D01*
X121158000Y-74781834D01*
X121179166Y-74760667D01*
X121200333Y-74781834D01*
X121221520Y-74781834D01*
X121164115Y-74715831D01*
X121094084Y-74641525D01*
X121017820Y-74562587D01*
X120901563Y-74441332D01*
X120763597Y-74296860D01*
X120671129Y-74199750D01*
X120539783Y-74065362D01*
X120427730Y-73957609D01*
X120348726Y-73889309D01*
X120318996Y-73871667D01*
X120277753Y-73836266D01*
X120255620Y-73782741D01*
X120220518Y-73723866D01*
X120187183Y-73721739D01*
X120146027Y-73723749D01*
X120142000Y-73709856D01*
X120111054Y-73662487D01*
X120086014Y-73638834D01*
X120057333Y-73638834D01*
X120036166Y-73660000D01*
X120015000Y-73638834D01*
X120036166Y-73617667D01*
X120057333Y-73638834D01*
X120086014Y-73638834D01*
X120032781Y-73588550D01*
X119986588Y-73551511D01*
X119903321Y-73493130D01*
X119862432Y-73475039D01*
X119864018Y-73486111D01*
X119874763Y-73517079D01*
X119830647Y-73497644D01*
X119810501Y-73485319D01*
X119751087Y-73433730D01*
X119742328Y-73401963D01*
X119724958Y-73365160D01*
X119686673Y-73344089D01*
X119635334Y-73317945D01*
X119659228Y-73290067D01*
X119686916Y-73274050D01*
X119748549Y-73212682D01*
X119761000Y-73172553D01*
X119794610Y-73107545D01*
X119848950Y-73065576D01*
X119910730Y-73004536D01*
X119910765Y-73003834D01*
X119888000Y-73003834D01*
X119866833Y-73025000D01*
X119845666Y-73003834D01*
X119866833Y-72982667D01*
X119888000Y-73003834D01*
X119910765Y-73003834D01*
X119913164Y-72956651D01*
X119924341Y-72890601D01*
X119951970Y-72870795D01*
X119995820Y-72833050D01*
X119993833Y-72813334D01*
X120007591Y-72772231D01*
X120036410Y-72755598D01*
X120092559Y-72699793D01*
X120099666Y-72667985D01*
X120133365Y-72600186D01*
X120187617Y-72557576D01*
X120247494Y-72500544D01*
X120248127Y-72495834D01*
X120226666Y-72495834D01*
X120205500Y-72517000D01*
X120184333Y-72495834D01*
X120205500Y-72474667D01*
X120226666Y-72495834D01*
X120248127Y-72495834D01*
X120253790Y-72453757D01*
X120266908Y-72392247D01*
X120295523Y-72372636D01*
X120337226Y-72330586D01*
X120332685Y-72305632D01*
X120335758Y-72266408D01*
X120351168Y-72263000D01*
X120390499Y-72228580D01*
X120396000Y-72197002D01*
X120418059Y-72154048D01*
X120444874Y-72161209D01*
X120473796Y-72166256D01*
X120463116Y-72141850D01*
X120412453Y-72111024D01*
X120393075Y-72116641D01*
X120356044Y-72114707D01*
X120353666Y-72103319D01*
X120319953Y-72059470D01*
X120238721Y-72006333D01*
X120237250Y-72005570D01*
X120125622Y-71938349D01*
X120045651Y-71877830D01*
X120019207Y-71860834D01*
X119972666Y-71860834D01*
X119951500Y-71882000D01*
X119930333Y-71860834D01*
X119951500Y-71839667D01*
X119972666Y-71860834D01*
X120019207Y-71860834D01*
X119956697Y-71820658D01*
X119832016Y-71765047D01*
X119803638Y-71755101D01*
X119705827Y-71711807D01*
X119661967Y-71669385D01*
X119663514Y-71656827D01*
X119658067Y-71631731D01*
X119619778Y-71640644D01*
X119561205Y-71643712D01*
X119549333Y-71624173D01*
X119523320Y-71600129D01*
X119507000Y-71606833D01*
X119467990Y-71603477D01*
X119464666Y-71588165D01*
X119430418Y-71548406D01*
X119401166Y-71543334D01*
X119344892Y-71516756D01*
X119337666Y-71493945D01*
X119320674Y-71465481D01*
X119309812Y-71472411D01*
X119258909Y-71473598D01*
X119225145Y-71453116D01*
X119177661Y-71427005D01*
X119168333Y-71435340D01*
X119143975Y-71433607D01*
X119101420Y-71397802D01*
X119033553Y-71354327D01*
X118995587Y-71354943D01*
X118959680Y-71346766D01*
X118956666Y-71329636D01*
X118926203Y-71298592D01*
X118895868Y-71303606D01*
X118823297Y-71295668D01*
X118730452Y-71244567D01*
X118725290Y-71240583D01*
X118633044Y-71187284D01*
X118559279Y-71175952D01*
X118556350Y-71176932D01*
X118483163Y-71167605D01*
X118445729Y-71137627D01*
X118393570Y-71096242D01*
X118371930Y-71097959D01*
X118324090Y-71095029D01*
X118261546Y-71063607D01*
X118248027Y-71056500D01*
X118194666Y-71056500D01*
X118173500Y-71077667D01*
X118152333Y-71056500D01*
X118173500Y-71035334D01*
X118194666Y-71056500D01*
X118248027Y-71056500D01*
X118169055Y-71014985D01*
X118079629Y-70983849D01*
X118017734Y-70976424D01*
X118007833Y-70998933D01*
X118007920Y-70999073D01*
X117991405Y-71006605D01*
X117920493Y-70978233D01*
X117878487Y-70956793D01*
X117753925Y-70905964D01*
X117640528Y-70884624D01*
X117620675Y-70885347D01*
X117542647Y-70882842D01*
X117517333Y-70864708D01*
X117502886Y-70844834D01*
X117348000Y-70844834D01*
X117326833Y-70866000D01*
X117305666Y-70844834D01*
X117326833Y-70823667D01*
X117348000Y-70844834D01*
X117502886Y-70844834D01*
X117482396Y-70816647D01*
X117396479Y-70795723D01*
X117287920Y-70799462D01*
X117185062Y-70825394D01*
X117116243Y-70871045D01*
X117103418Y-70900815D01*
X117076459Y-71059867D01*
X117044989Y-71141167D01*
X117030473Y-71211690D01*
X117032789Y-71300681D01*
X117030345Y-71380158D01*
X117002835Y-71391151D01*
X116973395Y-71405541D01*
X116967794Y-71485637D01*
X116970649Y-71584357D01*
X116966194Y-71638584D01*
X116936395Y-71750790D01*
X116908242Y-71880816D01*
X116887671Y-71997807D01*
X116880617Y-72070907D01*
X116881575Y-72078424D01*
X116858095Y-72120926D01*
X116793188Y-72156816D01*
X116728824Y-72164882D01*
X116718750Y-72160720D01*
X116622801Y-72130668D01*
X116443822Y-72107931D01*
X116181437Y-72092482D01*
X115835272Y-72084296D01*
X115612333Y-72082884D01*
X115303682Y-72084099D01*
X115054930Y-72089741D01*
X114841363Y-72101264D01*
X114638266Y-72120123D01*
X114420924Y-72147772D01*
X114358208Y-72156700D01*
X114285615Y-72145313D01*
X114264548Y-72078775D01*
X114227469Y-71869576D01*
X114142658Y-71660327D01*
X114138765Y-71653209D01*
X114144051Y-71633406D01*
X114158799Y-71640390D01*
X114183448Y-71624738D01*
X114181968Y-71542933D01*
X114181702Y-71541098D01*
X114157791Y-71452911D01*
X114126127Y-71416333D01*
X114103038Y-71381285D01*
X114104444Y-71321084D01*
X114102850Y-71226903D01*
X114085175Y-71181769D01*
X114054431Y-71112261D01*
X114026571Y-71002501D01*
X114024721Y-70992361D01*
X113983603Y-70861933D01*
X113963461Y-70844834D01*
X113834333Y-70844834D01*
X113813166Y-70866000D01*
X113792000Y-70844834D01*
X113813166Y-70823667D01*
X113834333Y-70844834D01*
X113963461Y-70844834D01*
X113907736Y-70797529D01*
X113800085Y-70781982D01*
X113731720Y-70796933D01*
G37*
X113731720Y-70796933D02*
X113732946Y-70830861D01*
X113734998Y-70862651D01*
X113693111Y-70853356D01*
X113634445Y-70848624D01*
X113622666Y-70866000D01*
X113591542Y-70888053D01*
X113558627Y-70881102D01*
X113474320Y-70884351D01*
X113434562Y-70906345D01*
X113350030Y-70943825D01*
X113246059Y-70959816D01*
X113162841Y-70971242D01*
X113136563Y-70993950D01*
X113137349Y-70995453D01*
X113120906Y-71012591D01*
X113076713Y-71006412D01*
X112983645Y-71012969D01*
X112893359Y-71052841D01*
X112811196Y-71092477D01*
X112762037Y-71091926D01*
X112736154Y-71096365D01*
X112733666Y-71114800D01*
X112701414Y-71157765D01*
X112680750Y-71159173D01*
X112530166Y-71166370D01*
X112400684Y-71242082D01*
X112398049Y-71244356D01*
X112307825Y-71296284D01*
X112236460Y-71300662D01*
X112191685Y-71296020D01*
X112201804Y-71327304D01*
X112205284Y-71367526D01*
X112176998Y-71368532D01*
X112087649Y-71372370D01*
X111994977Y-71403675D01*
X111935579Y-71448039D01*
X111929333Y-71466049D01*
X111898256Y-71491482D01*
X111863634Y-71484848D01*
X111819935Y-71481889D01*
X111823800Y-71501485D01*
X111810582Y-71534433D01*
X111762498Y-71543334D01*
X111692379Y-71561613D01*
X111675333Y-71588165D01*
X111649398Y-71613448D01*
X111633000Y-71606833D01*
X111594053Y-71611594D01*
X111590666Y-71628000D01*
X111564879Y-71655606D01*
X111548333Y-71649167D01*
X111509386Y-71653928D01*
X111506000Y-71670333D01*
X111482054Y-71699636D01*
X111468463Y-71694465D01*
X111414573Y-71702896D01*
X111378613Y-71734300D01*
X111299396Y-71788177D01*
X111254799Y-71797334D01*
X111172907Y-71824698D01*
X111092419Y-71882000D01*
X111013527Y-71943295D01*
X110959540Y-71966667D01*
X110906080Y-71998982D01*
X110874391Y-72040750D01*
X110839920Y-72083730D01*
X110829954Y-72074992D01*
X110807389Y-72072341D01*
X110762027Y-72117326D01*
X110723632Y-72158138D01*
X110726235Y-72140043D01*
X110734252Y-72101218D01*
X110710056Y-72109648D01*
X110681170Y-72168315D01*
X110686785Y-72200613D01*
X110726664Y-72242545D01*
X110748436Y-72239092D01*
X110780980Y-72251264D01*
X110786333Y-72281668D01*
X110808435Y-72339590D01*
X110828666Y-72347667D01*
X110865900Y-72371521D01*
X110865987Y-72379417D01*
X110866348Y-72465552D01*
X110893799Y-72502283D01*
X110910285Y-72497717D01*
X110951688Y-72511840D01*
X110977071Y-72560083D01*
X111024770Y-72651159D01*
X111102244Y-72752088D01*
X111105603Y-72755744D01*
X111172153Y-72835516D01*
X111202889Y-72888202D01*
X111203138Y-72891963D01*
X111206999Y-72980233D01*
X111242775Y-73006317D01*
X111259194Y-72999387D01*
X111291032Y-72997341D01*
X111281884Y-73038714D01*
X111279849Y-73093311D01*
X111304375Y-73098576D01*
X111348500Y-73127682D01*
X111395126Y-73212425D01*
X111404089Y-73236667D01*
X111432617Y-73335257D01*
X111424503Y-73380739D01*
X111376326Y-73398109D01*
X111309811Y-73432990D01*
X111205587Y-73513020D01*
X111084347Y-73622053D01*
X111064330Y-73641526D01*
X110947899Y-73750959D01*
X110851507Y-73832182D01*
X110792893Y-73870461D01*
X110787241Y-73871667D01*
X110753819Y-73903311D01*
X110754583Y-73922659D01*
X110736678Y-73971079D01*
X110720734Y-73975576D01*
X110670159Y-74005793D01*
X110581621Y-74082411D01*
X110472475Y-74187734D01*
X110360076Y-74304069D01*
X110261780Y-74413719D01*
X110194942Y-74498989D01*
X110177886Y-74529062D01*
X110135851Y-74573844D01*
X110109000Y-74570167D01*
X110061763Y-74580802D01*
X110036676Y-74620400D01*
X109980147Y-74709196D01*
X109928941Y-74760722D01*
X109862711Y-74836331D01*
X109840625Y-74887722D01*
X109812949Y-74948609D01*
X109756764Y-75025679D01*
X109690583Y-75098915D01*
X109632917Y-75148304D01*
X109602277Y-75153832D01*
X109601000Y-75146801D01*
X109565847Y-75096626D01*
X109495166Y-75057000D01*
X109416688Y-75013303D01*
X109389333Y-74974871D01*
X109373674Y-74951167D01*
X109347000Y-74951167D01*
X109325833Y-74972334D01*
X109304666Y-74951167D01*
X109325833Y-74930000D01*
X109347000Y-74951167D01*
X109373674Y-74951167D01*
X109356171Y-74924672D01*
X109299558Y-74884933D01*
X109237128Y-74857659D01*
X109232231Y-74879341D01*
X109239197Y-74894027D01*
X109239916Y-74909912D01*
X109201972Y-74868992D01*
X109152532Y-74821466D01*
X109134046Y-74826659D01*
X109116406Y-74829483D01*
X109089609Y-74792417D01*
X109027199Y-74730928D01*
X108986552Y-74718334D01*
X108921544Y-74684723D01*
X108879576Y-74630383D01*
X108861843Y-74612500D01*
X108839000Y-74612500D01*
X108817833Y-74633667D01*
X108796666Y-74612500D01*
X108817833Y-74591334D01*
X108839000Y-74612500D01*
X108861843Y-74612500D01*
X108818060Y-74568348D01*
X108770054Y-74566399D01*
X108728339Y-74568652D01*
X108731358Y-74551927D01*
X108711621Y-74515697D01*
X108632930Y-74473943D01*
X108606166Y-74464334D01*
X108512500Y-74420502D01*
X108482521Y-74376824D01*
X108485318Y-74369714D01*
X108486934Y-74344463D01*
X108463850Y-74354884D01*
X108433024Y-74405547D01*
X108438641Y-74424925D01*
X108434099Y-74461857D01*
X108421018Y-74464334D01*
X108377380Y-74499627D01*
X108349136Y-74559584D01*
X108296686Y-74656714D01*
X108216900Y-74750270D01*
X108153718Y-74825491D01*
X108136834Y-74880944D01*
X108138381Y-74884238D01*
X108131369Y-74930729D01*
X108119177Y-74937108D01*
X108079301Y-74985211D01*
X108055833Y-75057000D01*
X108025215Y-75142324D01*
X107992489Y-75176893D01*
X107968081Y-75217102D01*
X107973401Y-75229949D01*
X107965584Y-75265994D01*
X107950000Y-75268667D01*
X107922394Y-75294454D01*
X107928833Y-75311000D01*
X107925477Y-75350010D01*
X107910165Y-75353333D01*
X107870406Y-75387582D01*
X107865333Y-75416834D01*
X107838756Y-75473108D01*
X107815944Y-75480333D01*
X107787480Y-75497326D01*
X107794410Y-75508188D01*
X107795597Y-75559091D01*
X107775116Y-75592855D01*
X107749004Y-75640339D01*
X107757340Y-75649667D01*
X107755606Y-75674025D01*
X107719801Y-75716580D01*
X107677446Y-75786333D01*
X107679868Y-75827146D01*
X107680835Y-75885800D01*
X107669673Y-75897817D01*
X107607862Y-75969087D01*
X107561511Y-76064626D01*
X107547044Y-76146713D01*
X107552940Y-76165930D01*
X107556461Y-76192847D01*
X107529762Y-76180747D01*
X107491767Y-76179139D01*
X107491469Y-76231203D01*
X107477367Y-76330871D01*
X107447397Y-76383997D01*
X107413801Y-76438668D01*
X107420518Y-76454000D01*
X107422187Y-76484098D01*
X107384028Y-76557245D01*
X107379561Y-76564155D01*
X107333733Y-76665421D01*
X107326663Y-76748027D01*
X107321603Y-76832607D01*
X107284454Y-76946885D01*
X107273922Y-76969805D01*
X107229796Y-77090734D01*
X107214650Y-77196139D01*
X107215853Y-77209266D01*
X107212950Y-77281058D01*
X107193605Y-77300667D01*
X107173432Y-77335893D01*
X107177639Y-77406500D01*
X107180468Y-77485160D01*
X107161185Y-77512334D01*
X107133083Y-77548429D01*
X107124500Y-77612875D01*
X107132414Y-77671927D01*
X107168463Y-77705818D01*
X107251108Y-77721988D01*
X107398807Y-77727881D01*
X107410250Y-77728072D01*
X107473396Y-77752818D01*
X107484981Y-77779548D01*
X107501606Y-77795956D01*
X107526666Y-77766334D01*
X107560123Y-77729522D01*
X107568352Y-77758603D01*
X107599026Y-77795128D01*
X107658968Y-77785818D01*
X107721045Y-77775622D01*
X107716730Y-77809372D01*
X107716454Y-77809819D01*
X107715093Y-77843992D01*
X107780658Y-77847531D01*
X107814751Y-77843181D01*
X107898798Y-77838325D01*
X107927719Y-77852291D01*
X107926690Y-77854467D01*
X107950054Y-77875300D01*
X108032102Y-77885881D01*
X108045343Y-77886139D01*
X108170568Y-77894203D01*
X108287073Y-77912467D01*
X108358964Y-77935099D01*
X108362750Y-77937720D01*
X108407872Y-77949748D01*
X108426250Y-77952264D01*
X108456414Y-77966303D01*
X108470035Y-78010049D01*
X108467528Y-78099091D01*
X108449306Y-78249021D01*
X108436485Y-78337834D01*
X108423756Y-78474508D01*
X108414461Y-78675670D01*
X108408600Y-78921210D01*
X108406173Y-79191018D01*
X108407180Y-79464985D01*
X108411620Y-79723002D01*
X108419495Y-79944958D01*
X108430804Y-80110745D01*
X108436485Y-80158167D01*
X108461458Y-80339668D01*
X108470898Y-80453454D01*
X108464390Y-80515117D01*
X108441521Y-80540246D01*
X108426250Y-80543737D01*
X108361241Y-80556789D01*
X108352166Y-80560334D01*
X108296535Y-80572498D01*
X108256916Y-80576857D01*
X108164009Y-80599258D01*
X108133737Y-80614036D01*
X108055807Y-80626974D01*
X108010376Y-80616777D01*
X107959386Y-80609264D01*
X107965171Y-80635299D01*
X107957340Y-80663402D01*
X107876985Y-80662648D01*
X107838533Y-80657052D01*
X107737070Y-80648924D01*
X107705865Y-80667150D01*
X107708621Y-80673507D01*
X107695070Y-80703318D01*
X107642684Y-80708471D01*
X107532752Y-80722693D01*
X107453313Y-80752373D01*
X107335529Y-80786247D01*
X107236697Y-80789182D01*
X107146007Y-80802716D01*
X107119827Y-80866800D01*
X107160941Y-80974036D01*
X107164795Y-80980369D01*
X107178663Y-81018945D01*
X107152207Y-81008876D01*
X107110624Y-81013006D01*
X107103333Y-81047167D01*
X107124575Y-81092312D01*
X107152861Y-81085054D01*
X107184651Y-81083002D01*
X107175356Y-81124889D01*
X107170623Y-81183555D01*
X107188000Y-81195334D01*
X107211763Y-81225712D01*
X107206511Y-81250488D01*
X107208962Y-81321233D01*
X107240624Y-81431790D01*
X107256891Y-81472738D01*
X107301145Y-81607901D01*
X107321144Y-81733468D01*
X107320966Y-81757290D01*
X107335247Y-81854652D01*
X107373573Y-81897801D01*
X107420493Y-81953236D01*
X107423335Y-81991128D01*
X107441932Y-82080403D01*
X107466075Y-82114457D01*
X107501305Y-82196717D01*
X107498444Y-82246611D01*
X107509523Y-82337166D01*
X107547145Y-82395098D01*
X107606137Y-82485939D01*
X107622720Y-82546643D01*
X107644296Y-82602458D01*
X107669648Y-82603623D01*
X107691756Y-82612082D01*
X107682512Y-82651088D01*
X107676028Y-82700428D01*
X107696485Y-82697867D01*
X107730128Y-82711088D01*
X107747071Y-82780757D01*
X107743346Y-82856917D01*
X107770961Y-82887106D01*
X107785196Y-82888667D01*
X107813043Y-82919632D01*
X107806847Y-82954366D01*
X107803889Y-82998065D01*
X107823485Y-82994200D01*
X107856433Y-83007418D01*
X107865333Y-83055502D01*
X107883613Y-83125621D01*
X107910165Y-83142667D01*
X107935448Y-83168602D01*
X107928833Y-83185000D01*
X107935462Y-83223524D01*
X107954557Y-83227334D01*
X107986392Y-83242814D01*
X107980238Y-83253540D01*
X107984357Y-83299796D01*
X108015905Y-83341619D01*
X108057179Y-83406089D01*
X108056465Y-83437977D01*
X108070054Y-83479651D01*
X108101093Y-83497765D01*
X108144680Y-83539719D01*
X108140685Y-83565701D01*
X108145157Y-83604862D01*
X108161666Y-83608334D01*
X108189626Y-83633961D01*
X108183530Y-83649539D01*
X108192841Y-83703859D01*
X108244532Y-83764780D01*
X108310140Y-83847793D01*
X108331000Y-83915404D01*
X108361613Y-83992678D01*
X108394257Y-84016265D01*
X108438169Y-84054732D01*
X108435899Y-84075511D01*
X108446117Y-84123725D01*
X108467893Y-84141362D01*
X108498809Y-84151164D01*
X108490595Y-84138077D01*
X108508049Y-84103564D01*
X108585389Y-84050123D01*
X108670511Y-84006237D01*
X108742541Y-83968167D01*
X108415666Y-83968167D01*
X108394500Y-83989334D01*
X108373333Y-83968167D01*
X108394500Y-83947000D01*
X108415666Y-83968167D01*
X108742541Y-83968167D01*
X108786989Y-83944675D01*
X108863554Y-83889639D01*
X108867687Y-83883500D01*
X108839000Y-83883500D01*
X108817833Y-83904667D01*
X108796666Y-83883500D01*
X108817833Y-83862334D01*
X108839000Y-83883500D01*
X108867687Y-83883500D01*
X108881333Y-83863233D01*
X108916411Y-83816260D01*
X108987166Y-83777667D01*
X109065710Y-83732594D01*
X109093000Y-83691550D01*
X109118873Y-83665291D01*
X109135333Y-83671834D01*
X109174280Y-83667073D01*
X109177666Y-83650667D01*
X109203233Y-83622576D01*
X109218456Y-83628546D01*
X109274161Y-83620260D01*
X109345456Y-83567544D01*
X109370973Y-83544834D01*
X109347000Y-83544834D01*
X109325833Y-83566000D01*
X109304666Y-83544834D01*
X109325833Y-83523667D01*
X109347000Y-83544834D01*
X109370973Y-83544834D01*
X109406319Y-83513377D01*
X109431666Y-83504131D01*
X109431666Y-83504149D01*
X109457970Y-83495530D01*
X109521537Y-83443228D01*
X109524316Y-83440649D01*
X109618196Y-83373827D01*
X109692496Y-83356686D01*
X109727388Y-83392930D01*
X109728000Y-83402583D01*
X109757700Y-83465496D01*
X109802083Y-83511556D01*
X109836746Y-83545975D01*
X109814924Y-83540329D01*
X109796798Y-83548360D01*
X109827101Y-83609615D01*
X109851942Y-83646373D01*
X109929002Y-83740574D01*
X109996435Y-83800538D01*
X110008192Y-83806620D01*
X110050313Y-83841592D01*
X110048854Y-83856906D01*
X110067404Y-83898459D01*
X110134245Y-83971533D01*
X110177874Y-84011220D01*
X110251601Y-84075550D01*
X110316880Y-84135237D01*
X110387623Y-84204113D01*
X110477738Y-84296011D01*
X110601137Y-84424767D01*
X110730537Y-84560834D01*
X110834691Y-84667927D01*
X110907076Y-84737274D01*
X110936971Y-84758854D01*
X110934319Y-84751334D01*
X110938199Y-84741712D01*
X110988033Y-84784519D01*
X111042680Y-84839238D01*
X111160249Y-84948491D01*
X111282060Y-85042777D01*
X111320583Y-85067366D01*
X111414681Y-85141869D01*
X111433440Y-85216942D01*
X111432062Y-85222878D01*
X111399661Y-85288278D01*
X111377007Y-85301667D01*
X111344610Y-85337617D01*
X111328022Y-85396917D01*
X111297561Y-85466821D01*
X111261578Y-85481584D01*
X111212899Y-85504957D01*
X111202261Y-85590093D01*
X111204653Y-85608584D01*
X111177703Y-85639333D01*
X111167333Y-85640334D01*
X111129429Y-85674470D01*
X111125000Y-85701730D01*
X111091977Y-85772991D01*
X111057707Y-85800785D01*
X110996664Y-85851886D01*
X110983623Y-85876972D01*
X110952716Y-85906655D01*
X110946607Y-85905425D01*
X110933442Y-85928197D01*
X110943217Y-85965286D01*
X110948908Y-86012652D01*
X110920527Y-86004613D01*
X110876589Y-86008225D01*
X110862087Y-86076968D01*
X110865987Y-86116584D01*
X110839037Y-86147333D01*
X110828666Y-86148334D01*
X110791514Y-86182791D01*
X110786333Y-86214332D01*
X110767794Y-86259550D01*
X110748436Y-86256908D01*
X110703436Y-86267953D01*
X110686785Y-86295388D01*
X110690861Y-86365565D01*
X110710056Y-86386352D01*
X110736874Y-86389309D01*
X110722450Y-86355958D01*
X110724845Y-86344247D01*
X110772286Y-86386016D01*
X110798554Y-86412917D01*
X110883095Y-86488903D01*
X110950505Y-86527947D01*
X110959562Y-86529334D01*
X111024962Y-86560010D01*
X111056833Y-86593328D01*
X111133469Y-86650975D01*
X111209527Y-86677575D01*
X111294874Y-86708014D01*
X111329471Y-86740581D01*
X111377892Y-86775898D01*
X111427359Y-86783334D01*
X111484940Y-86801045D01*
X111480387Y-86832861D01*
X111478335Y-86864651D01*
X111520222Y-86855356D01*
X111578795Y-86852288D01*
X111590666Y-86871827D01*
X111616680Y-86895871D01*
X111633000Y-86889167D01*
X111672009Y-86892523D01*
X111675333Y-86907835D01*
X111710358Y-86945510D01*
X111751533Y-86952667D01*
X111846811Y-86980730D01*
X111880650Y-87005584D01*
X111947494Y-87054491D01*
X111973783Y-87063792D01*
X112053592Y-87073753D01*
X112058832Y-87074375D01*
X112082016Y-87106240D01*
X112073054Y-87129194D01*
X112071002Y-87160984D01*
X112112889Y-87151690D01*
X112172024Y-87150187D01*
X112183333Y-87172718D01*
X112200579Y-87199976D01*
X112210994Y-87193117D01*
X112260630Y-87195807D01*
X112351095Y-87236113D01*
X112384952Y-87255872D01*
X112511454Y-87314508D01*
X112634509Y-87342430D01*
X112652889Y-87342830D01*
X112748799Y-87352702D01*
X112798929Y-87378852D01*
X112856993Y-87411976D01*
X112905498Y-87418334D01*
X112972952Y-87434440D01*
X112987666Y-87455729D01*
X113022899Y-87495248D01*
X113072392Y-87515281D01*
X113130743Y-87519516D01*
X113135833Y-87503000D01*
X113151485Y-87484439D01*
X113199275Y-87490719D01*
X113267957Y-87525285D01*
X113284000Y-87552769D01*
X113309822Y-87574247D01*
X113323408Y-87568308D01*
X113378137Y-87572703D01*
X113387090Y-87583229D01*
X113443093Y-87609182D01*
X113515836Y-87611037D01*
X113585830Y-87614302D01*
X113598216Y-87635314D01*
X113618869Y-87653609D01*
X113698304Y-87652135D01*
X113715812Y-87649720D01*
X113800775Y-87639536D01*
X113810264Y-87649287D01*
X113770833Y-87672334D01*
X113728630Y-87699077D01*
X113755858Y-87703846D01*
X113831246Y-87693868D01*
X113936644Y-87676250D01*
X113987129Y-87649335D01*
X114010030Y-87586231D01*
X114024755Y-87503445D01*
X114051566Y-87392298D01*
X114082321Y-87317562D01*
X114084719Y-87314231D01*
X114109053Y-87239514D01*
X114110797Y-87174917D01*
X114119449Y-87100873D01*
X114143033Y-87079667D01*
X114164082Y-87043814D01*
X114158779Y-86955806D01*
X114157762Y-86950562D01*
X114149884Y-86864402D01*
X114171537Y-86845991D01*
X114173152Y-86846928D01*
X114196438Y-86839347D01*
X114188946Y-86806160D01*
X114188774Y-86719425D01*
X114205160Y-86687544D01*
X114235520Y-86602352D01*
X114234834Y-86561252D01*
X114242514Y-86486698D01*
X114259588Y-86464646D01*
X114279325Y-86411650D01*
X114272455Y-86379811D01*
X114261274Y-86348644D01*
X114265690Y-86329891D01*
X114299521Y-86323310D01*
X114376585Y-86328661D01*
X114510702Y-86345701D01*
X114702166Y-86372306D01*
X114920134Y-86394562D01*
X115186162Y-86409267D01*
X115479139Y-86416505D01*
X115777954Y-86416355D01*
X116061496Y-86408900D01*
X116308654Y-86394221D01*
X116498317Y-86372401D01*
X116537353Y-86365208D01*
X116697094Y-86343276D01*
X116813194Y-86349463D01*
X116870032Y-86382038D01*
X116872629Y-86402334D01*
X116878159Y-86453404D01*
X116896462Y-86555076D01*
X116904104Y-86592834D01*
X116930804Y-86719265D01*
X116948422Y-86794901D01*
X116964521Y-86851960D01*
X116966194Y-86857417D01*
X116970906Y-86919661D01*
X116968295Y-87005584D01*
X116977686Y-87089782D01*
X117008641Y-87122000D01*
X117036313Y-87147998D01*
X117029354Y-87166188D01*
X117027720Y-87233736D01*
X117043360Y-87261438D01*
X117075781Y-87341581D01*
X117084881Y-87418334D01*
X117102419Y-87572991D01*
X117163764Y-87662781D01*
X117283131Y-87702163D01*
X117369166Y-87707472D01*
X117453833Y-87708716D01*
X117369166Y-87668772D01*
X117320790Y-87642260D01*
X117345955Y-87638104D01*
X117400916Y-87644710D01*
X117484897Y-87646278D01*
X117517333Y-87628608D01*
X117553286Y-87603504D01*
X117612583Y-87596308D01*
X117762181Y-87580140D01*
X117906781Y-87522521D01*
X117935192Y-87507324D01*
X117998997Y-87480235D01*
X118010556Y-87492661D01*
X118025208Y-87516299D01*
X118093592Y-87512452D01*
X118182887Y-87477599D01*
X118222660Y-87436976D01*
X118228891Y-87432445D01*
X118180555Y-87432445D01*
X118174744Y-87457612D01*
X118152333Y-87460667D01*
X118117488Y-87445178D01*
X118124111Y-87432445D01*
X118174351Y-87427378D01*
X118180555Y-87432445D01*
X118228891Y-87432445D01*
X118275432Y-87398603D01*
X118325015Y-87397812D01*
X118391225Y-87395664D01*
X118406333Y-87378099D01*
X118440055Y-87334288D01*
X118472032Y-87317514D01*
X118516308Y-87313564D01*
X118514307Y-87330204D01*
X118528048Y-87351523D01*
X118575132Y-87346073D01*
X118633132Y-87313834D01*
X118636492Y-87287006D01*
X118645840Y-87266263D01*
X118672519Y-87272578D01*
X118745287Y-87263054D01*
X118783646Y-87232276D01*
X118857801Y-87191390D01*
X118903206Y-87195211D01*
X118948377Y-87199130D01*
X118942688Y-87175963D01*
X118950333Y-87125433D01*
X118980275Y-87105754D01*
X119023753Y-87102920D01*
X119020166Y-87122000D01*
X119027545Y-87145515D01*
X119060301Y-87138153D01*
X119117705Y-87095364D01*
X119126000Y-87072639D01*
X119152203Y-87051588D01*
X119168333Y-87058500D01*
X119207228Y-87052610D01*
X119210666Y-87035303D01*
X119241517Y-87005311D01*
X119276365Y-87011153D01*
X119320065Y-87014111D01*
X119316200Y-86994515D01*
X119329417Y-86961567D01*
X119377501Y-86952667D01*
X119447637Y-86935395D01*
X119464666Y-86910333D01*
X119488520Y-86873100D01*
X119496416Y-86873013D01*
X119591187Y-86874890D01*
X119650816Y-86853417D01*
X119655166Y-86825667D01*
X119663756Y-86788616D01*
X119689818Y-86783334D01*
X119766972Y-86753381D01*
X119801245Y-86722350D01*
X119869250Y-86680662D01*
X119906489Y-86682331D01*
X119966926Y-86667236D01*
X120010460Y-86635167D01*
X119972666Y-86635167D01*
X119951500Y-86656334D01*
X119930333Y-86635167D01*
X119951500Y-86614000D01*
X119972666Y-86635167D01*
X120010460Y-86635167D01*
X120052501Y-86604199D01*
X120083173Y-86573981D01*
X120176809Y-86492475D01*
X120260774Y-86447655D01*
X120279446Y-86444667D01*
X120342330Y-86423575D01*
X120353666Y-86399835D01*
X120379180Y-86373665D01*
X120393075Y-86379359D01*
X120446604Y-86372685D01*
X120463116Y-86354150D01*
X120468816Y-86324459D01*
X120444874Y-86334791D01*
X120402969Y-86330901D01*
X120396000Y-86298999D01*
X120372618Y-86241098D01*
X120351168Y-86233000D01*
X120325974Y-86207025D01*
X120332685Y-86190368D01*
X120324020Y-86141604D01*
X120295523Y-86123364D01*
X120251407Y-86073623D01*
X120253790Y-86042243D01*
X120243209Y-86000167D01*
X120226666Y-86000167D01*
X120205500Y-86021334D01*
X120184333Y-86000167D01*
X120205500Y-85979000D01*
X120226666Y-86000167D01*
X120243209Y-86000167D01*
X120238459Y-85981281D01*
X120187617Y-85938424D01*
X120118586Y-85878586D01*
X120099666Y-85831448D01*
X120066778Y-85762569D01*
X120025583Y-85728391D01*
X119982603Y-85693920D01*
X119991341Y-85683954D01*
X119993992Y-85661389D01*
X119949008Y-85616028D01*
X119907457Y-85577146D01*
X119923973Y-85578803D01*
X119959361Y-85587376D01*
X119945263Y-85541936D01*
X119933067Y-85518442D01*
X119913159Y-85492167D01*
X119888000Y-85492167D01*
X119866833Y-85513334D01*
X119845666Y-85492167D01*
X119866833Y-85471000D01*
X119888000Y-85492167D01*
X119913159Y-85492167D01*
X119880374Y-85448899D01*
X119843129Y-85428667D01*
X119798752Y-85393651D01*
X119761000Y-85322834D01*
X119714795Y-85244238D01*
X119671608Y-85217000D01*
X119661486Y-85195044D01*
X119699965Y-85141669D01*
X119767440Y-85075617D01*
X119844303Y-85015627D01*
X119910947Y-84980440D01*
X119921685Y-84977974D01*
X119991767Y-84941113D01*
X120082272Y-84861289D01*
X120094322Y-84848135D01*
X120050509Y-84848135D01*
X120040209Y-84871793D01*
X119997584Y-84917239D01*
X119973079Y-84907917D01*
X119972666Y-84901999D01*
X120002735Y-84866192D01*
X120021541Y-84853124D01*
X120050509Y-84848135D01*
X120094322Y-84848135D01*
X120113020Y-84827726D01*
X120177169Y-84758041D01*
X120204419Y-84738222D01*
X120200074Y-84751254D01*
X120214985Y-84745910D01*
X120278882Y-84688128D01*
X120382453Y-84586867D01*
X120516383Y-84451086D01*
X120574149Y-84391421D01*
X120828339Y-84126836D01*
X121027455Y-83917621D01*
X121175854Y-83758844D01*
X121216098Y-83714167D01*
X121200333Y-83714167D01*
X121179166Y-83735334D01*
X121158000Y-83714167D01*
X121179166Y-83693000D01*
X121200333Y-83714167D01*
X121216098Y-83714167D01*
X121277891Y-83645570D01*
X121337924Y-83572866D01*
X121360308Y-83535800D01*
X121349401Y-83529439D01*
X121326554Y-83539415D01*
X121304509Y-83543777D01*
X121337916Y-83511556D01*
X121397135Y-83443674D01*
X121412000Y-83402583D01*
X121437525Y-83359434D01*
X121517703Y-83370405D01*
X121627153Y-83419636D01*
X121705376Y-83473801D01*
X121730590Y-83520411D01*
X121728685Y-83524985D01*
X121737943Y-83546299D01*
X121776579Y-83537155D01*
X121826140Y-83530027D01*
X121818613Y-83558806D01*
X121822279Y-83602919D01*
X121892799Y-83617553D01*
X121926037Y-83614862D01*
X121972091Y-83638546D01*
X122050019Y-83701296D01*
X122064628Y-83714595D01*
X122146812Y-83786446D01*
X122202511Y-83827485D01*
X122206758Y-83829496D01*
X122227888Y-83869874D01*
X122227424Y-83871393D01*
X122250196Y-83884558D01*
X122287286Y-83874783D01*
X122334652Y-83869092D01*
X122326613Y-83897473D01*
X122330225Y-83941411D01*
X122398967Y-83955913D01*
X122438583Y-83952013D01*
X122469333Y-83978963D01*
X122470333Y-83989334D01*
X122503280Y-84029472D01*
X122518583Y-84031667D01*
X122580959Y-84062399D01*
X122617954Y-84101580D01*
X122665402Y-84146065D01*
X122702748Y-84117007D01*
X122703245Y-84116206D01*
X122713636Y-84080249D01*
X122677957Y-84092300D01*
X122664283Y-84092077D01*
X122708513Y-84050487D01*
X122719838Y-84041149D01*
X122782912Y-83971361D01*
X122783635Y-83968167D01*
X122766666Y-83968167D01*
X122745500Y-83989334D01*
X122724333Y-83968167D01*
X122745500Y-83947000D01*
X122766666Y-83968167D01*
X122783635Y-83968167D01*
X122795273Y-83916797D01*
X122794582Y-83915587D01*
X122804109Y-83860798D01*
X122861422Y-83780031D01*
X122878933Y-83761612D01*
X122943181Y-83690725D01*
X122964705Y-83652708D01*
X122961290Y-83650667D01*
X122965787Y-83624532D01*
X123015967Y-83561311D01*
X123019017Y-83558018D01*
X123082077Y-83465875D01*
X123105333Y-83388684D01*
X123125824Y-83324370D01*
X123150165Y-83312000D01*
X123175448Y-83286065D01*
X123168833Y-83269667D01*
X123173594Y-83230720D01*
X123190000Y-83227334D01*
X123217606Y-83201546D01*
X123211167Y-83185000D01*
X123214523Y-83145991D01*
X123229835Y-83142667D01*
X123269594Y-83108418D01*
X123274666Y-83079167D01*
X123297525Y-83022831D01*
X123317000Y-83015667D01*
X123354233Y-82991813D01*
X123354320Y-82983917D01*
X123359612Y-82920417D01*
X123396375Y-82738002D01*
X123421348Y-82693991D01*
X123443515Y-82697867D01*
X123466879Y-82690696D01*
X123457488Y-82651088D01*
X123451009Y-82601902D01*
X123470158Y-82603504D01*
X123502707Y-82587038D01*
X123519702Y-82519853D01*
X123552737Y-82416505D01*
X123599061Y-82359693D01*
X123626816Y-82317167D01*
X123613333Y-82317167D01*
X123592166Y-82338334D01*
X123571000Y-82317167D01*
X123592166Y-82296000D01*
X123613333Y-82317167D01*
X123626816Y-82317167D01*
X123646940Y-82286334D01*
X123643177Y-82239847D01*
X123647312Y-82154792D01*
X123671955Y-82116426D01*
X123714243Y-82031387D01*
X123716143Y-81987572D01*
X123735048Y-81898897D01*
X123769265Y-81849783D01*
X123811917Y-81773995D01*
X123811138Y-81728272D01*
X123816534Y-81652668D01*
X123851761Y-81581193D01*
X123888530Y-81515430D01*
X123885717Y-81491667D01*
X123881648Y-81465825D01*
X123899161Y-81438750D01*
X123926464Y-81357425D01*
X123925384Y-81288006D01*
X123927092Y-81221608D01*
X123951235Y-81216027D01*
X123975549Y-81200113D01*
X123973453Y-81114170D01*
X123971720Y-81102188D01*
X123962008Y-81019029D01*
X123972016Y-81012502D01*
X123990443Y-81047167D01*
X124014911Y-81085021D01*
X124024519Y-81054056D01*
X124023002Y-80960976D01*
X124013600Y-80852605D01*
X123986733Y-80807328D01*
X123925039Y-80803570D01*
X123899083Y-80807031D01*
X123808622Y-80804024D01*
X123782666Y-80772276D01*
X123752184Y-80739563D01*
X123720522Y-80744455D01*
X123653647Y-80746000D01*
X123635673Y-80731566D01*
X123581014Y-80707691D01*
X123507318Y-80706426D01*
X123428290Y-80700968D01*
X123401666Y-80676220D01*
X123365600Y-80653741D01*
X123274711Y-80659813D01*
X123272562Y-80660238D01*
X123185224Y-80669461D01*
X123169135Y-80645786D01*
X123173673Y-80637169D01*
X123174925Y-80606360D01*
X123129624Y-80616777D01*
X123042339Y-80626044D01*
X123006263Y-80614036D01*
X122921939Y-80582944D01*
X122883083Y-80576857D01*
X122808202Y-80566381D01*
X122787833Y-80560334D01*
X122731038Y-80546099D01*
X122713750Y-80543737D01*
X122685256Y-80532385D01*
X122671198Y-80496080D01*
X122671224Y-80419230D01*
X122684981Y-80286246D01*
X122704544Y-80137000D01*
X122717057Y-79995095D01*
X122726153Y-79791923D01*
X122731849Y-79546889D01*
X122734164Y-79279401D01*
X122733113Y-79008865D01*
X122728714Y-78754685D01*
X122720984Y-78536269D01*
X122709940Y-78373022D01*
X122702940Y-78316667D01*
X122676681Y-78139727D01*
X122668751Y-78030283D01*
X122679603Y-77973074D01*
X122709688Y-77952839D01*
X122713750Y-77952264D01*
X122778758Y-77939211D01*
X122787833Y-77935667D01*
X122843342Y-77922010D01*
X122883083Y-77916136D01*
X122988630Y-77890700D01*
X123029223Y-77875343D01*
X123115773Y-77863355D01*
X123152180Y-77874956D01*
X123183419Y-77881943D01*
X123174425Y-77860049D01*
X123183724Y-77832409D01*
X123267131Y-77833893D01*
X123301466Y-77838948D01*
X123402432Y-77848735D01*
X123432826Y-77831376D01*
X123426025Y-77813831D01*
X123427185Y-77779948D01*
X123500001Y-77782509D01*
X123500510Y-77782601D01*
X123589470Y-77788468D01*
X123630833Y-77777056D01*
X123689767Y-77753116D01*
X123796879Y-77731272D01*
X123915808Y-77718307D01*
X123952000Y-77717130D01*
X123997550Y-77686090D01*
X124020048Y-77586420D01*
X124023002Y-77540454D01*
X124024069Y-77438466D01*
X124013244Y-77412698D01*
X123990666Y-77448834D01*
X123964238Y-77497159D01*
X123962450Y-77486199D01*
X123770025Y-77486199D01*
X123766321Y-77500457D01*
X123718742Y-77516332D01*
X123603064Y-77544672D01*
X123434353Y-77582072D01*
X123227675Y-77625123D01*
X123117338Y-77647203D01*
X122895308Y-77691433D01*
X122701561Y-77730741D01*
X122551883Y-77761871D01*
X122462061Y-77781564D01*
X122444978Y-77785954D01*
X122423632Y-77825016D01*
X122429297Y-77926056D01*
X122455961Y-78069468D01*
X122495481Y-78317593D01*
X122523655Y-78625934D01*
X122539969Y-78970738D01*
X122543905Y-79328250D01*
X122534949Y-79674716D01*
X122512585Y-79986381D01*
X122499944Y-80094667D01*
X122473038Y-80292997D01*
X122448963Y-80463428D01*
X122430508Y-80586646D01*
X122420996Y-80641272D01*
X122435888Y-80669004D01*
X122499252Y-80699626D01*
X122619821Y-80735744D01*
X122806325Y-80779965D01*
X123067495Y-80834892D01*
X123074620Y-80836337D01*
X123301823Y-80883479D01*
X123498838Y-80926462D01*
X123651136Y-80961951D01*
X123744186Y-80986605D01*
X123765936Y-80995158D01*
X123766992Y-81046580D01*
X123745118Y-81162253D01*
X123704776Y-81326316D01*
X123650427Y-81522908D01*
X123586533Y-81736167D01*
X123517557Y-81950231D01*
X123447961Y-82149239D01*
X123421430Y-82219824D01*
X123315656Y-82476697D01*
X123188197Y-82758425D01*
X123048722Y-83045962D01*
X122906903Y-83320266D01*
X122772409Y-83562294D01*
X122654913Y-83753001D01*
X122610786Y-83816158D01*
X122572975Y-83800464D01*
X122478243Y-83745376D01*
X122339779Y-83658969D01*
X122170773Y-83549314D01*
X122121397Y-83516622D01*
X121934666Y-83392586D01*
X121764075Y-83279486D01*
X121626825Y-83188712D01*
X121540117Y-83131654D01*
X121532127Y-83126443D01*
X121419421Y-83053125D01*
X121282910Y-83251538D01*
X120975576Y-83654936D01*
X120609922Y-84063078D01*
X120207930Y-84453871D01*
X119791582Y-84805222D01*
X119581083Y-84961906D01*
X119473231Y-85040681D01*
X119400248Y-85098529D01*
X119380000Y-85119461D01*
X119402333Y-85157893D01*
X119464098Y-85254521D01*
X119557445Y-85397304D01*
X119674522Y-85574206D01*
X119764277Y-85708730D01*
X119892033Y-85901389D01*
X120000101Y-86067763D01*
X120080956Y-86195989D01*
X120127075Y-86274203D01*
X120134694Y-86292821D01*
X119862307Y-86468211D01*
X119526977Y-86652674D01*
X119148496Y-86837299D01*
X118746655Y-87013175D01*
X118341247Y-87171391D01*
X117952063Y-87303037D01*
X117778079Y-87353830D01*
X117579537Y-87407586D01*
X117447598Y-87439951D01*
X117367399Y-87452583D01*
X117324077Y-87447145D01*
X117302767Y-87425295D01*
X117295359Y-87407750D01*
X117280855Y-87349315D01*
X117253825Y-87223677D01*
X117217577Y-87046807D01*
X117175415Y-86834675D01*
X117154263Y-86726126D01*
X117032532Y-86097419D01*
X116862183Y-86122244D01*
X116364760Y-86181246D01*
X115867420Y-86214954D01*
X115388132Y-86223286D01*
X114944866Y-86206158D01*
X114555591Y-86163490D01*
X114391467Y-86133546D01*
X114229280Y-86104621D01*
X114137033Y-86102912D01*
X114105917Y-86122978D01*
X114091912Y-86178964D01*
X114064741Y-86302306D01*
X114027748Y-86477317D01*
X113984276Y-86688311D01*
X113961418Y-86801087D01*
X113916181Y-87021207D01*
X113875683Y-87210265D01*
X113843223Y-87353470D01*
X113822098Y-87436032D01*
X113816708Y-87450069D01*
X113767564Y-87448979D01*
X113654296Y-87425340D01*
X113492965Y-87383785D01*
X113299632Y-87328950D01*
X113090357Y-87265471D01*
X112881202Y-87197981D01*
X112688226Y-87131115D01*
X112607100Y-87100999D01*
X112344959Y-86993926D01*
X112058805Y-86865204D01*
X111767778Y-86724517D01*
X111512863Y-86592834D01*
X111125000Y-86592834D01*
X111103833Y-86614000D01*
X111082666Y-86592834D01*
X111103833Y-86571667D01*
X111125000Y-86592834D01*
X111512863Y-86592834D01*
X111491017Y-86581549D01*
X111247660Y-86445983D01*
X111211451Y-86423500D01*
X110871000Y-86423500D01*
X110849833Y-86444667D01*
X110828666Y-86423500D01*
X110849833Y-86402334D01*
X110871000Y-86423500D01*
X111211451Y-86423500D01*
X111056848Y-86327504D01*
X111001842Y-86288786D01*
X111017536Y-86250975D01*
X111072624Y-86156243D01*
X111159031Y-86017779D01*
X111268686Y-85848774D01*
X111301378Y-85799398D01*
X111425243Y-85612927D01*
X111538006Y-85442849D01*
X111628338Y-85306273D01*
X111684910Y-85220309D01*
X111690107Y-85212339D01*
X111761976Y-85101845D01*
X111601330Y-84984167D01*
X111294333Y-84984167D01*
X111273166Y-85005334D01*
X111252000Y-84984167D01*
X111273166Y-84963000D01*
X111294333Y-84984167D01*
X111601330Y-84984167D01*
X111510882Y-84917911D01*
X111156954Y-84917911D01*
X111151163Y-84920667D01*
X111112531Y-84890865D01*
X111103833Y-84878334D01*
X111093046Y-84838756D01*
X111098836Y-84836000D01*
X111137469Y-84865802D01*
X111146166Y-84878334D01*
X111156954Y-84917911D01*
X111510882Y-84917911D01*
X111475238Y-84891801D01*
X110889204Y-84414613D01*
X110358413Y-83884244D01*
X110235371Y-83732577D01*
X109971621Y-83732577D01*
X109965830Y-83735334D01*
X109927197Y-83705532D01*
X109918500Y-83693000D01*
X109907712Y-83653423D01*
X109913503Y-83650667D01*
X109952136Y-83680469D01*
X109960833Y-83693000D01*
X109971621Y-83732577D01*
X110235371Y-83732577D01*
X109894578Y-83312505D01*
X109856276Y-83259084D01*
X109777418Y-83151251D01*
X109719507Y-83078270D01*
X109698539Y-83058000D01*
X109660111Y-83080335D01*
X109563470Y-83142112D01*
X109420636Y-83235493D01*
X109243630Y-83352637D01*
X109107656Y-83443357D01*
X108882809Y-83591575D01*
X108717873Y-83694397D01*
X108604378Y-83756353D01*
X108533857Y-83781972D01*
X108497838Y-83775785D01*
X108494231Y-83771441D01*
X108381691Y-83588589D01*
X108249991Y-83356772D01*
X108114358Y-83104391D01*
X107990018Y-82859850D01*
X107892197Y-82651552D01*
X107884831Y-82634667D01*
X107772317Y-82362048D01*
X107747353Y-82296000D01*
X107569000Y-82296000D01*
X107553511Y-82330845D01*
X107540778Y-82324222D01*
X107535711Y-82273983D01*
X107540778Y-82267778D01*
X107565945Y-82273589D01*
X107569000Y-82296000D01*
X107747353Y-82296000D01*
X107667504Y-82084751D01*
X107579342Y-81830334D01*
X107399666Y-81830334D01*
X107384177Y-81865179D01*
X107371444Y-81858556D01*
X107366378Y-81808316D01*
X107371444Y-81802111D01*
X107396611Y-81807922D01*
X107399666Y-81830334D01*
X107579342Y-81830334D01*
X107573894Y-81814613D01*
X107494991Y-81563471D01*
X107434299Y-81343163D01*
X107395319Y-81165527D01*
X107381556Y-81042400D01*
X107396512Y-80985620D01*
X107396768Y-80985458D01*
X107452108Y-80968209D01*
X107575063Y-80938935D01*
X107750006Y-80901080D01*
X107961313Y-80858091D01*
X108076663Y-80835565D01*
X108296079Y-80790991D01*
X108482690Y-80748661D01*
X108622210Y-80712168D01*
X108700353Y-80685106D01*
X108712000Y-80675721D01*
X108706711Y-80621387D01*
X108692295Y-80500765D01*
X108670929Y-80331475D01*
X108644791Y-80131139D01*
X108643717Y-80123033D01*
X108611989Y-79788603D01*
X108597326Y-79413056D01*
X108599200Y-79022682D01*
X108617082Y-78643769D01*
X108650444Y-78302607D01*
X108684607Y-78090803D01*
X108713315Y-77922331D01*
X108716918Y-77824257D01*
X108695787Y-77786237D01*
X108695461Y-77786128D01*
X108638511Y-77772822D01*
X108515107Y-77747012D01*
X108341952Y-77712102D01*
X108135752Y-77671497D01*
X108077000Y-77660080D01*
X107816528Y-77609778D01*
X107627919Y-77572108D01*
X107500139Y-77542484D01*
X107422153Y-77516322D01*
X107382926Y-77489037D01*
X107371423Y-77456046D01*
X107376611Y-77412762D01*
X107384533Y-77372384D01*
X107440641Y-77135219D01*
X107531404Y-76842561D01*
X107649417Y-76512397D01*
X107787272Y-76162713D01*
X107937565Y-75811497D01*
X108092890Y-75476735D01*
X108245839Y-75176414D01*
X108389007Y-74928521D01*
X108394122Y-74920429D01*
X108482059Y-74781834D01*
X108246333Y-74781834D01*
X108225166Y-74803000D01*
X108204000Y-74781834D01*
X108225166Y-74760667D01*
X108246333Y-74781834D01*
X108482059Y-74781834D01*
X108547926Y-74678024D01*
X109115678Y-75058012D01*
X109308049Y-75186080D01*
X109474701Y-75295731D01*
X109603467Y-75379063D01*
X109682179Y-75428173D01*
X109700779Y-75438000D01*
X109731174Y-75405943D01*
X109799875Y-75319224D01*
X109895903Y-75192026D01*
X109979534Y-75078167D01*
X109770333Y-75078167D01*
X109749166Y-75099334D01*
X109728000Y-75078167D01*
X109749166Y-75057000D01*
X109770333Y-75078167D01*
X109979534Y-75078167D01*
X109982215Y-75074517D01*
X110221455Y-74772998D01*
X110221632Y-74772801D01*
X109975176Y-74772801D01*
X109964876Y-74796459D01*
X109922250Y-74841906D01*
X109897745Y-74832583D01*
X109897333Y-74826665D01*
X109927402Y-74790859D01*
X109946207Y-74777791D01*
X109975176Y-74772801D01*
X110221632Y-74772801D01*
X110509236Y-74454343D01*
X110821609Y-74142736D01*
X111134626Y-73862359D01*
X111358238Y-73685022D01*
X111489761Y-73587468D01*
X111160509Y-73587468D01*
X111150209Y-73611126D01*
X111107584Y-73656573D01*
X111083079Y-73647250D01*
X111082666Y-73641332D01*
X111112735Y-73605526D01*
X111131541Y-73592458D01*
X111160509Y-73587468D01*
X111489761Y-73587468D01*
X111504991Y-73576172D01*
X111626334Y-73485561D01*
X111659544Y-73460468D01*
X111329843Y-73460468D01*
X111319542Y-73484126D01*
X111276917Y-73529573D01*
X111252412Y-73520250D01*
X111252000Y-73514332D01*
X111282068Y-73478526D01*
X111300874Y-73465458D01*
X111329843Y-73460468D01*
X111659544Y-73460468D01*
X111705975Y-73425387D01*
X111727317Y-73408672D01*
X111715433Y-73366568D01*
X111662821Y-73266947D01*
X111576683Y-73122083D01*
X111464222Y-72944251D01*
X111377317Y-72812150D01*
X110996501Y-72241834D01*
X111105636Y-72153541D01*
X111209398Y-72083302D01*
X111301026Y-72030167D01*
X110955666Y-72030167D01*
X110934500Y-72051334D01*
X110913333Y-72030167D01*
X110934500Y-72009000D01*
X110955666Y-72030167D01*
X111301026Y-72030167D01*
X111373979Y-71987862D01*
X111582532Y-71875733D01*
X111611718Y-71860834D01*
X111209666Y-71860834D01*
X111188500Y-71882000D01*
X111167333Y-71860834D01*
X111188500Y-71839667D01*
X111209666Y-71860834D01*
X111611718Y-71860834D01*
X111818212Y-71755426D01*
X112064172Y-71635455D01*
X112303566Y-71524331D01*
X112519548Y-71430567D01*
X112602986Y-71396939D01*
X112791437Y-71327479D01*
X113001001Y-71256932D01*
X113215804Y-71189824D01*
X113419972Y-71130683D01*
X113597633Y-71084037D01*
X113732912Y-71054412D01*
X113780284Y-71049445D01*
X113015889Y-71049445D01*
X113010078Y-71074612D01*
X112987666Y-71077667D01*
X112952821Y-71062178D01*
X112959444Y-71049445D01*
X113009684Y-71044378D01*
X113015889Y-71049445D01*
X113780284Y-71049445D01*
X113809937Y-71046336D01*
X113820483Y-71049706D01*
X113835253Y-71096306D01*
X113862589Y-71211579D01*
X113899306Y-71381009D01*
X113942218Y-71590080D01*
X113970965Y-71735438D01*
X114100615Y-72400339D01*
X114295557Y-72375508D01*
X114429523Y-72358376D01*
X114613654Y-72334743D01*
X114814144Y-72308948D01*
X114871500Y-72301557D01*
X115122712Y-72280708D01*
X115429649Y-72272859D01*
X115765509Y-72277123D01*
X116103491Y-72292617D01*
X116416793Y-72318455D01*
X116678613Y-72353754D01*
X116727197Y-72362811D01*
X116895636Y-72391403D01*
X116993691Y-72394957D01*
X117031746Y-72373838D01*
X117031872Y-72373461D01*
X117045178Y-72316511D01*
X117070988Y-72193107D01*
X117105898Y-72019953D01*
X117146503Y-71813753D01*
X117157920Y-71755000D01*
X117208596Y-71492700D01*
X117246633Y-71302406D01*
X117276557Y-71173217D01*
X117302896Y-71094229D01*
X117330175Y-71054541D01*
X117362923Y-71043251D01*
X117405666Y-71049457D01*
X117446915Y-71059016D01*
X117901159Y-71177512D01*
X118390993Y-71341787D01*
X118890892Y-71541108D01*
X119375332Y-71764742D01*
X119818789Y-72001957D01*
X120093440Y-72171856D01*
X120105190Y-72202308D01*
X120086183Y-72265343D01*
X120031862Y-72369483D01*
X119937670Y-72523256D01*
X119799052Y-72735185D01*
X119765357Y-72785657D01*
X119636369Y-72979268D01*
X119525729Y-73147032D01*
X119441277Y-73276922D01*
X119390853Y-73356913D01*
X119380000Y-73376731D01*
X119411723Y-73406685D01*
X119497691Y-73476097D01*
X119624095Y-73574051D01*
X119750416Y-73669646D01*
X120254345Y-74088274D01*
X120732100Y-74564897D01*
X121112178Y-75014667D01*
X121235545Y-75169441D01*
X121342238Y-75294744D01*
X121420951Y-75377873D01*
X121460378Y-75406129D01*
X121460611Y-75406071D01*
X121507015Y-75379960D01*
X121610711Y-75314971D01*
X121758718Y-75219444D01*
X121938050Y-75101720D01*
X122047817Y-75028877D01*
X122165981Y-74951167D01*
X121835333Y-74951167D01*
X121814166Y-74972334D01*
X121793000Y-74951167D01*
X121814166Y-74930000D01*
X121835333Y-74951167D01*
X122165981Y-74951167D01*
X122236581Y-74904738D01*
X122399201Y-74800844D01*
X122523426Y-74724777D01*
X122597010Y-74684118D01*
X122611709Y-74679807D01*
X122691975Y-74797975D01*
X122796716Y-74977508D01*
X122917511Y-75201754D01*
X123045934Y-75454066D01*
X123173563Y-75717793D01*
X123291975Y-75976287D01*
X123392745Y-76212897D01*
X123412946Y-76263500D01*
X123482579Y-76451375D01*
X123553528Y-76661186D01*
X123621281Y-76877132D01*
X123681321Y-77083409D01*
X123729135Y-77264214D01*
X123760208Y-77403745D01*
X123770025Y-77486199D01*
X123962450Y-77486199D01*
X123960118Y-77471909D01*
X123966710Y-77417084D01*
X123967310Y-77333140D01*
X123947458Y-77300667D01*
X123927929Y-77270000D01*
X123933841Y-77244594D01*
X123931278Y-77174663D01*
X123900182Y-77061570D01*
X123877165Y-77001177D01*
X123833565Y-76874969D01*
X123813499Y-76771898D01*
X123814607Y-76742260D01*
X123805009Y-76665667D01*
X123782666Y-76665667D01*
X123767177Y-76700512D01*
X123754444Y-76693889D01*
X123749378Y-76643649D01*
X123754444Y-76637445D01*
X123779611Y-76643256D01*
X123782666Y-76665667D01*
X123805009Y-76665667D01*
X123803940Y-76657144D01*
X123759252Y-76562344D01*
X123718342Y-76487584D01*
X123715997Y-76454127D01*
X123717322Y-76454000D01*
X123716032Y-76429836D01*
X123683625Y-76391245D01*
X123641051Y-76296989D01*
X123644937Y-76236458D01*
X123651998Y-76173115D01*
X123617256Y-76176485D01*
X123612808Y-76179158D01*
X123574427Y-76188717D01*
X123582456Y-76146540D01*
X123575924Y-76065938D01*
X123547783Y-76028965D01*
X123507680Y-75969895D01*
X123510464Y-75941204D01*
X123501642Y-75906384D01*
X123485304Y-75903667D01*
X123451621Y-75873392D01*
X123454457Y-75851128D01*
X123442773Y-75780245D01*
X123415263Y-75741882D01*
X123378777Y-75676996D01*
X123382609Y-75646254D01*
X123374433Y-75610347D01*
X123357302Y-75607334D01*
X123327311Y-75576483D01*
X123333152Y-75541635D01*
X123336111Y-75497935D01*
X123316515Y-75501800D01*
X123283567Y-75488583D01*
X123274666Y-75440499D01*
X123256387Y-75370380D01*
X123229835Y-75353334D01*
X123204552Y-75327399D01*
X123211166Y-75311000D01*
X123206406Y-75272053D01*
X123190000Y-75268667D01*
X123162394Y-75242879D01*
X123168833Y-75226334D01*
X123164072Y-75187387D01*
X123147667Y-75184000D01*
X123119707Y-75158373D01*
X123125803Y-75142795D01*
X123116724Y-75088231D01*
X123066970Y-75029410D01*
X123011524Y-74964293D01*
X123004167Y-74922449D01*
X122993811Y-74889972D01*
X122978333Y-74887667D01*
X122949563Y-74862934D01*
X122955057Y-74848746D01*
X122950343Y-74789779D01*
X122925257Y-74753496D01*
X122863903Y-74678214D01*
X122794013Y-74577973D01*
X122734676Y-74482016D01*
X122704983Y-74419589D01*
X122704267Y-74414945D01*
X122697606Y-74400834D01*
X122682000Y-74400834D01*
X122660833Y-74422000D01*
X122639666Y-74400834D01*
X122660833Y-74379667D01*
X122682000Y-74400834D01*
X122697606Y-74400834D01*
X122678118Y-74359554D01*
X122632236Y-74367047D01*
X122614967Y-74394774D01*
X122562815Y-74454720D01*
X122529304Y-74464334D01*
X122475960Y-74490110D01*
X122470333Y-74509165D01*
X122444765Y-74535223D01*
X122430562Y-74529417D01*
X122379182Y-74541308D01*
X122301945Y-74601690D01*
X122282395Y-74621736D01*
X122213727Y-74688279D01*
X122176310Y-74709926D01*
X122174000Y-74705649D01*
X122148051Y-74701120D01*
X122109031Y-74727248D01*
X122006150Y-74811569D01*
X121942377Y-74855845D01*
X121893370Y-74876091D01*
X121876659Y-74880149D01*
X121806153Y-74920631D01*
X121729500Y-74994800D01*
X121608933Y-75096579D01*
X121489874Y-75120586D01*
X121383384Y-75065824D01*
X121351851Y-75028870D01*
X121311221Y-74961931D01*
X121321200Y-74948050D01*
X121329905Y-74952756D01*
X121346919Y-74951028D01*
X121317663Y-74901335D01*
X121253080Y-74818121D01*
X121221520Y-74781834D01*
X121200333Y-74781834D01*
X121179166Y-74803000D01*
X121158000Y-74781834D01*
X121179166Y-74760667D01*
X121200333Y-74781834D01*
X121221520Y-74781834D01*
X121164115Y-74715831D01*
X121094084Y-74641525D01*
X121017820Y-74562587D01*
X120901563Y-74441332D01*
X120763597Y-74296860D01*
X120671129Y-74199750D01*
X120539783Y-74065362D01*
X120427730Y-73957609D01*
X120348726Y-73889309D01*
X120318996Y-73871667D01*
X120277753Y-73836266D01*
X120255620Y-73782741D01*
X120220518Y-73723866D01*
X120187183Y-73721739D01*
X120146027Y-73723749D01*
X120142000Y-73709856D01*
X120111054Y-73662487D01*
X120086014Y-73638834D01*
X120057333Y-73638834D01*
X120036166Y-73660000D01*
X120015000Y-73638834D01*
X120036166Y-73617667D01*
X120057333Y-73638834D01*
X120086014Y-73638834D01*
X120032781Y-73588550D01*
X119986588Y-73551511D01*
X119903321Y-73493130D01*
X119862432Y-73475039D01*
X119864018Y-73486111D01*
X119874763Y-73517079D01*
X119830647Y-73497644D01*
X119810501Y-73485319D01*
X119751087Y-73433730D01*
X119742328Y-73401963D01*
X119724958Y-73365160D01*
X119686673Y-73344089D01*
X119635334Y-73317945D01*
X119659228Y-73290067D01*
X119686916Y-73274050D01*
X119748549Y-73212682D01*
X119761000Y-73172553D01*
X119794610Y-73107545D01*
X119848950Y-73065576D01*
X119910730Y-73004536D01*
X119910765Y-73003834D01*
X119888000Y-73003834D01*
X119866833Y-73025000D01*
X119845666Y-73003834D01*
X119866833Y-72982667D01*
X119888000Y-73003834D01*
X119910765Y-73003834D01*
X119913164Y-72956651D01*
X119924341Y-72890601D01*
X119951970Y-72870795D01*
X119995820Y-72833050D01*
X119993833Y-72813334D01*
X120007591Y-72772231D01*
X120036410Y-72755598D01*
X120092559Y-72699793D01*
X120099666Y-72667985D01*
X120133365Y-72600186D01*
X120187617Y-72557576D01*
X120247494Y-72500544D01*
X120248127Y-72495834D01*
X120226666Y-72495834D01*
X120205500Y-72517000D01*
X120184333Y-72495834D01*
X120205500Y-72474667D01*
X120226666Y-72495834D01*
X120248127Y-72495834D01*
X120253790Y-72453757D01*
X120266908Y-72392247D01*
X120295523Y-72372636D01*
X120337226Y-72330586D01*
X120332685Y-72305632D01*
X120335758Y-72266408D01*
X120351168Y-72263000D01*
X120390499Y-72228580D01*
X120396000Y-72197002D01*
X120418059Y-72154048D01*
X120444874Y-72161209D01*
X120473796Y-72166256D01*
X120463116Y-72141850D01*
X120412453Y-72111024D01*
X120393075Y-72116641D01*
X120356044Y-72114707D01*
X120353666Y-72103319D01*
X120319953Y-72059470D01*
X120238721Y-72006333D01*
X120237250Y-72005570D01*
X120125622Y-71938349D01*
X120045651Y-71877830D01*
X120019207Y-71860834D01*
X119972666Y-71860834D01*
X119951500Y-71882000D01*
X119930333Y-71860834D01*
X119951500Y-71839667D01*
X119972666Y-71860834D01*
X120019207Y-71860834D01*
X119956697Y-71820658D01*
X119832016Y-71765047D01*
X119803638Y-71755101D01*
X119705827Y-71711807D01*
X119661967Y-71669385D01*
X119663514Y-71656827D01*
X119658067Y-71631731D01*
X119619778Y-71640644D01*
X119561205Y-71643712D01*
X119549333Y-71624173D01*
X119523320Y-71600129D01*
X119507000Y-71606833D01*
X119467990Y-71603477D01*
X119464666Y-71588165D01*
X119430418Y-71548406D01*
X119401166Y-71543334D01*
X119344892Y-71516756D01*
X119337666Y-71493945D01*
X119320674Y-71465481D01*
X119309812Y-71472411D01*
X119258909Y-71473598D01*
X119225145Y-71453116D01*
X119177661Y-71427005D01*
X119168333Y-71435340D01*
X119143975Y-71433607D01*
X119101420Y-71397802D01*
X119033553Y-71354327D01*
X118995587Y-71354943D01*
X118959680Y-71346766D01*
X118956666Y-71329636D01*
X118926203Y-71298592D01*
X118895868Y-71303606D01*
X118823297Y-71295668D01*
X118730452Y-71244567D01*
X118725290Y-71240583D01*
X118633044Y-71187284D01*
X118559279Y-71175952D01*
X118556350Y-71176932D01*
X118483163Y-71167605D01*
X118445729Y-71137627D01*
X118393570Y-71096242D01*
X118371930Y-71097959D01*
X118324090Y-71095029D01*
X118261546Y-71063607D01*
X118248027Y-71056500D01*
X118194666Y-71056500D01*
X118173500Y-71077667D01*
X118152333Y-71056500D01*
X118173500Y-71035334D01*
X118194666Y-71056500D01*
X118248027Y-71056500D01*
X118169055Y-71014985D01*
X118079629Y-70983849D01*
X118017734Y-70976424D01*
X118007833Y-70998933D01*
X118007920Y-70999073D01*
X117991405Y-71006605D01*
X117920493Y-70978233D01*
X117878487Y-70956793D01*
X117753925Y-70905964D01*
X117640528Y-70884624D01*
X117620675Y-70885347D01*
X117542647Y-70882842D01*
X117517333Y-70864708D01*
X117502886Y-70844834D01*
X117348000Y-70844834D01*
X117326833Y-70866000D01*
X117305666Y-70844834D01*
X117326833Y-70823667D01*
X117348000Y-70844834D01*
X117502886Y-70844834D01*
X117482396Y-70816647D01*
X117396479Y-70795723D01*
X117287920Y-70799462D01*
X117185062Y-70825394D01*
X117116243Y-70871045D01*
X117103418Y-70900815D01*
X117076459Y-71059867D01*
X117044989Y-71141167D01*
X117030473Y-71211690D01*
X117032789Y-71300681D01*
X117030345Y-71380158D01*
X117002835Y-71391151D01*
X116973395Y-71405541D01*
X116967794Y-71485637D01*
X116970649Y-71584357D01*
X116966194Y-71638584D01*
X116936395Y-71750790D01*
X116908242Y-71880816D01*
X116887671Y-71997807D01*
X116880617Y-72070907D01*
X116881575Y-72078424D01*
X116858095Y-72120926D01*
X116793188Y-72156816D01*
X116728824Y-72164882D01*
X116718750Y-72160720D01*
X116622801Y-72130668D01*
X116443822Y-72107931D01*
X116181437Y-72092482D01*
X115835272Y-72084296D01*
X115612333Y-72082884D01*
X115303682Y-72084099D01*
X115054930Y-72089741D01*
X114841363Y-72101264D01*
X114638266Y-72120123D01*
X114420924Y-72147772D01*
X114358208Y-72156700D01*
X114285615Y-72145313D01*
X114264548Y-72078775D01*
X114227469Y-71869576D01*
X114142658Y-71660327D01*
X114138765Y-71653209D01*
X114144051Y-71633406D01*
X114158799Y-71640390D01*
X114183448Y-71624738D01*
X114181968Y-71542933D01*
X114181702Y-71541098D01*
X114157791Y-71452911D01*
X114126127Y-71416333D01*
X114103038Y-71381285D01*
X114104444Y-71321084D01*
X114102850Y-71226903D01*
X114085175Y-71181769D01*
X114054431Y-71112261D01*
X114026571Y-71002501D01*
X114024721Y-70992361D01*
X113983603Y-70861933D01*
X113963461Y-70844834D01*
X113834333Y-70844834D01*
X113813166Y-70866000D01*
X113792000Y-70844834D01*
X113813166Y-70823667D01*
X113834333Y-70844834D01*
X113963461Y-70844834D01*
X113907736Y-70797529D01*
X113800085Y-70781982D01*
X113731720Y-70796933D01*
G36*
X113080227Y-71559053D02*
G01*
X112955199Y-71610424D01*
X112788024Y-71682572D01*
X112592997Y-71768972D01*
X112384411Y-71863102D01*
X112176560Y-71958438D01*
X111983738Y-72048458D01*
X111820240Y-72126636D01*
X111700360Y-72186451D01*
X111638391Y-72221379D01*
X111633000Y-72226747D01*
X111655258Y-72270307D01*
X111716850Y-72371875D01*
X111810002Y-72519110D01*
X111926937Y-72699669D01*
X112020492Y-72841868D01*
X112172247Y-73071654D01*
X112327923Y-73308353D01*
X112472647Y-73529286D01*
X112591547Y-73711778D01*
X112629743Y-73770787D01*
X112851501Y-74114408D01*
X112389034Y-74418337D01*
X111838732Y-74829964D01*
X111343576Y-75302973D01*
X110907814Y-75831089D01*
X110535692Y-76408036D01*
X110231455Y-77027539D01*
X109999350Y-77683323D01*
X109893223Y-78106834D01*
X109839827Y-78439955D01*
X109806475Y-78824278D01*
X109793458Y-79232325D01*
X109801069Y-79636614D01*
X109829598Y-80009664D01*
X109870149Y-80279833D01*
X110048840Y-80975801D01*
X110299852Y-81630673D01*
X110619495Y-82240641D01*
X111004078Y-82801901D01*
X111449909Y-83310646D01*
X111953298Y-83763070D01*
X112510554Y-84155366D01*
X113117986Y-84483729D01*
X113771904Y-84744352D01*
X114359386Y-84909287D01*
X114550201Y-84950708D01*
X114719399Y-84980162D01*
X114888848Y-84999599D01*
X115080414Y-85010971D01*
X115315964Y-85016230D01*
X115570000Y-85017352D01*
X115856000Y-85015977D01*
X116079164Y-85010487D01*
X116261297Y-84998837D01*
X116424202Y-84978983D01*
X116589686Y-84948879D01*
X116779553Y-84906480D01*
X116797666Y-84902208D01*
X116993062Y-84856375D01*
X117160166Y-84817887D01*
X117280644Y-84790921D01*
X117335184Y-84779782D01*
X117375978Y-84810990D01*
X117444823Y-84899117D01*
X117530721Y-85025958D01*
X117622673Y-85173307D01*
X117709679Y-85322961D01*
X117780740Y-85456716D01*
X117824857Y-85556365D01*
X117832163Y-85602320D01*
X117777749Y-85628171D01*
X117676651Y-85640220D01*
X117665500Y-85640334D01*
X117562174Y-85650075D01*
X117502078Y-85673815D01*
X117499873Y-85676669D01*
X117523943Y-85713475D01*
X117604761Y-85792502D01*
X117731878Y-85904462D01*
X117894844Y-86040072D01*
X118035839Y-86152919D01*
X118307326Y-86366586D01*
X118519657Y-86532971D01*
X118680056Y-86657350D01*
X118795743Y-86745003D01*
X118873941Y-86801207D01*
X118921871Y-86831240D01*
X118946754Y-86840380D01*
X118955812Y-86833906D01*
X118956666Y-86825920D01*
X118949718Y-86771929D01*
X118930321Y-86647769D01*
X118900650Y-86466664D01*
X118870689Y-86288317D01*
X118660366Y-86288317D01*
X118657673Y-86324171D01*
X118642545Y-86337684D01*
X118604348Y-86322585D01*
X118532450Y-86272601D01*
X118416218Y-86181459D01*
X118246857Y-86044381D01*
X118104165Y-85921280D01*
X118030513Y-85837878D01*
X118023281Y-85788776D01*
X118079851Y-85768577D01*
X118112498Y-85767334D01*
X118179965Y-85752168D01*
X118194666Y-85732140D01*
X118173575Y-85689510D01*
X118113275Y-85581967D01*
X118018233Y-85417129D01*
X117892912Y-85202618D01*
X117741777Y-84946054D01*
X117569293Y-84655055D01*
X117379924Y-84337244D01*
X117258377Y-84134057D01*
X117077042Y-83831286D01*
X116858482Y-83466231D01*
X116608914Y-83049280D01*
X116542290Y-82937951D01*
X116282611Y-82937951D01*
X116244331Y-82944706D01*
X116129135Y-82951037D01*
X115944772Y-82956822D01*
X115698993Y-82961937D01*
X115399547Y-82966257D01*
X115054185Y-82969658D01*
X114670655Y-82972017D01*
X114256708Y-82973210D01*
X114070694Y-82973334D01*
X111844666Y-82973334D01*
X111844666Y-81788000D01*
X115602598Y-81788000D01*
X115935549Y-82345285D01*
X116051805Y-82540604D01*
X116152261Y-82710763D01*
X116229026Y-82842290D01*
X116274211Y-82921710D01*
X116282611Y-82937951D01*
X116542290Y-82937951D01*
X116334553Y-82590823D01*
X116041616Y-82101247D01*
X115736319Y-81590943D01*
X115424876Y-81070299D01*
X115113505Y-80549703D01*
X114808421Y-80039545D01*
X114689504Y-79840667D01*
X114435363Y-79840667D01*
X113411000Y-79840667D01*
X113411000Y-78655334D01*
X113573610Y-78655334D01*
X113643765Y-78657650D01*
X113698665Y-78672757D01*
X113750102Y-78712886D01*
X113809865Y-78790271D01*
X113889744Y-78917145D01*
X113991816Y-79089250D01*
X114102861Y-79277698D01*
X114207753Y-79455588D01*
X114293538Y-79600954D01*
X114341388Y-79681917D01*
X114435363Y-79840667D01*
X114689504Y-79840667D01*
X114626221Y-79734834D01*
X114357106Y-79284775D01*
X114099512Y-78854051D01*
X113856899Y-78448443D01*
X113632729Y-78073735D01*
X113430463Y-77735712D01*
X113253561Y-77440155D01*
X113105486Y-77192848D01*
X112989697Y-76999575D01*
X112909658Y-76866120D01*
X112868827Y-76798264D01*
X112865421Y-76792667D01*
X112823665Y-76721342D01*
X112830822Y-76713040D01*
X112883495Y-76753110D01*
X112943087Y-76802360D01*
X113057562Y-76898459D01*
X113217380Y-77033318D01*
X113412998Y-77198851D01*
X113634876Y-77386972D01*
X113873471Y-77589592D01*
X114119241Y-77798625D01*
X114362646Y-78005985D01*
X114501224Y-78124217D01*
X114850614Y-78422500D01*
X114603060Y-78443667D01*
X114355505Y-78464834D01*
X114648624Y-78994000D01*
X114770225Y-79213806D01*
X114892096Y-79434586D01*
X115001031Y-79632386D01*
X115083825Y-79783256D01*
X115092068Y-79798334D01*
X115167285Y-79935576D01*
X115275221Y-80131902D01*
X115410041Y-80376748D01*
X115565910Y-80659545D01*
X115736993Y-80969728D01*
X115917455Y-81296730D01*
X116101460Y-81629985D01*
X116283174Y-81958926D01*
X116456762Y-82272988D01*
X116616389Y-82561604D01*
X116756219Y-82814207D01*
X116870417Y-83020231D01*
X116953149Y-83169109D01*
X116985661Y-83227334D01*
X117053519Y-83349181D01*
X117154718Y-83531972D01*
X117281920Y-83762400D01*
X117427786Y-84027154D01*
X117584977Y-84312926D01*
X117746154Y-84606407D01*
X117750297Y-84613957D01*
X118336935Y-85683081D01*
X118429017Y-85596575D01*
X118521098Y-85510069D01*
X118590749Y-85860951D01*
X118622991Y-86032144D01*
X118647307Y-86177948D01*
X118659621Y-86273345D01*
X118660366Y-86288317D01*
X118870689Y-86288317D01*
X118862881Y-86241840D01*
X118819186Y-85986521D01*
X118808500Y-85924722D01*
X118763735Y-85664503D01*
X118724336Y-85431980D01*
X118692483Y-85240312D01*
X118670357Y-85102660D01*
X118660140Y-85032184D01*
X118659703Y-85026824D01*
X118635447Y-85031392D01*
X118573732Y-85088583D01*
X118518071Y-85150838D01*
X118377069Y-85317508D01*
X118180034Y-84956044D01*
X118095464Y-84796662D01*
X118029061Y-84663458D01*
X117989800Y-84574876D01*
X117983000Y-84551092D01*
X118018143Y-84507073D01*
X118103872Y-84457694D01*
X118115057Y-84452905D01*
X118208338Y-84406604D01*
X118349407Y-84327607D01*
X118514962Y-84229204D01*
X118605699Y-84173079D01*
X119186628Y-83759986D01*
X119705206Y-83290581D01*
X120159107Y-82768261D01*
X120546008Y-82196424D01*
X120863584Y-81578467D01*
X121109510Y-80917787D01*
X121269562Y-80279833D01*
X121310832Y-79992320D01*
X121336069Y-79648716D01*
X121345275Y-79276062D01*
X121338449Y-78901402D01*
X121315590Y-78551778D01*
X121276699Y-78254234D01*
X121269562Y-78216168D01*
X121092465Y-77525146D01*
X120843274Y-76874072D01*
X120526186Y-76266968D01*
X120145400Y-75707854D01*
X119984613Y-75522667D01*
X119295333Y-75522667D01*
X119295333Y-79219778D01*
X119295017Y-79771944D01*
X119294100Y-80299784D01*
X119292629Y-80797172D01*
X119290649Y-81257980D01*
X119288208Y-81676083D01*
X119285351Y-82045353D01*
X119282125Y-82359665D01*
X119278577Y-82612891D01*
X119274752Y-82798905D01*
X119270698Y-82911580D01*
X119267111Y-82945111D01*
X119218727Y-82952809D01*
X119097354Y-82959707D01*
X118914667Y-82965505D01*
X118682343Y-82969903D01*
X118412058Y-82972601D01*
X118169418Y-82973334D01*
X117099946Y-82973334D01*
X116827678Y-82475917D01*
X116722144Y-82282787D01*
X116627673Y-82109303D01*
X116553644Y-81972729D01*
X116509434Y-81890329D01*
X116505715Y-81883250D01*
X116456021Y-81788000D01*
X117974311Y-81788000D01*
X118592489Y-82340178D01*
X118781856Y-82508071D01*
X118947770Y-82652768D01*
X119080746Y-82766196D01*
X119171296Y-82840280D01*
X119209934Y-82866947D01*
X119210666Y-82866331D01*
X119191567Y-82823591D01*
X119137657Y-82715984D01*
X119054021Y-82553320D01*
X118945744Y-82345411D01*
X118817909Y-82102068D01*
X118731271Y-81938317D01*
X118481582Y-81938317D01*
X118451977Y-81931187D01*
X118383570Y-81874641D01*
X118374583Y-81866446D01*
X118313466Y-81810925D01*
X118198640Y-81707093D01*
X118039329Y-81563274D01*
X117844761Y-81387792D01*
X117624162Y-81188972D01*
X117386757Y-80975136D01*
X117348000Y-80940239D01*
X117114903Y-80729696D01*
X116902949Y-80536961D01*
X116720152Y-80369426D01*
X116574527Y-80234483D01*
X116474092Y-80139523D01*
X116426860Y-80091939D01*
X116424360Y-80088460D01*
X116456206Y-80071110D01*
X116552694Y-80055400D01*
X116693809Y-80044452D01*
X116711438Y-80043663D01*
X117011989Y-80031167D01*
X116867727Y-79811643D01*
X116586000Y-79811643D01*
X116546189Y-79822045D01*
X116436764Y-79829330D01*
X116272736Y-79833010D01*
X116069118Y-79832598D01*
X115983444Y-79831246D01*
X115380888Y-79819500D01*
X115075108Y-79269167D01*
X114967641Y-79073930D01*
X114876447Y-78904790D01*
X114808818Y-78775544D01*
X114772044Y-78699988D01*
X114767498Y-78687084D01*
X114806465Y-78675233D01*
X114914293Y-78665531D01*
X115075181Y-78658883D01*
X115273332Y-78656197D01*
X115305416Y-78656193D01*
X115845166Y-78657052D01*
X116215583Y-79218673D01*
X116341561Y-79411557D01*
X116449160Y-79579884D01*
X116530449Y-79710957D01*
X116577500Y-79792084D01*
X116586000Y-79811643D01*
X116867727Y-79811643D01*
X116358222Y-79036334D01*
X116139368Y-78703461D01*
X115890976Y-78325919D01*
X115630156Y-77929697D01*
X115374015Y-77540783D01*
X115139665Y-77185165D01*
X115048342Y-77046667D01*
X114831603Y-76717805D01*
X114825148Y-76708000D01*
X114563737Y-76708000D01*
X113203079Y-76708000D01*
X112566206Y-76155130D01*
X112372624Y-75988117D01*
X112202732Y-75843521D01*
X112066065Y-75729294D01*
X111972156Y-75653387D01*
X111930542Y-75623750D01*
X111929333Y-75624045D01*
X111950015Y-75666273D01*
X112006748Y-75767028D01*
X112091564Y-75912512D01*
X112196494Y-76088928D01*
X112230308Y-76145165D01*
X112341348Y-76329401D01*
X112436776Y-76487757D01*
X112508029Y-76606024D01*
X112546545Y-76669989D01*
X112550306Y-76676250D01*
X112520147Y-76690458D01*
X112423346Y-76701381D01*
X112277910Y-76707362D01*
X112205804Y-76708000D01*
X111842277Y-76708000D01*
X111865833Y-75543834D01*
X112821867Y-75532473D01*
X113777900Y-75521113D01*
X114095070Y-75998140D01*
X114219447Y-76185388D01*
X114333164Y-76356918D01*
X114424737Y-76495388D01*
X114482684Y-76583451D01*
X114487988Y-76591584D01*
X114563737Y-76708000D01*
X114825148Y-76708000D01*
X114588093Y-76347937D01*
X114334236Y-75962035D01*
X114086458Y-75585073D01*
X113861183Y-75242023D01*
X113767569Y-75099334D01*
X113555647Y-74776282D01*
X113316845Y-74412406D01*
X113068032Y-74033403D01*
X112826081Y-73664969D01*
X112607860Y-73332803D01*
X112541265Y-73231471D01*
X111939623Y-72316108D01*
X112093228Y-72241978D01*
X112196613Y-72194520D01*
X112354071Y-72125105D01*
X112541493Y-72044269D01*
X112679569Y-71985706D01*
X113112305Y-71803563D01*
X113374004Y-72297865D01*
X113490498Y-72517663D01*
X113631584Y-72783490D01*
X113782024Y-73066661D01*
X113926585Y-73338490D01*
X113973785Y-73427167D01*
X114091153Y-73647757D01*
X114237806Y-73923612D01*
X114403365Y-74235194D01*
X114577449Y-74562967D01*
X114749681Y-74887394D01*
X114850916Y-75078167D01*
X114999299Y-75357592D01*
X115140028Y-75622141D01*
X115266614Y-75859652D01*
X115372567Y-76057958D01*
X115451396Y-76204897D01*
X115494611Y-76284667D01*
X115554546Y-76395349D01*
X115642437Y-76559646D01*
X115746902Y-76756197D01*
X115856557Y-76963644D01*
X115866844Y-76983167D01*
X115947482Y-77135822D01*
X116060369Y-77348902D01*
X116200688Y-77613358D01*
X116363622Y-77920141D01*
X116544354Y-78260200D01*
X116738067Y-78624488D01*
X116939942Y-79003953D01*
X117145164Y-79389548D01*
X117348915Y-79772222D01*
X117546378Y-80142927D01*
X117732735Y-80492612D01*
X117903169Y-80812229D01*
X118052864Y-81092728D01*
X118177002Y-81325060D01*
X118270765Y-81500175D01*
X118326901Y-81604522D01*
X118420112Y-81780852D01*
X118471317Y-81890161D01*
X118481582Y-81938317D01*
X118731271Y-81938317D01*
X118675602Y-81833102D01*
X118660333Y-81804350D01*
X118110000Y-80768393D01*
X118110000Y-79840667D01*
X117615855Y-79840667D01*
X117323178Y-79283458D01*
X117219347Y-79085230D01*
X117129771Y-78913174D01*
X117061762Y-78781415D01*
X117022629Y-78704076D01*
X117016389Y-78690791D01*
X117050670Y-78677675D01*
X117154472Y-78666750D01*
X117312653Y-78659013D01*
X117510077Y-78655456D01*
X117556139Y-78655334D01*
X118110000Y-78655334D01*
X118110000Y-76708000D01*
X115956620Y-76708000D01*
X115657477Y-76141819D01*
X115553383Y-75943140D01*
X115465042Y-75771356D01*
X115399346Y-75640119D01*
X115363184Y-75563083D01*
X115358333Y-75549152D01*
X115399281Y-75543782D01*
X115516584Y-75538776D01*
X115701930Y-75534248D01*
X115947009Y-75530308D01*
X116243509Y-75527068D01*
X116583118Y-75524641D01*
X116957525Y-75523138D01*
X117326833Y-75522667D01*
X119295333Y-75522667D01*
X119984613Y-75522667D01*
X119705110Y-75200751D01*
X119209516Y-74749679D01*
X118662815Y-74358659D01*
X118069202Y-74031712D01*
X117432877Y-73772859D01*
X116758035Y-73586120D01*
X116360899Y-73513954D01*
X115834949Y-73458992D01*
X115330578Y-73457707D01*
X114805406Y-73510111D01*
X114775823Y-73514441D01*
X114589940Y-73538546D01*
X114435379Y-73552044D01*
X114331025Y-73553683D01*
X114296880Y-73546191D01*
X114268692Y-73500963D01*
X114206492Y-73391058D01*
X114115845Y-73226646D01*
X114002318Y-73017898D01*
X113871476Y-72774983D01*
X113733638Y-72517000D01*
X113566039Y-72206436D01*
X113422085Y-71948516D01*
X113304852Y-71748408D01*
X113217416Y-71611278D01*
X113162855Y-71542293D01*
X113148814Y-71534981D01*
X113080227Y-71559053D01*
G37*
X113080227Y-71559053D02*
X112955199Y-71610424D01*
X112788024Y-71682572D01*
X112592997Y-71768972D01*
X112384411Y-71863102D01*
X112176560Y-71958438D01*
X111983738Y-72048458D01*
X111820240Y-72126636D01*
X111700360Y-72186451D01*
X111638391Y-72221379D01*
X111633000Y-72226747D01*
X111655258Y-72270307D01*
X111716850Y-72371875D01*
X111810002Y-72519110D01*
X111926937Y-72699669D01*
X112020492Y-72841868D01*
X112172247Y-73071654D01*
X112327923Y-73308353D01*
X112472647Y-73529286D01*
X112591547Y-73711778D01*
X112629743Y-73770787D01*
X112851501Y-74114408D01*
X112389034Y-74418337D01*
X111838732Y-74829964D01*
X111343576Y-75302973D01*
X110907814Y-75831089D01*
X110535692Y-76408036D01*
X110231455Y-77027539D01*
X109999350Y-77683323D01*
X109893223Y-78106834D01*
X109839827Y-78439955D01*
X109806475Y-78824278D01*
X109793458Y-79232325D01*
X109801069Y-79636614D01*
X109829598Y-80009664D01*
X109870149Y-80279833D01*
X110048840Y-80975801D01*
X110299852Y-81630673D01*
X110619495Y-82240641D01*
X111004078Y-82801901D01*
X111449909Y-83310646D01*
X111953298Y-83763070D01*
X112510554Y-84155366D01*
X113117986Y-84483729D01*
X113771904Y-84744352D01*
X114359386Y-84909287D01*
X114550201Y-84950708D01*
X114719399Y-84980162D01*
X114888848Y-84999599D01*
X115080414Y-85010971D01*
X115315964Y-85016230D01*
X115570000Y-85017352D01*
X115856000Y-85015977D01*
X116079164Y-85010487D01*
X116261297Y-84998837D01*
X116424202Y-84978983D01*
X116589686Y-84948879D01*
X116779553Y-84906480D01*
X116797666Y-84902208D01*
X116993062Y-84856375D01*
X117160166Y-84817887D01*
X117280644Y-84790921D01*
X117335184Y-84779782D01*
X117375978Y-84810990D01*
X117444823Y-84899117D01*
X117530721Y-85025958D01*
X117622673Y-85173307D01*
X117709679Y-85322961D01*
X117780740Y-85456716D01*
X117824857Y-85556365D01*
X117832163Y-85602320D01*
X117777749Y-85628171D01*
X117676651Y-85640220D01*
X117665500Y-85640334D01*
X117562174Y-85650075D01*
X117502078Y-85673815D01*
X117499873Y-85676669D01*
X117523943Y-85713475D01*
X117604761Y-85792502D01*
X117731878Y-85904462D01*
X117894844Y-86040072D01*
X118035839Y-86152919D01*
X118307326Y-86366586D01*
X118519657Y-86532971D01*
X118680056Y-86657350D01*
X118795743Y-86745003D01*
X118873941Y-86801207D01*
X118921871Y-86831240D01*
X118946754Y-86840380D01*
X118955812Y-86833906D01*
X118956666Y-86825920D01*
X118949718Y-86771929D01*
X118930321Y-86647769D01*
X118900650Y-86466664D01*
X118870689Y-86288317D01*
X118660366Y-86288317D01*
X118657673Y-86324171D01*
X118642545Y-86337684D01*
X118604348Y-86322585D01*
X118532450Y-86272601D01*
X118416218Y-86181459D01*
X118246857Y-86044381D01*
X118104165Y-85921280D01*
X118030513Y-85837878D01*
X118023281Y-85788776D01*
X118079851Y-85768577D01*
X118112498Y-85767334D01*
X118179965Y-85752168D01*
X118194666Y-85732140D01*
X118173575Y-85689510D01*
X118113275Y-85581967D01*
X118018233Y-85417129D01*
X117892912Y-85202618D01*
X117741777Y-84946054D01*
X117569293Y-84655055D01*
X117379924Y-84337244D01*
X117258377Y-84134057D01*
X117077042Y-83831286D01*
X116858482Y-83466231D01*
X116608914Y-83049280D01*
X116542290Y-82937951D01*
X116282611Y-82937951D01*
X116244331Y-82944706D01*
X116129135Y-82951037D01*
X115944772Y-82956822D01*
X115698993Y-82961937D01*
X115399547Y-82966257D01*
X115054185Y-82969658D01*
X114670655Y-82972017D01*
X114256708Y-82973210D01*
X114070694Y-82973334D01*
X111844666Y-82973334D01*
X111844666Y-81788000D01*
X115602598Y-81788000D01*
X115935549Y-82345285D01*
X116051805Y-82540604D01*
X116152261Y-82710763D01*
X116229026Y-82842290D01*
X116274211Y-82921710D01*
X116282611Y-82937951D01*
X116542290Y-82937951D01*
X116334553Y-82590823D01*
X116041616Y-82101247D01*
X115736319Y-81590943D01*
X115424876Y-81070299D01*
X115113505Y-80549703D01*
X114808421Y-80039545D01*
X114689504Y-79840667D01*
X114435363Y-79840667D01*
X113411000Y-79840667D01*
X113411000Y-78655334D01*
X113573610Y-78655334D01*
X113643765Y-78657650D01*
X113698665Y-78672757D01*
X113750102Y-78712886D01*
X113809865Y-78790271D01*
X113889744Y-78917145D01*
X113991816Y-79089250D01*
X114102861Y-79277698D01*
X114207753Y-79455588D01*
X114293538Y-79600954D01*
X114341388Y-79681917D01*
X114435363Y-79840667D01*
X114689504Y-79840667D01*
X114626221Y-79734834D01*
X114357106Y-79284775D01*
X114099512Y-78854051D01*
X113856899Y-78448443D01*
X113632729Y-78073735D01*
X113430463Y-77735712D01*
X113253561Y-77440155D01*
X113105486Y-77192848D01*
X112989697Y-76999575D01*
X112909658Y-76866120D01*
X112868827Y-76798264D01*
X112865421Y-76792667D01*
X112823665Y-76721342D01*
X112830822Y-76713040D01*
X112883495Y-76753110D01*
X112943087Y-76802360D01*
X113057562Y-76898459D01*
X113217380Y-77033318D01*
X113412998Y-77198851D01*
X113634876Y-77386972D01*
X113873471Y-77589592D01*
X114119241Y-77798625D01*
X114362646Y-78005985D01*
X114501224Y-78124217D01*
X114850614Y-78422500D01*
X114603060Y-78443667D01*
X114355505Y-78464834D01*
X114648624Y-78994000D01*
X114770225Y-79213806D01*
X114892096Y-79434586D01*
X115001031Y-79632386D01*
X115083825Y-79783256D01*
X115092068Y-79798334D01*
X115167285Y-79935576D01*
X115275221Y-80131902D01*
X115410041Y-80376748D01*
X115565910Y-80659545D01*
X115736993Y-80969728D01*
X115917455Y-81296730D01*
X116101460Y-81629985D01*
X116283174Y-81958926D01*
X116456762Y-82272988D01*
X116616389Y-82561604D01*
X116756219Y-82814207D01*
X116870417Y-83020231D01*
X116953149Y-83169109D01*
X116985661Y-83227334D01*
X117053519Y-83349181D01*
X117154718Y-83531972D01*
X117281920Y-83762400D01*
X117427786Y-84027154D01*
X117584977Y-84312926D01*
X117746154Y-84606407D01*
X117750297Y-84613957D01*
X118336935Y-85683081D01*
X118429017Y-85596575D01*
X118521098Y-85510069D01*
X118590749Y-85860951D01*
X118622991Y-86032144D01*
X118647307Y-86177948D01*
X118659621Y-86273345D01*
X118660366Y-86288317D01*
X118870689Y-86288317D01*
X118862881Y-86241840D01*
X118819186Y-85986521D01*
X118808500Y-85924722D01*
X118763735Y-85664503D01*
X118724336Y-85431980D01*
X118692483Y-85240312D01*
X118670357Y-85102660D01*
X118660140Y-85032184D01*
X118659703Y-85026824D01*
X118635447Y-85031392D01*
X118573732Y-85088583D01*
X118518071Y-85150838D01*
X118377069Y-85317508D01*
X118180034Y-84956044D01*
X118095464Y-84796662D01*
X118029061Y-84663458D01*
X117989800Y-84574876D01*
X117983000Y-84551092D01*
X118018143Y-84507073D01*
X118103872Y-84457694D01*
X118115057Y-84452905D01*
X118208338Y-84406604D01*
X118349407Y-84327607D01*
X118514962Y-84229204D01*
X118605699Y-84173079D01*
X119186628Y-83759986D01*
X119705206Y-83290581D01*
X120159107Y-82768261D01*
X120546008Y-82196424D01*
X120863584Y-81578467D01*
X121109510Y-80917787D01*
X121269562Y-80279833D01*
X121310832Y-79992320D01*
X121336069Y-79648716D01*
X121345275Y-79276062D01*
X121338449Y-78901402D01*
X121315590Y-78551778D01*
X121276699Y-78254234D01*
X121269562Y-78216168D01*
X121092465Y-77525146D01*
X120843274Y-76874072D01*
X120526186Y-76266968D01*
X120145400Y-75707854D01*
X119984613Y-75522667D01*
X119295333Y-75522667D01*
X119295333Y-79219778D01*
X119295017Y-79771944D01*
X119294100Y-80299784D01*
X119292629Y-80797172D01*
X119290649Y-81257980D01*
X119288208Y-81676083D01*
X119285351Y-82045353D01*
X119282125Y-82359665D01*
X119278577Y-82612891D01*
X119274752Y-82798905D01*
X119270698Y-82911580D01*
X119267111Y-82945111D01*
X119218727Y-82952809D01*
X119097354Y-82959707D01*
X118914667Y-82965505D01*
X118682343Y-82969903D01*
X118412058Y-82972601D01*
X118169418Y-82973334D01*
X117099946Y-82973334D01*
X116827678Y-82475917D01*
X116722144Y-82282787D01*
X116627673Y-82109303D01*
X116553644Y-81972729D01*
X116509434Y-81890329D01*
X116505715Y-81883250D01*
X116456021Y-81788000D01*
X117974311Y-81788000D01*
X118592489Y-82340178D01*
X118781856Y-82508071D01*
X118947770Y-82652768D01*
X119080746Y-82766196D01*
X119171296Y-82840280D01*
X119209934Y-82866947D01*
X119210666Y-82866331D01*
X119191567Y-82823591D01*
X119137657Y-82715984D01*
X119054021Y-82553320D01*
X118945744Y-82345411D01*
X118817909Y-82102068D01*
X118731271Y-81938317D01*
X118481582Y-81938317D01*
X118451977Y-81931187D01*
X118383570Y-81874641D01*
X118374583Y-81866446D01*
X118313466Y-81810925D01*
X118198640Y-81707093D01*
X118039329Y-81563274D01*
X117844761Y-81387792D01*
X117624162Y-81188972D01*
X117386757Y-80975136D01*
X117348000Y-80940239D01*
X117114903Y-80729696D01*
X116902949Y-80536961D01*
X116720152Y-80369426D01*
X116574527Y-80234483D01*
X116474092Y-80139523D01*
X116426860Y-80091939D01*
X116424360Y-80088460D01*
X116456206Y-80071110D01*
X116552694Y-80055400D01*
X116693809Y-80044452D01*
X116711438Y-80043663D01*
X117011989Y-80031167D01*
X116867727Y-79811643D01*
X116586000Y-79811643D01*
X116546189Y-79822045D01*
X116436764Y-79829330D01*
X116272736Y-79833010D01*
X116069118Y-79832598D01*
X115983444Y-79831246D01*
X115380888Y-79819500D01*
X115075108Y-79269167D01*
X114967641Y-79073930D01*
X114876447Y-78904790D01*
X114808818Y-78775544D01*
X114772044Y-78699988D01*
X114767498Y-78687084D01*
X114806465Y-78675233D01*
X114914293Y-78665531D01*
X115075181Y-78658883D01*
X115273332Y-78656197D01*
X115305416Y-78656193D01*
X115845166Y-78657052D01*
X116215583Y-79218673D01*
X116341561Y-79411557D01*
X116449160Y-79579884D01*
X116530449Y-79710957D01*
X116577500Y-79792084D01*
X116586000Y-79811643D01*
X116867727Y-79811643D01*
X116358222Y-79036334D01*
X116139368Y-78703461D01*
X115890976Y-78325919D01*
X115630156Y-77929697D01*
X115374015Y-77540783D01*
X115139665Y-77185165D01*
X115048342Y-77046667D01*
X114831603Y-76717805D01*
X114825148Y-76708000D01*
X114563737Y-76708000D01*
X113203079Y-76708000D01*
X112566206Y-76155130D01*
X112372624Y-75988117D01*
X112202732Y-75843521D01*
X112066065Y-75729294D01*
X111972156Y-75653387D01*
X111930542Y-75623750D01*
X111929333Y-75624045D01*
X111950015Y-75666273D01*
X112006748Y-75767028D01*
X112091564Y-75912512D01*
X112196494Y-76088928D01*
X112230308Y-76145165D01*
X112341348Y-76329401D01*
X112436776Y-76487757D01*
X112508029Y-76606024D01*
X112546545Y-76669989D01*
X112550306Y-76676250D01*
X112520147Y-76690458D01*
X112423346Y-76701381D01*
X112277910Y-76707362D01*
X112205804Y-76708000D01*
X111842277Y-76708000D01*
X111865833Y-75543834D01*
X112821867Y-75532473D01*
X113777900Y-75521113D01*
X114095070Y-75998140D01*
X114219447Y-76185388D01*
X114333164Y-76356918D01*
X114424737Y-76495388D01*
X114482684Y-76583451D01*
X114487988Y-76591584D01*
X114563737Y-76708000D01*
X114825148Y-76708000D01*
X114588093Y-76347937D01*
X114334236Y-75962035D01*
X114086458Y-75585073D01*
X113861183Y-75242023D01*
X113767569Y-75099334D01*
X113555647Y-74776282D01*
X113316845Y-74412406D01*
X113068032Y-74033403D01*
X112826081Y-73664969D01*
X112607860Y-73332803D01*
X112541265Y-73231471D01*
X111939623Y-72316108D01*
X112093228Y-72241978D01*
X112196613Y-72194520D01*
X112354071Y-72125105D01*
X112541493Y-72044269D01*
X112679569Y-71985706D01*
X113112305Y-71803563D01*
X113374004Y-72297865D01*
X113490498Y-72517663D01*
X113631584Y-72783490D01*
X113782024Y-73066661D01*
X113926585Y-73338490D01*
X113973785Y-73427167D01*
X114091153Y-73647757D01*
X114237806Y-73923612D01*
X114403365Y-74235194D01*
X114577449Y-74562967D01*
X114749681Y-74887394D01*
X114850916Y-75078167D01*
X114999299Y-75357592D01*
X115140028Y-75622141D01*
X115266614Y-75859652D01*
X115372567Y-76057958D01*
X115451396Y-76204897D01*
X115494611Y-76284667D01*
X115554546Y-76395349D01*
X115642437Y-76559646D01*
X115746902Y-76756197D01*
X115856557Y-76963644D01*
X115866844Y-76983167D01*
X115947482Y-77135822D01*
X116060369Y-77348902D01*
X116200688Y-77613358D01*
X116363622Y-77920141D01*
X116544354Y-78260200D01*
X116738067Y-78624488D01*
X116939942Y-79003953D01*
X117145164Y-79389548D01*
X117348915Y-79772222D01*
X117546378Y-80142927D01*
X117732735Y-80492612D01*
X117903169Y-80812229D01*
X118052864Y-81092728D01*
X118177002Y-81325060D01*
X118270765Y-81500175D01*
X118326901Y-81604522D01*
X118420112Y-81780852D01*
X118471317Y-81890161D01*
X118481582Y-81938317D01*
X118731271Y-81938317D01*
X118675602Y-81833102D01*
X118660333Y-81804350D01*
X118110000Y-80768393D01*
X118110000Y-79840667D01*
X117615855Y-79840667D01*
X117323178Y-79283458D01*
X117219347Y-79085230D01*
X117129771Y-78913174D01*
X117061762Y-78781415D01*
X117022629Y-78704076D01*
X117016389Y-78690791D01*
X117050670Y-78677675D01*
X117154472Y-78666750D01*
X117312653Y-78659013D01*
X117510077Y-78655456D01*
X117556139Y-78655334D01*
X118110000Y-78655334D01*
X118110000Y-76708000D01*
X115956620Y-76708000D01*
X115657477Y-76141819D01*
X115553383Y-75943140D01*
X115465042Y-75771356D01*
X115399346Y-75640119D01*
X115363184Y-75563083D01*
X115358333Y-75549152D01*
X115399281Y-75543782D01*
X115516584Y-75538776D01*
X115701930Y-75534248D01*
X115947009Y-75530308D01*
X116243509Y-75527068D01*
X116583118Y-75524641D01*
X116957525Y-75523138D01*
X117326833Y-75522667D01*
X119295333Y-75522667D01*
X119984613Y-75522667D01*
X119705110Y-75200751D01*
X119209516Y-74749679D01*
X118662815Y-74358659D01*
X118069202Y-74031712D01*
X117432877Y-73772859D01*
X116758035Y-73586120D01*
X116360899Y-73513954D01*
X115834949Y-73458992D01*
X115330578Y-73457707D01*
X114805406Y-73510111D01*
X114775823Y-73514441D01*
X114589940Y-73538546D01*
X114435379Y-73552044D01*
X114331025Y-73553683D01*
X114296880Y-73546191D01*
X114268692Y-73500963D01*
X114206492Y-73391058D01*
X114115845Y-73226646D01*
X114002318Y-73017898D01*
X113871476Y-72774983D01*
X113733638Y-72517000D01*
X113566039Y-72206436D01*
X113422085Y-71948516D01*
X113304852Y-71748408D01*
X113217416Y-71611278D01*
X113162855Y-71542293D01*
X113148814Y-71534981D01*
X113080227Y-71559053D01*
%LPC*%
D13*
X137183000Y-104902000D03*
X137183000Y-109402000D03*
D14*
X130683000Y-104902000D03*
D13*
X130683000Y-109402000D03*
D15*
X129667000Y-90170000D03*
X129667000Y-87630000D03*
D16*
X129667000Y-85090000D03*
D15*
X132207000Y-90170000D03*
X132207000Y-87630000D03*
D16*
X132207000Y-85090000D03*
D15*
X134747000Y-90170000D03*
X134747000Y-87630000D03*
D16*
X134747000Y-85090000D03*
D15*
X137287000Y-90170000D03*
X137287000Y-87630000D03*
D16*
X137287000Y-85090000D03*
D15*
X139827000Y-90170000D03*
X139827000Y-87630000D03*
D16*
X139827000Y-85090000D03*
D15*
X142367000Y-90170000D03*
X142367000Y-87630000D03*
D16*
X142367000Y-85090000D03*
D15*
X144907000Y-90170000D03*
X144907000Y-87630000D03*
D16*
X144907000Y-85090000D03*
D15*
X147447000Y-90170000D03*
X147447000Y-87630000D03*
D16*
X147447000Y-85090000D03*
D15*
X149987000Y-90170000D03*
X149987000Y-87630000D03*
D16*
X149987000Y-85090000D03*
D15*
X152527000Y-90170000D03*
X152527000Y-87630000D03*
D16*
X152527000Y-85090000D03*
D15*
X155067000Y-90170000D03*
X155067000Y-87630000D03*
D16*
X155067000Y-85090000D03*
D15*
X157607000Y-90170000D03*
X157607000Y-87630000D03*
D16*
X157607000Y-85090000D03*
D15*
X160147000Y-90170000D03*
X160147000Y-87630000D03*
D16*
X160147000Y-85090000D03*
D15*
X183642000Y-98552000D03*
X186182000Y-98552000D03*
D16*
X188722000Y-98552000D03*
D15*
X183642000Y-96012000D03*
X186182000Y-96012000D03*
D16*
X188722000Y-96012000D03*
D15*
X183642000Y-93472000D03*
X186182000Y-93472000D03*
D16*
X188722000Y-93472000D03*
D15*
X183642000Y-90932000D03*
X186182000Y-90932000D03*
D16*
X188722000Y-90932000D03*
D15*
X183642000Y-88392000D03*
X186182000Y-88392000D03*
D16*
X188722000Y-88392000D03*
D15*
X183642000Y-85852000D03*
X186182000Y-85852000D03*
D16*
X188722000Y-85852000D03*
D15*
X183642000Y-83312000D03*
X186182000Y-83312000D03*
D16*
X188722000Y-83312000D03*
D15*
X183642000Y-80772000D03*
X186182000Y-80772000D03*
D16*
X188722000Y-80772000D03*
D15*
X183642000Y-78232000D03*
X186182000Y-78232000D03*
D16*
X188722000Y-78232000D03*
D15*
X124587000Y-90170000D03*
X124587000Y-87630000D03*
D16*
X124587000Y-85090000D03*
D15*
X127127000Y-90170000D03*
X127127000Y-87630000D03*
D16*
X127127000Y-85090000D03*
D15*
X142773400Y-75692000D03*
X142773400Y-73152000D03*
D16*
X142773400Y-70612000D03*
D15*
X183642000Y-75692000D03*
X186182000Y-75692000D03*
D16*
X188722000Y-75692000D03*
D15*
X183642000Y-73152000D03*
X186182000Y-73152000D03*
D16*
X188722000Y-73152000D03*
D15*
X183642000Y-70612000D03*
X186182000Y-70612000D03*
D16*
X188722000Y-70612000D03*
X130048000Y-70612000D03*
D15*
X130048000Y-73152000D03*
X130048000Y-75692000D03*
X132588000Y-75692000D03*
X132588000Y-73152000D03*
D16*
X132588000Y-70612000D03*
X135153400Y-70611799D03*
D15*
X135153400Y-73151799D03*
X135153400Y-75691799D03*
X188468000Y-103759000D03*
X188468000Y-106299000D03*
D16*
X188468000Y-108839000D03*
D15*
X185928000Y-103759000D03*
X185928000Y-106299000D03*
D16*
X185928000Y-108839000D03*
D15*
X183388000Y-103759000D03*
X183388000Y-106299000D03*
D16*
X183388000Y-108839000D03*
D15*
X180848000Y-103759000D03*
X180848000Y-106299000D03*
D16*
X180848000Y-108839000D03*
D15*
X178308000Y-103759000D03*
X178308000Y-106299000D03*
D16*
X178308000Y-108839000D03*
D15*
X175768000Y-103759000D03*
X175768000Y-106299000D03*
D16*
X175768000Y-108839000D03*
D15*
X173228000Y-103759000D03*
X173228000Y-106299000D03*
D16*
X173228000Y-108839000D03*
D15*
X170688000Y-103759000D03*
X170688000Y-106299000D03*
D16*
X170688000Y-108839000D03*
D15*
X162687000Y-103759000D03*
X162687000Y-106299000D03*
D16*
X162687000Y-108839000D03*
D15*
X160147000Y-103759000D03*
X160147000Y-106299000D03*
D16*
X160147000Y-108839000D03*
D15*
X157607000Y-103759000D03*
X157607000Y-106299000D03*
D16*
X157607000Y-108839000D03*
D15*
X155067000Y-103759000D03*
X155067000Y-106299000D03*
D16*
X155067000Y-108839000D03*
D15*
X152527000Y-103759000D03*
X152527000Y-106299000D03*
D16*
X152527000Y-108839000D03*
D15*
X149987000Y-103759000D03*
X149987000Y-106299000D03*
D16*
X149987000Y-108839000D03*
D15*
X147447000Y-103759000D03*
X147447000Y-106299000D03*
D16*
X147447000Y-108839000D03*
D15*
X144907000Y-103759000D03*
X144907000Y-106299000D03*
D16*
X144907000Y-108839000D03*
D17*
X163957000Y-90170000D03*
X166497000Y-90170000D03*
X166497000Y-87630000D03*
X163957000Y-87630000D03*
X166497000Y-85090000D03*
X151130000Y-113030000D03*
X146050000Y-113030000D03*
X143510000Y-113030000D03*
X140970000Y-113030000D03*
X138430000Y-113030000D03*
X135890000Y-113030000D03*
X133350000Y-113030000D03*
X130810000Y-113030000D03*
X186690000Y-64770000D03*
X184150000Y-64770000D03*
X181610000Y-64770000D03*
X179070000Y-64770000D03*
X176530000Y-64770000D03*
X173990000Y-64770000D03*
X171450000Y-64770000D03*
X168910000Y-64770000D03*
X163830000Y-64770000D03*
X161290000Y-64770000D03*
X158750000Y-64770000D03*
X156210000Y-64770000D03*
X153670000Y-64770000D03*
X151130000Y-64770000D03*
X148590000Y-64770000D03*
X146050000Y-64770000D03*
X126746000Y-64770000D03*
X141986000Y-64770000D03*
X139446000Y-64770000D03*
X136906000Y-64770000D03*
D18*
X166370000Y-107950000D03*
X166370000Y-80010000D03*
X190500000Y-64770000D03*
X115570000Y-64770000D03*
X196850000Y-113030000D03*
X114300000Y-113030000D03*
D17*
X119126000Y-64770000D03*
X121666000Y-64770000D03*
X124206000Y-64770000D03*
X129286000Y-64770000D03*
X131826000Y-64770000D03*
X134366000Y-64770000D03*
X128270000Y-113030000D03*
X153670000Y-113030000D03*
X156210000Y-113030000D03*
X158750000Y-113030000D03*
X161290000Y-113030000D03*
X163830000Y-113030000D03*
X166370000Y-113030000D03*
X168910000Y-113030000D03*
X173990000Y-113030000D03*
X176530000Y-113030000D03*
X179070000Y-113030000D03*
X181610000Y-113030000D03*
X184150000Y-113030000D03*
X186690000Y-113030000D03*
X189230000Y-113030000D03*
X191770000Y-113030000D03*
X194310000Y-64770000D03*
X196850000Y-64770000D03*
X194310000Y-67310000D03*
X196850000Y-67310000D03*
X194310000Y-69850000D03*
X196850000Y-69850000D03*
X194310000Y-72390000D03*
X196850000Y-72390000D03*
X194310000Y-74930000D03*
X196850000Y-74930000D03*
X194310000Y-77470000D03*
X196850000Y-77470000D03*
X194310000Y-80010000D03*
X196850000Y-80010000D03*
X194310000Y-82550000D03*
X196850000Y-82550000D03*
X194310000Y-85090000D03*
X196850000Y-85090000D03*
X194310000Y-87630000D03*
X196850000Y-87630000D03*
X194310000Y-90170000D03*
X196850000Y-90170000D03*
X194310000Y-92710000D03*
X196850000Y-92710000D03*
X194310000Y-95250000D03*
X196850000Y-95250000D03*
X194310000Y-97790000D03*
X196850000Y-97790000D03*
X194310000Y-100330000D03*
X196850000Y-100330000D03*
X194310000Y-102870000D03*
X196850000Y-102870000D03*
X194310000Y-105410000D03*
X196850000Y-105410000D03*
X194310000Y-107950000D03*
X196850000Y-107950000D03*
X163957000Y-85090000D03*
D15*
X108839000Y-85852000D03*
X106299000Y-85852000D03*
D16*
X103759000Y-85852000D03*
X103759000Y-88392000D03*
D15*
X106299000Y-88392000D03*
X108839000Y-88392000D03*
X108839000Y-90932000D03*
X106299000Y-90932000D03*
D16*
X103759000Y-90932000D03*
X103759000Y-93472000D03*
D15*
X106299000Y-93472000D03*
X108839000Y-93472000D03*
D16*
X103759000Y-96012000D03*
D15*
X106299000Y-96012000D03*
X108839000Y-96012000D03*
X108839000Y-98552000D03*
X106299000Y-98552000D03*
D16*
X103759000Y-98552000D03*
X103759000Y-101092000D03*
D15*
X106299000Y-101092000D03*
X108839000Y-101092000D03*
X170129200Y-90195400D03*
X172669200Y-90195400D03*
X170129200Y-87655400D03*
X172669200Y-87655400D03*
X170129200Y-85115400D03*
D16*
X172669200Y-85115400D03*
X114808000Y-109220000D03*
D15*
X114808000Y-106680000D03*
X117348000Y-109220000D03*
X117348000Y-106680000D03*
X119888000Y-109220000D03*
X119888000Y-106680000D03*
X119888000Y-100330000D03*
X119888000Y-102870000D03*
X117348000Y-100330000D03*
X117348000Y-102870000D03*
X114808000Y-100330000D03*
D16*
X114808000Y-102870000D03*
X124587000Y-113157000D03*
D15*
X122047000Y-113157000D03*
D16*
X119456200Y-69215000D03*
D15*
X116916200Y-69215000D03*
X114376200Y-69215000D03*
X111836200Y-69215000D03*
X109296200Y-69215000D03*
X106756200Y-69215000D03*
X104216200Y-69215000D03*
X137693400Y-75691799D03*
X137693400Y-73151799D03*
D16*
X137693400Y-70611799D03*
G36*
G01*
X160180000Y-70416000D02*
X161130000Y-70416000D01*
G75*
G02*
X161355000Y-70641000I0J-225000D01*
G01*
X161355000Y-71091000D01*
G75*
G02*
X161130000Y-71316000I-225000J0D01*
G01*
X160180000Y-71316000D01*
G75*
G02*
X159955000Y-71091000I0J225000D01*
G01*
X159955000Y-70641000D01*
G75*
G02*
X160180000Y-70416000I225000J0D01*
G01*
G37*
D19*
X160655000Y-72116000D03*
X160655000Y-73366000D03*
X160655000Y-74616000D03*
X160655000Y-75866000D03*
X160655000Y-77116000D03*
D16*
X147701000Y-70612000D03*
D15*
X147701000Y-73152000D03*
X147701000Y-75692000D03*
X147701000Y-78232000D03*
D16*
X156591000Y-70612000D03*
D15*
X156591000Y-73152000D03*
X156591000Y-75692000D03*
X156591000Y-78232000D03*
X152146000Y-78232000D03*
X152146000Y-75692000D03*
X152146000Y-73152000D03*
D16*
X152146000Y-70612000D03*
D15*
X140233400Y-75692000D03*
X140233400Y-73152000D03*
D16*
X140233400Y-70612000D03*
X127508000Y-70612000D03*
D15*
X127508000Y-73152000D03*
X127508000Y-75692000D03*
X124968000Y-75692000D03*
X124968000Y-73152000D03*
D16*
X124968000Y-70612000D03*
X166497000Y-69469000D03*
D15*
X169037000Y-69469000D03*
X171577000Y-69469000D03*
X174117000Y-69469000D03*
X176657000Y-69469000D03*
X179197000Y-69469000D03*
M02*
