G04 #@! TF.GenerationSoftware,KiCad,Pcbnew,(5.1.12)-1*
G04 #@! TF.CreationDate,2021-11-28T01:24:50-03:00*
G04 #@! TF.ProjectId,SHIELD_MEGA,53484945-4c44-45f4-9d45-47412e6b6963,rev?*
G04 #@! TF.SameCoordinates,Original*
G04 #@! TF.FileFunction,Legend,Bot*
G04 #@! TF.FilePolarity,Positive*
%FSLAX46Y46*%
G04 Gerber Fmt 4.6, Leading zero omitted, Abs format (unit mm)*
G04 Created by KiCad (PCBNEW (5.1.12)-1) date 2021-11-28 01:24:50*
%MOMM*%
%LPD*%
G01*
G04 APERTURE LIST*
%ADD10C,1.498000*%
%ADD11R,1.498000X1.498000*%
%ADD12O,1.700000X1.700000*%
%ADD13R,1.700000X1.700000*%
%ADD14O,1.727200X1.727200*%
%ADD15C,3.200000*%
%ADD16O,1.400000X0.900000*%
G04 APERTURE END LIST*
%LPC*%
D10*
X137183000Y-104902000D03*
X137183000Y-109402000D03*
D11*
X130683000Y-104902000D03*
D10*
X130683000Y-109402000D03*
D12*
X129667000Y-90170000D03*
X129667000Y-87630000D03*
D13*
X129667000Y-85090000D03*
D12*
X132207000Y-90170000D03*
X132207000Y-87630000D03*
D13*
X132207000Y-85090000D03*
D12*
X134747000Y-90170000D03*
X134747000Y-87630000D03*
D13*
X134747000Y-85090000D03*
D12*
X137287000Y-90170000D03*
X137287000Y-87630000D03*
D13*
X137287000Y-85090000D03*
D12*
X139827000Y-90170000D03*
X139827000Y-87630000D03*
D13*
X139827000Y-85090000D03*
D12*
X142367000Y-90170000D03*
X142367000Y-87630000D03*
D13*
X142367000Y-85090000D03*
D12*
X144907000Y-90170000D03*
X144907000Y-87630000D03*
D13*
X144907000Y-85090000D03*
D12*
X147447000Y-90170000D03*
X147447000Y-87630000D03*
D13*
X147447000Y-85090000D03*
D12*
X149987000Y-90170000D03*
X149987000Y-87630000D03*
D13*
X149987000Y-85090000D03*
D12*
X152527000Y-90170000D03*
X152527000Y-87630000D03*
D13*
X152527000Y-85090000D03*
D12*
X155067000Y-90170000D03*
X155067000Y-87630000D03*
D13*
X155067000Y-85090000D03*
D12*
X157607000Y-90170000D03*
X157607000Y-87630000D03*
D13*
X157607000Y-85090000D03*
D12*
X160147000Y-90170000D03*
X160147000Y-87630000D03*
D13*
X160147000Y-85090000D03*
D12*
X183642000Y-98552000D03*
X186182000Y-98552000D03*
D13*
X188722000Y-98552000D03*
D12*
X183642000Y-96012000D03*
X186182000Y-96012000D03*
D13*
X188722000Y-96012000D03*
D12*
X183642000Y-93472000D03*
X186182000Y-93472000D03*
D13*
X188722000Y-93472000D03*
D12*
X183642000Y-90932000D03*
X186182000Y-90932000D03*
D13*
X188722000Y-90932000D03*
D12*
X183642000Y-88392000D03*
X186182000Y-88392000D03*
D13*
X188722000Y-88392000D03*
D12*
X183642000Y-85852000D03*
X186182000Y-85852000D03*
D13*
X188722000Y-85852000D03*
D12*
X183642000Y-83312000D03*
X186182000Y-83312000D03*
D13*
X188722000Y-83312000D03*
D12*
X183642000Y-80772000D03*
X186182000Y-80772000D03*
D13*
X188722000Y-80772000D03*
D12*
X183642000Y-78232000D03*
X186182000Y-78232000D03*
D13*
X188722000Y-78232000D03*
D12*
X124587000Y-90170000D03*
X124587000Y-87630000D03*
D13*
X124587000Y-85090000D03*
D12*
X127127000Y-90170000D03*
X127127000Y-87630000D03*
D13*
X127127000Y-85090000D03*
D12*
X142773400Y-75692000D03*
X142773400Y-73152000D03*
D13*
X142773400Y-70612000D03*
D12*
X183642000Y-75692000D03*
X186182000Y-75692000D03*
D13*
X188722000Y-75692000D03*
D12*
X183642000Y-73152000D03*
X186182000Y-73152000D03*
D13*
X188722000Y-73152000D03*
D12*
X183642000Y-70612000D03*
X186182000Y-70612000D03*
D13*
X188722000Y-70612000D03*
X130048000Y-70612000D03*
D12*
X130048000Y-73152000D03*
X130048000Y-75692000D03*
X132588000Y-75692000D03*
X132588000Y-73152000D03*
D13*
X132588000Y-70612000D03*
X135153400Y-70611799D03*
D12*
X135153400Y-73151799D03*
X135153400Y-75691799D03*
X188468000Y-103759000D03*
X188468000Y-106299000D03*
D13*
X188468000Y-108839000D03*
D12*
X185928000Y-103759000D03*
X185928000Y-106299000D03*
D13*
X185928000Y-108839000D03*
D12*
X183388000Y-103759000D03*
X183388000Y-106299000D03*
D13*
X183388000Y-108839000D03*
D12*
X180848000Y-103759000D03*
X180848000Y-106299000D03*
D13*
X180848000Y-108839000D03*
D12*
X178308000Y-103759000D03*
X178308000Y-106299000D03*
D13*
X178308000Y-108839000D03*
D12*
X175768000Y-103759000D03*
X175768000Y-106299000D03*
D13*
X175768000Y-108839000D03*
D12*
X173228000Y-103759000D03*
X173228000Y-106299000D03*
D13*
X173228000Y-108839000D03*
D12*
X170688000Y-103759000D03*
X170688000Y-106299000D03*
D13*
X170688000Y-108839000D03*
D12*
X162687000Y-103759000D03*
X162687000Y-106299000D03*
D13*
X162687000Y-108839000D03*
D12*
X160147000Y-103759000D03*
X160147000Y-106299000D03*
D13*
X160147000Y-108839000D03*
D12*
X157607000Y-103759000D03*
X157607000Y-106299000D03*
D13*
X157607000Y-108839000D03*
D12*
X155067000Y-103759000D03*
X155067000Y-106299000D03*
D13*
X155067000Y-108839000D03*
D12*
X152527000Y-103759000D03*
X152527000Y-106299000D03*
D13*
X152527000Y-108839000D03*
D12*
X149987000Y-103759000D03*
X149987000Y-106299000D03*
D13*
X149987000Y-108839000D03*
D12*
X147447000Y-103759000D03*
X147447000Y-106299000D03*
D13*
X147447000Y-108839000D03*
D12*
X144907000Y-103759000D03*
X144907000Y-106299000D03*
D13*
X144907000Y-108839000D03*
D14*
X163957000Y-90170000D03*
X166497000Y-90170000D03*
X166497000Y-87630000D03*
X163957000Y-87630000D03*
X166497000Y-85090000D03*
X151130000Y-113030000D03*
X146050000Y-113030000D03*
X143510000Y-113030000D03*
X140970000Y-113030000D03*
X138430000Y-113030000D03*
X135890000Y-113030000D03*
X133350000Y-113030000D03*
X130810000Y-113030000D03*
X186690000Y-64770000D03*
X184150000Y-64770000D03*
X181610000Y-64770000D03*
X179070000Y-64770000D03*
X176530000Y-64770000D03*
X173990000Y-64770000D03*
X171450000Y-64770000D03*
X168910000Y-64770000D03*
X163830000Y-64770000D03*
X161290000Y-64770000D03*
X158750000Y-64770000D03*
X156210000Y-64770000D03*
X153670000Y-64770000D03*
X151130000Y-64770000D03*
X148590000Y-64770000D03*
X146050000Y-64770000D03*
X126746000Y-64770000D03*
X141986000Y-64770000D03*
X139446000Y-64770000D03*
X136906000Y-64770000D03*
D15*
X166370000Y-107950000D03*
X166370000Y-80010000D03*
X190500000Y-64770000D03*
X115570000Y-64770000D03*
X196850000Y-113030000D03*
X114300000Y-113030000D03*
D14*
X119126000Y-64770000D03*
X121666000Y-64770000D03*
X124206000Y-64770000D03*
X129286000Y-64770000D03*
X131826000Y-64770000D03*
X134366000Y-64770000D03*
X128270000Y-113030000D03*
X153670000Y-113030000D03*
X156210000Y-113030000D03*
X158750000Y-113030000D03*
X161290000Y-113030000D03*
X163830000Y-113030000D03*
X166370000Y-113030000D03*
X168910000Y-113030000D03*
X173990000Y-113030000D03*
X176530000Y-113030000D03*
X179070000Y-113030000D03*
X181610000Y-113030000D03*
X184150000Y-113030000D03*
X186690000Y-113030000D03*
X189230000Y-113030000D03*
X191770000Y-113030000D03*
X194310000Y-64770000D03*
X196850000Y-64770000D03*
X194310000Y-67310000D03*
X196850000Y-67310000D03*
X194310000Y-69850000D03*
X196850000Y-69850000D03*
X194310000Y-72390000D03*
X196850000Y-72390000D03*
X194310000Y-74930000D03*
X196850000Y-74930000D03*
X194310000Y-77470000D03*
X196850000Y-77470000D03*
X194310000Y-80010000D03*
X196850000Y-80010000D03*
X194310000Y-82550000D03*
X196850000Y-82550000D03*
X194310000Y-85090000D03*
X196850000Y-85090000D03*
X194310000Y-87630000D03*
X196850000Y-87630000D03*
X194310000Y-90170000D03*
X196850000Y-90170000D03*
X194310000Y-92710000D03*
X196850000Y-92710000D03*
X194310000Y-95250000D03*
X196850000Y-95250000D03*
X194310000Y-97790000D03*
X196850000Y-97790000D03*
X194310000Y-100330000D03*
X196850000Y-100330000D03*
X194310000Y-102870000D03*
X196850000Y-102870000D03*
X194310000Y-105410000D03*
X196850000Y-105410000D03*
X194310000Y-107950000D03*
X196850000Y-107950000D03*
X163957000Y-85090000D03*
D12*
X108839000Y-85852000D03*
X106299000Y-85852000D03*
D13*
X103759000Y-85852000D03*
X103759000Y-88392000D03*
D12*
X106299000Y-88392000D03*
X108839000Y-88392000D03*
X108839000Y-90932000D03*
X106299000Y-90932000D03*
D13*
X103759000Y-90932000D03*
X103759000Y-93472000D03*
D12*
X106299000Y-93472000D03*
X108839000Y-93472000D03*
D13*
X103759000Y-96012000D03*
D12*
X106299000Y-96012000D03*
X108839000Y-96012000D03*
X108839000Y-98552000D03*
X106299000Y-98552000D03*
D13*
X103759000Y-98552000D03*
X103759000Y-101092000D03*
D12*
X106299000Y-101092000D03*
X108839000Y-101092000D03*
X170129200Y-90195400D03*
X172669200Y-90195400D03*
X170129200Y-87655400D03*
X172669200Y-87655400D03*
X170129200Y-85115400D03*
D13*
X172669200Y-85115400D03*
X114808000Y-109220000D03*
D12*
X114808000Y-106680000D03*
X117348000Y-109220000D03*
X117348000Y-106680000D03*
X119888000Y-109220000D03*
X119888000Y-106680000D03*
X119888000Y-100330000D03*
X119888000Y-102870000D03*
X117348000Y-100330000D03*
X117348000Y-102870000D03*
X114808000Y-100330000D03*
D13*
X114808000Y-102870000D03*
X124587000Y-113157000D03*
D12*
X122047000Y-113157000D03*
D13*
X119456200Y-69215000D03*
D12*
X116916200Y-69215000D03*
X114376200Y-69215000D03*
X111836200Y-69215000D03*
X109296200Y-69215000D03*
X106756200Y-69215000D03*
X104216200Y-69215000D03*
X137693400Y-75691799D03*
X137693400Y-73151799D03*
D13*
X137693400Y-70611799D03*
G36*
G01*
X160180000Y-70416000D02*
X161130000Y-70416000D01*
G75*
G02*
X161355000Y-70641000I0J-225000D01*
G01*
X161355000Y-71091000D01*
G75*
G02*
X161130000Y-71316000I-225000J0D01*
G01*
X160180000Y-71316000D01*
G75*
G02*
X159955000Y-71091000I0J225000D01*
G01*
X159955000Y-70641000D01*
G75*
G02*
X160180000Y-70416000I225000J0D01*
G01*
G37*
D16*
X160655000Y-72116000D03*
X160655000Y-73366000D03*
X160655000Y-74616000D03*
X160655000Y-75866000D03*
X160655000Y-77116000D03*
D13*
X147701000Y-70612000D03*
D12*
X147701000Y-73152000D03*
X147701000Y-75692000D03*
X147701000Y-78232000D03*
D13*
X156591000Y-70612000D03*
D12*
X156591000Y-73152000D03*
X156591000Y-75692000D03*
X156591000Y-78232000D03*
X152146000Y-78232000D03*
X152146000Y-75692000D03*
X152146000Y-73152000D03*
D13*
X152146000Y-70612000D03*
D12*
X140233400Y-75692000D03*
X140233400Y-73152000D03*
D13*
X140233400Y-70612000D03*
X127508000Y-70612000D03*
D12*
X127508000Y-73152000D03*
X127508000Y-75692000D03*
X124968000Y-75692000D03*
X124968000Y-73152000D03*
D13*
X124968000Y-70612000D03*
X166497000Y-69469000D03*
D12*
X169037000Y-69469000D03*
X171577000Y-69469000D03*
X174117000Y-69469000D03*
X176657000Y-69469000D03*
X179197000Y-69469000D03*
M02*
