%FSLAX45Y45*%
G04 Gerber Fmt 4.5, Leading zero omitted, Abs format (unit mm)*
G04 Created by KiCad (PCBNEW (5.1.12)-1) date 2021-11-28 01:25:26*
%MOMM*%
%LPD*%
G01*
G04 APERTURE LIST*
%TA.AperFunction,Profile*%
%ADD10C,0.050000*%
%TD*%
%ADD11C,0.200000*%
%ADD12C,0.300000*%
G04 APERTURE END LIST*
D10*
X10139680Y-6223000D02*
X19786600Y-6223000D01*
X10139680Y-11557000D02*
X10139680Y-6223000D01*
X19939000Y-11557000D02*
X10139680Y-11557000D01*
X20121880Y-11247120D02*
X19939000Y-11430000D01*
X20121880Y-7675880D02*
X20121880Y-11247120D01*
X19939000Y-7493000D02*
X20121880Y-7675880D01*
X19939000Y-11430000D02*
X19939000Y-11557000D01*
X19939000Y-6375400D02*
X19939000Y-7493000D01*
X19786600Y-6223000D02*
X19939000Y-6375400D01*
D11*
X11270000Y-11143000D02*
X11590000Y-11463000D01*
X11590000Y-11143000D02*
X11270000Y-11463000D01*
X11397000Y-6317000D02*
X11717000Y-6637000D01*
X11717000Y-6317000D02*
X11397000Y-6637000D01*
X16477000Y-7841000D02*
X16797000Y-8161000D01*
X16797000Y-7841000D02*
X16477000Y-8161000D01*
X16477000Y-10635000D02*
X16797000Y-10955000D01*
X16797000Y-10635000D02*
X16477000Y-10955000D01*
X18890000Y-6317000D02*
X19210000Y-6637000D01*
X19210000Y-6317000D02*
X18890000Y-6637000D01*
X19525000Y-11143000D02*
X19845000Y-11463000D01*
X19845000Y-11143000D02*
X19525000Y-11463000D01*
D12*
X10423608Y-12025214D02*
X10423608Y-11725214D01*
X10495037Y-11725214D01*
X10537894Y-11739500D01*
X10566466Y-11768071D01*
X10580751Y-11796643D01*
X10595037Y-11853786D01*
X10595037Y-11896643D01*
X10580751Y-11953786D01*
X10566466Y-11982357D01*
X10537894Y-12010929D01*
X10495037Y-12025214D01*
X10423608Y-12025214D01*
X10723608Y-12025214D02*
X10723608Y-11825214D01*
X10723608Y-11882357D02*
X10737894Y-11853786D01*
X10752180Y-11839500D01*
X10780751Y-11825214D01*
X10809323Y-11825214D01*
X10909323Y-12025214D02*
X10909323Y-11825214D01*
X10909323Y-11725214D02*
X10895037Y-11739500D01*
X10909323Y-11753786D01*
X10923608Y-11739500D01*
X10909323Y-11725214D01*
X10909323Y-11753786D01*
X11095037Y-12025214D02*
X11066466Y-12010929D01*
X11052180Y-11982357D01*
X11052180Y-11725214D01*
X11252180Y-12025214D02*
X11223608Y-12010929D01*
X11209323Y-11982357D01*
X11209323Y-11725214D01*
X11595037Y-12025214D02*
X11595037Y-11725214D01*
X11695037Y-11939500D01*
X11795037Y-11725214D01*
X11795037Y-12025214D01*
X12066466Y-12025214D02*
X12066466Y-11868071D01*
X12052180Y-11839500D01*
X12023608Y-11825214D01*
X11966466Y-11825214D01*
X11937894Y-11839500D01*
X12066466Y-12010929D02*
X12037894Y-12025214D01*
X11966466Y-12025214D01*
X11937894Y-12010929D01*
X11923608Y-11982357D01*
X11923608Y-11953786D01*
X11937894Y-11925214D01*
X11966466Y-11910929D01*
X12037894Y-11910929D01*
X12066466Y-11896643D01*
X12209323Y-11825214D02*
X12209323Y-12125214D01*
X12209323Y-11839500D02*
X12237894Y-11825214D01*
X12295037Y-11825214D01*
X12323608Y-11839500D01*
X12337894Y-11853786D01*
X12352180Y-11882357D01*
X12352180Y-11968071D01*
X12337894Y-11996643D01*
X12323608Y-12010929D01*
X12295037Y-12025214D01*
X12237894Y-12025214D01*
X12209323Y-12010929D01*
X12480751Y-11996643D02*
X12495037Y-12010929D01*
X12480751Y-12025214D01*
X12466466Y-12010929D01*
X12480751Y-11996643D01*
X12480751Y-12025214D01*
X12480751Y-11839500D02*
X12495037Y-11853786D01*
X12480751Y-11868071D01*
X12466466Y-11853786D01*
X12480751Y-11839500D01*
X12480751Y-11868071D01*
X9817180Y-12359500D02*
X10137180Y-12679500D01*
X10137180Y-12359500D02*
X9817180Y-12679500D01*
X10395037Y-12355214D02*
X10580751Y-12355214D01*
X10480751Y-12469500D01*
X10523608Y-12469500D01*
X10552180Y-12483786D01*
X10566466Y-12498071D01*
X10580751Y-12526643D01*
X10580751Y-12598071D01*
X10566466Y-12626643D01*
X10552180Y-12640929D01*
X10523608Y-12655214D01*
X10437894Y-12655214D01*
X10409323Y-12640929D01*
X10395037Y-12626643D01*
X10709323Y-12626643D02*
X10723608Y-12640929D01*
X10709323Y-12655214D01*
X10695037Y-12640929D01*
X10709323Y-12626643D01*
X10709323Y-12655214D01*
X10837894Y-12383786D02*
X10852180Y-12369500D01*
X10880751Y-12355214D01*
X10952180Y-12355214D01*
X10980751Y-12369500D01*
X10995037Y-12383786D01*
X11009323Y-12412357D01*
X11009323Y-12440929D01*
X10995037Y-12483786D01*
X10823608Y-12655214D01*
X11009323Y-12655214D01*
X11195037Y-12355214D02*
X11223608Y-12355214D01*
X11252180Y-12369500D01*
X11266466Y-12383786D01*
X11280751Y-12412357D01*
X11295037Y-12469500D01*
X11295037Y-12540929D01*
X11280751Y-12598071D01*
X11266466Y-12626643D01*
X11252180Y-12640929D01*
X11223608Y-12655214D01*
X11195037Y-12655214D01*
X11166466Y-12640929D01*
X11152180Y-12626643D01*
X11137894Y-12598071D01*
X11123608Y-12540929D01*
X11123608Y-12469500D01*
X11137894Y-12412357D01*
X11152180Y-12383786D01*
X11166466Y-12369500D01*
X11195037Y-12355214D01*
X11480751Y-12355214D02*
X11509323Y-12355214D01*
X11537894Y-12369500D01*
X11552180Y-12383786D01*
X11566466Y-12412357D01*
X11580751Y-12469500D01*
X11580751Y-12540929D01*
X11566466Y-12598071D01*
X11552180Y-12626643D01*
X11537894Y-12640929D01*
X11509323Y-12655214D01*
X11480751Y-12655214D01*
X11452180Y-12640929D01*
X11437894Y-12626643D01*
X11423608Y-12598071D01*
X11409323Y-12540929D01*
X11409323Y-12469500D01*
X11423608Y-12412357D01*
X11437894Y-12383786D01*
X11452180Y-12369500D01*
X11480751Y-12355214D01*
X11709323Y-12655214D02*
X11709323Y-12455214D01*
X11709323Y-12483786D02*
X11723608Y-12469500D01*
X11752180Y-12455214D01*
X11795037Y-12455214D01*
X11823608Y-12469500D01*
X11837894Y-12498071D01*
X11837894Y-12655214D01*
X11837894Y-12498071D02*
X11852180Y-12469500D01*
X11880751Y-12455214D01*
X11923608Y-12455214D01*
X11952180Y-12469500D01*
X11966466Y-12498071D01*
X11966466Y-12655214D01*
X12109323Y-12655214D02*
X12109323Y-12455214D01*
X12109323Y-12483786D02*
X12123608Y-12469500D01*
X12152180Y-12455214D01*
X12195037Y-12455214D01*
X12223608Y-12469500D01*
X12237894Y-12498071D01*
X12237894Y-12655214D01*
X12237894Y-12498071D02*
X12252180Y-12469500D01*
X12280751Y-12455214D01*
X12323608Y-12455214D01*
X12352180Y-12469500D01*
X12366466Y-12498071D01*
X12366466Y-12655214D01*
X12952180Y-12340929D02*
X12695037Y-12726643D01*
X13337894Y-12355214D02*
X13366466Y-12355214D01*
X13395037Y-12369500D01*
X13409323Y-12383786D01*
X13423608Y-12412357D01*
X13437894Y-12469500D01*
X13437894Y-12540929D01*
X13423608Y-12598071D01*
X13409323Y-12626643D01*
X13395037Y-12640929D01*
X13366466Y-12655214D01*
X13337894Y-12655214D01*
X13309323Y-12640929D01*
X13295037Y-12626643D01*
X13280751Y-12598071D01*
X13266466Y-12540929D01*
X13266466Y-12469500D01*
X13280751Y-12412357D01*
X13295037Y-12383786D01*
X13309323Y-12369500D01*
X13337894Y-12355214D01*
X13566466Y-12626643D02*
X13580751Y-12640929D01*
X13566466Y-12655214D01*
X13552180Y-12640929D01*
X13566466Y-12626643D01*
X13566466Y-12655214D01*
X13866466Y-12655214D02*
X13695037Y-12655214D01*
X13780751Y-12655214D02*
X13780751Y-12355214D01*
X13752180Y-12398071D01*
X13723608Y-12426643D01*
X13695037Y-12440929D01*
X13980751Y-12383786D02*
X13995037Y-12369500D01*
X14023608Y-12355214D01*
X14095037Y-12355214D01*
X14123608Y-12369500D01*
X14137894Y-12383786D01*
X14152180Y-12412357D01*
X14152180Y-12440929D01*
X14137894Y-12483786D01*
X13966466Y-12655214D01*
X14152180Y-12655214D01*
X14409323Y-12355214D02*
X14352180Y-12355214D01*
X14323608Y-12369500D01*
X14309323Y-12383786D01*
X14280751Y-12426643D01*
X14266466Y-12483786D01*
X14266466Y-12598071D01*
X14280751Y-12626643D01*
X14295037Y-12640929D01*
X14323608Y-12655214D01*
X14380751Y-12655214D01*
X14409323Y-12640929D01*
X14423608Y-12626643D01*
X14437894Y-12598071D01*
X14437894Y-12526643D01*
X14423608Y-12498071D01*
X14409323Y-12483786D01*
X14380751Y-12469500D01*
X14323608Y-12469500D01*
X14295037Y-12483786D01*
X14280751Y-12498071D01*
X14266466Y-12526643D01*
X14623608Y-12355214D02*
X14652180Y-12355214D01*
X14680751Y-12369500D01*
X14695037Y-12383786D01*
X14709323Y-12412357D01*
X14723608Y-12469500D01*
X14723608Y-12540929D01*
X14709323Y-12598071D01*
X14695037Y-12626643D01*
X14680751Y-12640929D01*
X14652180Y-12655214D01*
X14623608Y-12655214D01*
X14595037Y-12640929D01*
X14580751Y-12626643D01*
X14566466Y-12598071D01*
X14552180Y-12540929D01*
X14552180Y-12469500D01*
X14566466Y-12412357D01*
X14580751Y-12383786D01*
X14595037Y-12369500D01*
X14623608Y-12355214D01*
X14837894Y-12355214D02*
X14837894Y-12412357D01*
X14952180Y-12355214D02*
X14952180Y-12412357D01*
X15395037Y-12769500D02*
X15380751Y-12755214D01*
X15352180Y-12712357D01*
X15337894Y-12683786D01*
X15323608Y-12640929D01*
X15309323Y-12569500D01*
X15309323Y-12512357D01*
X15323608Y-12440929D01*
X15337894Y-12398071D01*
X15352180Y-12369500D01*
X15380751Y-12326643D01*
X15395037Y-12312357D01*
X15637894Y-12355214D02*
X15580751Y-12355214D01*
X15552180Y-12369500D01*
X15537894Y-12383786D01*
X15509323Y-12426643D01*
X15495037Y-12483786D01*
X15495037Y-12598071D01*
X15509323Y-12626643D01*
X15523608Y-12640929D01*
X15552180Y-12655214D01*
X15609323Y-12655214D01*
X15637894Y-12640929D01*
X15652180Y-12626643D01*
X15666466Y-12598071D01*
X15666466Y-12526643D01*
X15652180Y-12498071D01*
X15637894Y-12483786D01*
X15609323Y-12469500D01*
X15552180Y-12469500D01*
X15523608Y-12483786D01*
X15509323Y-12498071D01*
X15495037Y-12526643D01*
X16023608Y-12655214D02*
X16023608Y-12355214D01*
X16152180Y-12655214D02*
X16152180Y-12498071D01*
X16137894Y-12469500D01*
X16109323Y-12455214D01*
X16066466Y-12455214D01*
X16037894Y-12469500D01*
X16023608Y-12483786D01*
X16337894Y-12655214D02*
X16309323Y-12640929D01*
X16295037Y-12626643D01*
X16280751Y-12598071D01*
X16280751Y-12512357D01*
X16295037Y-12483786D01*
X16309323Y-12469500D01*
X16337894Y-12455214D01*
X16380751Y-12455214D01*
X16409323Y-12469500D01*
X16423608Y-12483786D01*
X16437894Y-12512357D01*
X16437894Y-12598071D01*
X16423608Y-12626643D01*
X16409323Y-12640929D01*
X16380751Y-12655214D01*
X16337894Y-12655214D01*
X16609323Y-12655214D02*
X16580751Y-12640929D01*
X16566466Y-12612357D01*
X16566466Y-12355214D01*
X16837894Y-12640929D02*
X16809323Y-12655214D01*
X16752180Y-12655214D01*
X16723608Y-12640929D01*
X16709323Y-12612357D01*
X16709323Y-12498071D01*
X16723608Y-12469500D01*
X16752180Y-12455214D01*
X16809323Y-12455214D01*
X16837894Y-12469500D01*
X16852180Y-12498071D01*
X16852180Y-12526643D01*
X16709323Y-12555214D01*
X16966466Y-12640929D02*
X16995037Y-12655214D01*
X17052180Y-12655214D01*
X17080751Y-12640929D01*
X17095037Y-12612357D01*
X17095037Y-12598071D01*
X17080751Y-12569500D01*
X17052180Y-12555214D01*
X17009323Y-12555214D01*
X16980751Y-12540929D01*
X16966466Y-12512357D01*
X16966466Y-12498071D01*
X16980751Y-12469500D01*
X17009323Y-12455214D01*
X17052180Y-12455214D01*
X17080751Y-12469500D01*
X17195037Y-12769500D02*
X17209323Y-12755214D01*
X17237894Y-12712357D01*
X17252180Y-12683786D01*
X17266466Y-12640929D01*
X17280751Y-12569500D01*
X17280751Y-12512357D01*
X17266466Y-12440929D01*
X17252180Y-12398071D01*
X17237894Y-12369500D01*
X17209323Y-12326643D01*
X17195037Y-12312357D01*
X17737894Y-12769500D02*
X17723608Y-12755214D01*
X17695037Y-12712357D01*
X17680751Y-12683786D01*
X17666466Y-12640929D01*
X17652180Y-12569500D01*
X17652180Y-12512357D01*
X17666466Y-12440929D01*
X17680751Y-12398071D01*
X17695037Y-12369500D01*
X17723608Y-12326643D01*
X17737894Y-12312357D01*
X17852180Y-12455214D02*
X17852180Y-12655214D01*
X17852180Y-12483786D02*
X17866466Y-12469500D01*
X17895037Y-12455214D01*
X17937894Y-12455214D01*
X17966466Y-12469500D01*
X17980751Y-12498071D01*
X17980751Y-12655214D01*
X18166466Y-12655214D02*
X18137894Y-12640929D01*
X18123608Y-12626643D01*
X18109323Y-12598071D01*
X18109323Y-12512357D01*
X18123608Y-12483786D01*
X18137894Y-12469500D01*
X18166466Y-12455214D01*
X18209323Y-12455214D01*
X18237894Y-12469500D01*
X18252180Y-12483786D01*
X18266466Y-12512357D01*
X18266466Y-12598071D01*
X18252180Y-12626643D01*
X18237894Y-12640929D01*
X18209323Y-12655214D01*
X18166466Y-12655214D01*
X18352180Y-12455214D02*
X18466466Y-12455214D01*
X18395037Y-12355214D02*
X18395037Y-12612357D01*
X18409323Y-12640929D01*
X18437894Y-12655214D01*
X18466466Y-12655214D01*
X18795037Y-12455214D02*
X18795037Y-12755214D01*
X18795037Y-12469500D02*
X18823608Y-12455214D01*
X18880751Y-12455214D01*
X18909323Y-12469500D01*
X18923608Y-12483786D01*
X18937894Y-12512357D01*
X18937894Y-12598071D01*
X18923608Y-12626643D01*
X18909323Y-12640929D01*
X18880751Y-12655214D01*
X18823608Y-12655214D01*
X18795037Y-12640929D01*
X19109323Y-12655214D02*
X19080751Y-12640929D01*
X19066466Y-12612357D01*
X19066466Y-12355214D01*
X19352180Y-12655214D02*
X19352180Y-12498071D01*
X19337894Y-12469500D01*
X19309323Y-12455214D01*
X19252180Y-12455214D01*
X19223608Y-12469500D01*
X19352180Y-12640929D02*
X19323608Y-12655214D01*
X19252180Y-12655214D01*
X19223608Y-12640929D01*
X19209323Y-12612357D01*
X19209323Y-12583786D01*
X19223608Y-12555214D01*
X19252180Y-12540929D01*
X19323608Y-12540929D01*
X19352180Y-12526643D01*
X19452180Y-12455214D02*
X19566466Y-12455214D01*
X19495037Y-12355214D02*
X19495037Y-12612357D01*
X19509323Y-12640929D01*
X19537894Y-12655214D01*
X19566466Y-12655214D01*
X19780751Y-12640929D02*
X19752180Y-12655214D01*
X19695037Y-12655214D01*
X19666466Y-12640929D01*
X19652180Y-12612357D01*
X19652180Y-12498071D01*
X19666466Y-12469500D01*
X19695037Y-12455214D01*
X19752180Y-12455214D01*
X19780751Y-12469500D01*
X19795037Y-12498071D01*
X19795037Y-12526643D01*
X19652180Y-12555214D01*
X20052180Y-12655214D02*
X20052180Y-12355214D01*
X20052180Y-12640929D02*
X20023608Y-12655214D01*
X19966466Y-12655214D01*
X19937894Y-12640929D01*
X19923608Y-12626643D01*
X19909323Y-12598071D01*
X19909323Y-12512357D01*
X19923608Y-12483786D01*
X19937894Y-12469500D01*
X19966466Y-12455214D01*
X20023608Y-12455214D01*
X20052180Y-12469500D01*
X20166466Y-12769500D02*
X20180751Y-12755214D01*
X20209323Y-12712357D01*
X20223608Y-12683786D01*
X20237894Y-12640929D01*
X20252180Y-12569500D01*
X20252180Y-12512357D01*
X20237894Y-12440929D01*
X20223608Y-12398071D01*
X20209323Y-12369500D01*
X20180751Y-12326643D01*
X20166466Y-12312357D01*
M02*
